<?xml version="1.0" encoding="UTF-8"?>
<svg width="200px" height="200px" viewBox="0 0 200 200" version="1.1" xmlns="http://www.w3.org/2000/svg" xmlns:xlink="http://www.w3.org/1999/xlink">
    <!-- Generator: Sketch 56.2 (81672) - https://sketch.com -->
    <title>编组 6</title>
    <desc>Created with Sketch.</desc>
    <defs>
        <linearGradient x1="100%" y1="95.818905%" x2="0%" y2="4.18109502%" id="linearGradient-1">
            <stop stop-color="#5A4668" offset="0%"></stop>
            <stop stop-color="#D29991" offset="100%"></stop>
        </linearGradient>
    </defs>
    <g id="Page-2" stroke="none" stroke-width="1" fill="none" fill-rule="evenodd">
        <g id="编组-6">
            <rect id="矩形" fill="#FFFFFF" opacity="0" x="0" y="0" width="200" height="200"></rect>
            <g id="编组" transform="translate(16.000000, 27.000000)" fill="url(#linearGradient-1)">
                <path d="M23.416632,2 L0,2 L0,0 L23.0059177,0 L25.0476538,0 L30.3869395,26 L155.649926,26 L138.815559,108 L46.6891526,108 L39.4510574,127 L136,127 C142.075132,127 147,131.924868 147,138 C147,144.075132 142.075132,149 136,149 C129.924868,149 125,144.075132 125,138 C125,134.279684 126.846897,130.990735 129.673842,129 L44.3261583,129 C47.1531031,130.990735 49,134.279684 49,138 C49,144.075132 44.0751322,149 38,149 C31.9248678,149 27,144.075132 27,138 C27,132.15913 31.5523765,127.381525 37.3025607,127.021753 L44.9618865,106.916022 L23.416632,2 Z M34.4940823,46 L149.502271,46 L153.197619,28 L30.7976538,28 L34.4940823,46 Z M34.9047966,48 L46.8155109,106 L137.184441,106 L149.091676,48 L34.9047966,48 Z M136,147 C140.970563,147 145,142.970563 145,138 C145,133.029437 140.970563,129 136,129 C131.029437,129 127,133.029437 127,138 C127,142.970563 131.029437,147 136,147 Z M38,147 C42.9705627,147 47,142.970563 47,138 C47,133.029437 42.9705627,129 38,129 C33.0294373,129 29,133.029437 29,138 C29,142.970563 33.0294373,147 38,147 Z" id="形状结合"></path>
            </g>
        </g>
    </g>
</svg>