<?xml version="1.0" encoding="UTF-8"?>
<svg width="160px" height="36px" viewBox="0 0 160 36" version="1.1" xmlns="http://www.w3.org/2000/svg" xmlns:xlink="http://www.w3.org/1999/xlink">
    <!-- Generator: Sketch 56.2 (81672) - https://sketch.com -->
    <title>编组 3</title>
    <desc>Created with Sketch.</desc>
    <g id="Page-2" stroke="none" stroke-width="1" fill="none" fill-rule="evenodd">
        <g id="编组-3" fill="#FFFFFF">
            <rect id="矩形" opacity="0" x="0" y="0" width="160" height="36"></rect>
            <path d="M31.68,19.456 C31.68,23.296 31.656,24.832 30.096,26.392 C28.968,27.52 27.456,28.144 25.824,28.144 C24.192,28.144 22.68,27.52 21.552,26.392 C19.992,24.832 19.968,23.296 19.968,19.456 C19.968,15.592 19.992,14.08 21.552,12.52 C22.68,11.392 24.192,10.768 25.824,10.768 C27.456,10.768 28.968,11.392 30.096,12.52 C31.656,14.08 31.68,15.592 31.68,19.456 Z M30.384,19.456 C30.384,15.808 30.288,14.464 29.064,13.24 C28.2,12.376 27.048,11.92 25.824,11.92 C24.6,11.92 23.448,12.376 22.584,13.24 C21.36,14.464 21.264,15.808 21.264,19.456 C21.264,23.104 21.36,24.448 22.584,25.672 C23.448,26.536 24.6,26.992 25.824,26.992 C27.048,26.992 28.2,26.536 29.064,25.672 C30.288,24.448 30.384,23.104 30.384,19.456 Z M42.48,18.28 C41.784,17.584 41.256,17.368 40.296,17.368 C38.304,17.368 37.2,19.024 37.2,20.872 L37.2,28 L35.976,28 L35.976,16.432 L37.2,16.432 L37.2,17.968 C37.872,16.888 39.216,16.288 40.584,16.288 C41.712,16.288 42.528,16.552 43.368,17.392 L42.48,18.28 Z M52.872,28 L52.872,26.512 C51.84,27.856 50.76,28.144 49.44,28.144 C48.216,28.144 47.208,27.736 46.608,27.136 C45.432,25.96 45.12,24.04 45.12,22.216 C45.12,20.392 45.432,18.472 46.608,17.296 C47.208,16.696 48.216,16.288 49.44,16.288 C50.76,16.288 51.84,16.576 52.872,17.92 L52.872,10.912 L54.096,10.912 L54.096,28 L52.872,28 Z M52.872,22.216 C52.872,19.816 52.44,17.368 49.608,17.368 C46.776,17.368 46.344,19.816 46.344,22.216 C46.344,24.616 46.776,27.064 49.608,27.064 C52.44,27.064 52.872,24.616 52.872,22.216 Z M59.304,22.48 C59.304,25.432 60.6,27.04 63.072,27.04 C64.44,27.04 65.28,26.632 66.264,25.648 L67.176,26.368 C66,27.544 64.92,28.144 63,28.144 C59.808,28.144 58.08,26.08 58.08,22.216 C58.08,18.472 59.808,16.288 62.712,16.288 C65.616,16.288 67.344,18.376 67.344,21.928 L67.344,22.48 L59.304,22.48 Z M66.12,21.496 C66.048,20.392 66.024,20.008 65.712,19.312 C65.208,18.088 64.056,17.368 62.712,17.368 C61.368,17.368 60.216,18.088 59.712,19.312 C59.448,20.056 59.376,20.368 59.304,21.496 L66.12,21.496 Z M77.808,18.28 C77.112,17.584 76.584,17.368 75.624,17.368 C73.632,17.368 72.528,19.024 72.528,20.872 L72.528,28 L71.304,28 L71.304,16.432 L72.528,16.432 L72.528,17.968 C73.2,16.888 74.544,16.288 75.912,16.288 C77.04,16.288 77.856,16.552 78.696,17.392 L77.808,18.28 Z M88.848,12.064 L88.848,19.096 L96.576,19.096 L96.576,20.248 L88.848,20.248 L88.848,28 L87.552,28 L87.552,10.912 L97.92,10.912 L97.92,12.064 L88.848,12.064 Z M109.704,22.216 C109.704,23.872 109.488,25.648 108.264,26.872 C107.424,27.712 106.368,28.144 105.048,28.144 C103.752,28.144 102.672,27.712 101.832,26.872 C100.608,25.648 100.392,23.872 100.392,22.216 C100.392,20.56 100.608,18.784 101.832,17.56 C102.672,16.72 103.752,16.288 105.048,16.288 C106.368,16.288 107.424,16.72 108.264,17.56 C109.488,18.784 109.704,20.56 109.704,22.216 Z M108.48,22.216 C108.48,20.872 108.408,19.312 107.448,18.352 C106.8,17.704 105.984,17.368 105.048,17.368 C104.112,17.368 103.296,17.704 102.648,18.352 C101.688,19.312 101.616,20.872 101.616,22.216 C101.616,23.56 101.688,25.12 102.648,26.08 C103.296,26.728 104.112,27.064 105.048,27.064 C105.984,27.064 106.8,26.728 107.448,26.08 C108.408,25.12 108.48,23.56 108.48,22.216 Z M120.192,18.28 C119.496,17.584 118.968,17.368 118.008,17.368 C116.016,17.368 114.912,19.024 114.912,20.872 L114.912,28 L113.688,28 L113.688,16.432 L114.912,16.432 L114.912,17.968 C115.584,16.888 116.928,16.288 118.296,16.288 C119.424,16.288 120.24,16.552 121.08,17.392 L120.192,18.28 Z M138.864,28 L138.864,20.824 C138.864,18.592 137.76,17.368 135.672,17.368 C133.656,17.368 132.408,18.616 132.408,20.608 L132.408,28 L131.184,28 L131.184,20.824 C131.184,18.592 130.08,17.368 127.992,17.368 C125.904,17.368 124.728,18.616 124.728,20.824 L124.728,28 L123.504,28 L123.504,16.432 L124.728,16.432 L124.728,17.8 C125.592,16.792 126.744,16.288 128.16,16.288 C129.888,16.288 131.184,17.032 131.88,18.4 C132.744,17.032 134.088,16.288 135.816,16.288 C137.088,16.288 138.12,16.696 138.864,17.392 C139.656,18.16 140.064,19.24 140.064,20.608 L140.064,28 L138.864,28 Z" id="OrderForm" fill-rule="nonzero"></path>
        </g>
    </g>
</svg>