<?xml version="1.0" encoding="UTF-8"?>
<svg width="200px" height="201px" viewBox="0 0 200 201" version="1.1" xmlns="http://www.w3.org/2000/svg" xmlns:xlink="http://www.w3.org/1999/xlink">
    <!-- Generator: Sketch 56.2 (81672) - https://sketch.com -->
    <title>编组 2</title>
    <desc>Created with Sketch.</desc>
    <g id="Page-2" stroke="none" stroke-width="1" fill="none" fill-rule="evenodd">
        <g id="P2-1-镶嵌-素金选择页hover" transform="translate(-596.000000, -339.000000)" fill="#FFFFFF">
            <g id="编组复制-3" transform="translate(476.000000, 180.000000)">
                <g id="编组-2" transform="translate(120.000000, 160.000000)">
                    <rect id="矩形" opacity="0" x="0" y="0" width="200" height="200"></rect>
                    <g id="编组-3" transform="translate(27.000000, 3.000000)">
                        <path d="M81.2667906,45 L84.0445684,20 L62.117265,20 L64.8950428,45 L81.2667906,45 Z M83.2790985,45 L97.881966,45 L110.381966,20 L86.0568762,20 L83.2790985,45 Z M95.2933163,2 L50.8685171,2 L61.5351838,18 L84.6266497,18 L95.2933163,2 Z M97.1790651,2.7769281 L87.0303505,18 L109.864958,18 L97.1790651,2.7769281 Z M62.882735,45 L60.1049572,20 L35.618034,20 L48.118034,45 L62.882735,45 Z M48.9108423,2.66903914 L36.1350416,18 L59.1314829,18 L48.9108423,2.66903914 Z M45.881966,45 L32.8130882,18.8622443 L48.5316251,0 L97.4683749,0 L113.186912,18.8622443 L100.118034,45 L100.23759,45 L124.618795,69.381205 C153.127068,97.8894783 153.127068,144.110522 124.618795,172.618795 C96.1105217,201.127068 49.8894783,201.127068 21.381205,172.618795 C-7.12706832,144.110522 -7.12706832,97.8894783 21.381205,69.381205 L45.7624099,45 L45.881966,45 Z M99.118034,47 L46.881966,47 L46.5908371,47 L22.7954185,70.7954185 C-4.93180618,98.5226433 -4.93180618,143.477357 22.7954185,171.204581 C50.5226433,198.931806 95.4773567,198.931806 123.204581,171.204581 C150.931806,143.477357 150.931806,98.5226433 123.204581,70.7954185 L99.4091629,47 L99.118034,47 Z M31.2806999,79.2806999 C54.3216331,56.2397667 91.6783669,56.2397667 114.7193,79.2806999 C137.760233,102.321633 137.760233,139.678367 114.7193,162.7193 C91.6783669,185.760233 54.3216331,185.760233 31.2806999,162.7193 C8.2397667,139.678367 8.2397667,102.321633 31.2806999,79.2806999 Z M32.6949135,80.6949135 C10.4350288,102.954798 10.4350288,139.045202 32.6949135,161.305087 C54.9547981,183.564971 91.0452019,183.564971 113.305087,161.305087 C135.564971,139.045202 135.564971,102.954798 113.305087,80.6949135 C91.0452019,58.4350288 54.9547981,58.4350288 32.6949135,80.6949135 Z" id="形状结合"></path>
                    </g>
                </g>
            </g>
        </g>
    </g>
</svg>