<?xml version="1.0" encoding="UTF-8"?>
<svg width="160px" height="36px" viewBox="0 0 160 36" version="1.1" xmlns="http://www.w3.org/2000/svg" xmlns:xlink="http://www.w3.org/1999/xlink">
    <!-- Generator: Sketch 56.2 (81672) - https://sketch.com -->
    <title>编组 5备份</title>
    <desc>Created with Sketch.</desc>
    <g id="Page-2" stroke="none" stroke-width="1" fill="none" fill-rule="evenodd">
        <g id="编组-5备份">
            <rect id="矩形" fill="#FFFFFF" opacity="0" x="0" y="0" width="160" height="36"></rect>
            <path d="M24.136,23.344 C24.136,26.392 22.12,28 19.12,28 L12.64,28 L12.64,10.912 L18.928,10.912 C21.76,10.912 23.872,12.568 23.872,15.376 C23.872,17.176 22.864,18.664 21.208,19.216 C23.056,19.864 24.136,21.352 24.136,23.344 Z M22.84,23.344 C22.84,21.136 21.304,19.84 18.976,19.84 L13.936,19.84 L13.936,26.848 L18.976,26.848 C21.304,26.848 22.84,25.552 22.84,23.344 Z M22.576,15.376 C22.576,13.024 20.848,12.064 18.784,12.064 L13.936,12.064 L13.936,18.688 L18.784,18.688 C20.848,18.688 22.576,17.728 22.576,15.376 Z M30.712,31.144 C30.496,31.768 30.232,32.224 29.92,32.488 C29.344,33.04 28.504,33.232 27.736,33.232 L27.16,33.232 L27.16,32.152 L27.616,32.152 C28.936,32.152 29.32,31.72 29.728,30.568 L30.664,28 L26.44,16.432 L27.784,16.432 L31.264,26.56 L34.744,16.432 L36.088,16.432 L30.712,31.144 Z M56.248,22.048 C56.248,23.848 55.888,25.096 54.856,26.176 C53.728,27.424 52.096,28.144 50.368,28.144 C48.736,28.144 47.224,27.52 46.096,26.392 C44.536,24.832 44.512,23.296 44.512,19.456 C44.512,15.592 44.536,14.08 46.096,12.52 C47.224,11.392 48.736,10.768 50.368,10.768 C53.344,10.768 55.696,12.76 56.2,15.76 L54.904,15.76 C54.4,13.384 52.672,11.92 50.368,11.92 C49.144,11.92 47.992,12.376 47.128,13.24 C45.904,14.464 45.808,15.808 45.808,19.456 C45.808,23.104 45.904,24.448 47.128,25.672 C47.992,26.536 49.144,26.992 50.368,26.992 C51.712,26.992 53.032,26.416 53.92,25.336 C54.664,24.4 54.952,23.416 54.952,21.952 L54.952,20.416 L50.368,20.416 L50.368,19.264 L56.248,19.264 L56.248,22.048 Z M61.048,22.48 C61.048,25.432 62.344,27.04 64.816,27.04 C66.184,27.04 67.024,26.632 68.008,25.648 L68.92,26.368 C67.744,27.544 66.664,28.144 64.744,28.144 C61.552,28.144 59.824,26.08 59.824,22.216 C59.824,18.472 61.552,16.288 64.456,16.288 C67.36,16.288 69.088,18.376 69.088,21.928 L69.088,22.48 L61.048,22.48 Z M67.864,21.496 C67.792,20.392 67.768,20.008 67.456,19.312 C66.952,18.088 65.8,17.368 64.456,17.368 C63.112,17.368 61.96,18.088 61.456,19.312 C61.192,20.056 61.12,20.368 61.048,21.496 L67.864,21.496 Z M88.408,28 L88.408,20.824 C88.408,18.592 87.304,17.368 85.216,17.368 C83.2,17.368 81.952,18.616 81.952,20.608 L81.952,28 L80.728,28 L80.728,20.824 C80.728,18.592 79.624,17.368 77.536,17.368 C75.448,17.368 74.272,18.616 74.272,20.824 L74.272,28 L73.048,28 L73.048,16.432 L74.272,16.432 L74.272,17.8 C75.136,16.792 76.288,16.288 77.704,16.288 C79.432,16.288 80.728,17.032 81.424,18.4 C82.288,17.032 83.632,16.288 85.36,16.288 C86.632,16.288 87.664,16.696 88.408,17.392 C89.2,18.16 89.608,19.24 89.608,20.608 L89.608,28 L88.408,28 Z M102.304,24.712 C102.304,26.824 100.528,28.144 97.672,28.144 C95.656,28.144 94.168,27.616 92.992,26.488 L93.832,25.648 C94.72,26.584 95.992,27.064 97.624,27.064 C99.904,27.064 101.104,26.272 101.104,24.712 C101.104,23.488 100.432,22.936 98.896,22.768 L96.976,22.6 C94.648,22.408 93.496,21.4 93.496,19.576 C93.496,17.56 95.128,16.288 97.648,16.288 C99.256,16.288 100.672,16.744 101.704,17.512 L100.888,18.328 C100,17.68 98.92,17.344 97.648,17.344 C95.728,17.344 94.696,18.136 94.696,19.576 C94.696,20.8 95.416,21.352 97.048,21.52 L98.92,21.688 C100.84,21.88 102.304,22.456 102.304,24.712 Z M109.048,28 C107.224,28 106.264,26.728 106.264,24.976 L106.264,17.344 L104.68,17.344 L104.68,16.432 L106.264,16.432 L106.264,12.736 L107.488,12.736 L107.488,16.432 L110.104,16.432 L110.104,17.344 L107.488,17.344 L107.488,25 C107.488,26.224 108.04,26.92 109.264,26.92 L110.104,26.92 L110.104,28 L109.048,28 Z M122.416,22.216 C122.416,23.872 122.2,25.648 120.976,26.872 C120.136,27.712 119.08,28.144 117.76,28.144 C116.464,28.144 115.384,27.712 114.544,26.872 C113.32,25.648 113.104,23.872 113.104,22.216 C113.104,20.56 113.32,18.784 114.544,17.56 C115.384,16.72 116.464,16.288 117.76,16.288 C119.08,16.288 120.136,16.72 120.976,17.56 C122.2,18.784 122.416,20.56 122.416,22.216 Z M121.192,22.216 C121.192,20.872 121.12,19.312 120.16,18.352 C119.512,17.704 118.696,17.368 117.76,17.368 C116.824,17.368 116.008,17.704 115.36,18.352 C114.4,19.312 114.328,20.872 114.328,22.216 C114.328,23.56 114.4,25.12 115.36,26.08 C116.008,26.728 116.824,27.064 117.76,27.064 C118.696,27.064 119.512,26.728 120.16,26.08 C121.12,25.12 121.192,23.56 121.192,22.216 Z M134.08,28 L134.08,20.824 C134.08,18.592 132.976,17.368 130.888,17.368 C128.8,17.368 127.624,18.616 127.624,20.824 L127.624,28 L126.4,28 L126.4,16.432 L127.624,16.432 L127.624,17.8 C128.488,16.792 129.616,16.288 131.032,16.288 C132.304,16.288 133.336,16.648 134.104,17.392 C134.896,18.16 135.304,19.24 135.304,20.608 L135.304,28 L134.08,28 Z M140.368,22.48 C140.368,25.432 141.664,27.04 144.136,27.04 C145.504,27.04 146.344,26.632 147.328,25.648 L148.24,26.368 C147.064,27.544 145.984,28.144 144.064,28.144 C140.872,28.144 139.144,26.08 139.144,22.216 C139.144,18.472 140.872,16.288 143.776,16.288 C146.68,16.288 148.408,18.376 148.408,21.928 L148.408,22.48 L140.368,22.48 Z M147.184,21.496 C147.112,20.392 147.088,20.008 146.776,19.312 C146.272,18.088 145.12,17.368 143.776,17.368 C142.432,17.368 141.28,18.088 140.776,19.312 C140.512,20.056 140.44,20.368 140.368,21.496 L147.184,21.496 Z" id="ByGemstone" fill="#55405E" fill-rule="nonzero"></path>
        </g>
    </g>
</svg>