<?xml version="1.0" encoding="UTF-8"?>
<svg width="32px" height="32px" viewBox="0 0 32 32" version="1.1" xmlns="http://www.w3.org/2000/svg" xmlns:xlink="http://www.w3.org/1999/xlink">
    <!-- Generator: Sketch 56.2 (81672) - https://sketch.com -->
    <title>编组 2</title>
    <desc>Created with Sketch.</desc>
    <g id="Page-2" stroke="none" stroke-width="1" fill="none" fill-rule="evenodd">
        <g id="P4-1-展示页按钮状态页备份" transform="translate(-1038.000000, -864.000000)" fill="#FFFFFF">
            <g id="编组-20复制-3" transform="translate(718.000000, 856.000000)">
                <g id="编组">
                    <g id="编组-5" transform="translate(288.000000, 0.000000)">
                        <g id="编组-2" transform="translate(32.000000, 8.000000)">
                            <rect id="矩形" opacity="0" x="0" y="0" width="32" height="32"></rect>
                            <path d="M24.4703995,21.3356914 L31.0034416,28.1324963 L29.5615267,29.5184549 L23.0298713,22.7230997 C21.2373285,24.1484391 18.9681106,25 16.5,25 C10.7010101,25 6,20.2989899 6,14.5 C6,8.70101013 10.7010101,4 16.5,4 C22.2989899,4 27,8.70101013 27,14.5 C27,17.1106842 26.0472145,19.4988333 24.4703995,21.3356914 Z M16.5,23 C21.1944204,23 25,19.1944204 25,14.5 C25,9.80557963 21.1944204,6 16.5,6 C11.8055796,6 8,9.80557963 8,14.5 C8,19.1944204 11.8055796,23 16.5,23 Z" id="合并形状"></path>
                        </g>
                    </g>
                </g>
            </g>
        </g>
    </g>
</svg>