<?xml version="1.0" encoding="UTF-8"?>
<svg width="128px" height="16px" viewBox="0 0 128 16" version="1.1" xmlns="http://www.w3.org/2000/svg" xmlns:xlink="http://www.w3.org/1999/xlink">
    <!-- Generator: Sketch 56.2 (81672) - https://sketch.com -->
    <title>编组 3备份</title>
    <desc>Created with Sketch.</desc>
    <g id="Page-2" stroke="none" stroke-width="1" fill="none" fill-rule="evenodd">
        <g id="编组-3备份" fill="#FFFFFF">
            <rect id="矩形" opacity="0" x="0" y="0" width="128" height="16"></rect>
            <path d="M19.452,11.256 C19.452,13.006 18.08,14.084 16.008,14.084 C14.51,14.084 13.53,13.706 12.592,12.768 L13.32,12.04 C14.146,12.866 14.916,13.132 16.036,13.132 C17.492,13.132 18.388,12.446 18.388,11.284 C18.388,10.766 18.234,10.318 17.912,10.038 C17.59,9.758 17.338,9.674 16.61,9.562 L15.448,9.38 C14.664,9.254 14.048,9.002 13.614,8.624 C13.11,8.176 12.858,7.56 12.858,6.762 C12.858,5.068 14.076,3.948 16.05,3.948 C17.324,3.948 18.164,4.27 19.018,5.04 L18.332,5.726 C17.716,5.166 17.058,4.872 16.008,4.872 C14.678,4.872 13.908,5.614 13.908,6.72 C13.908,7.21 14.048,7.602 14.356,7.868 C14.664,8.134 15.182,8.33 15.7,8.414 L16.792,8.582 C17.73,8.722 18.192,8.918 18.612,9.282 C19.158,9.744 19.452,10.43 19.452,11.256 Z M26.914,14 L25.906,14 L25.906,9.744 C25.906,8.54 25.262,7.924 24.226,7.924 C23.19,7.924 22.504,8.554 22.504,9.744 L22.504,14 L21.496,14 L21.496,4.032 L22.504,4.032 L22.504,7.868 C23.008,7.294 23.666,7.028 24.436,7.028 C25.99,7.028 26.914,8.022 26.914,9.576 L26.914,14 Z M34.278,14 L33.27,14 L33.27,13.342 C32.71,13.902 32.206,14.084 31.282,14.084 C30.33,14.084 29.77,13.902 29.336,13.454 C29,13.118 28.818,12.6 28.818,12.054 C28.818,10.85 29.658,10.066 31.198,10.066 L33.27,10.066 L33.27,9.408 C33.27,8.4 32.766,7.896 31.506,7.896 C30.624,7.896 30.176,8.106 29.77,8.68 L29.084,8.05 C29.7,7.252 30.4,7.028 31.52,7.028 C33.368,7.028 34.278,7.826 34.278,9.324 L34.278,14 Z M33.27,11.564 L33.27,10.822 L31.338,10.822 C30.302,10.822 29.798,11.242 29.798,12.04 C29.798,12.838 30.288,13.216 31.38,13.216 C31.968,13.216 32.486,13.174 32.92,12.754 C33.158,12.53 33.27,12.138 33.27,11.564 Z M41.32,7.672 L40.578,8.428 C40.2,8.05 39.92,7.924 39.388,7.924 C38.38,7.924 37.736,8.722 37.736,9.772 L37.736,14 L36.728,14 L36.728,7.112 L37.736,7.112 L37.736,7.952 C38.114,7.378 38.87,7.028 39.668,7.028 C40.326,7.028 40.83,7.182 41.32,7.672 Z M47.9,10.822 L43.252,10.822 C43.252,12.334 43.966,13.202 45.282,13.202 C46.08,13.202 46.542,12.964 47.088,12.418 L47.774,13.02 C47.074,13.72 46.43,14.084 45.254,14.084 C43.434,14.084 42.244,12.992 42.244,10.556 C42.244,8.33 43.322,7.028 45.072,7.028 C46.85,7.028 47.9,8.316 47.9,10.36 L47.9,10.822 Z M46.892,10.066 C46.864,9.506 46.836,9.296 46.682,8.918 C46.416,8.288 45.8,7.882 45.072,7.882 C44.344,7.882 43.728,8.288 43.462,8.918 C43.308,9.296 43.28,9.506 43.252,10.066 L46.892,10.066 Z M56.174,14 L55.46,14 C54.284,14 53.696,13.174 53.696,12.152 L53.696,7.924 L52.828,7.924 L52.828,7.154 L53.696,7.154 L53.696,4.998 L54.704,4.998 L54.704,7.154 L56.174,7.154 L56.174,7.924 L54.704,7.924 L54.704,12.124 C54.704,12.754 54.998,13.132 55.642,13.132 L56.174,13.132 L56.174,14 Z M63.44,10.556 C63.44,11.62 63.3,12.586 62.6,13.3 C62.124,13.776 61.466,14.084 60.626,14.084 C59.786,14.084 59.128,13.776 58.652,13.3 C57.952,12.586 57.812,11.62 57.812,10.556 C57.812,9.492 57.952,8.526 58.652,7.812 C59.128,7.336 59.786,7.028 60.626,7.028 C61.466,7.028 62.124,7.336 62.6,7.812 C63.3,8.526 63.44,9.492 63.44,10.556 Z M62.432,10.556 C62.432,9.786 62.39,8.932 61.886,8.428 C61.564,8.106 61.116,7.924 60.626,7.924 C60.136,7.924 59.702,8.106 59.38,8.428 C58.876,8.932 58.82,9.786 58.82,10.556 C58.82,11.326 58.876,12.18 59.38,12.684 C59.702,13.006 60.136,13.188 60.626,13.188 C61.116,13.188 61.564,13.006 61.886,12.684 C62.39,12.18 62.432,11.326 62.432,10.556 Z M79.554,4.032 L77.006,14 L76.012,14 L73.8,6.02 L71.588,14 L70.594,14 L68.046,4.032 L69.18,4.032 L71.126,12.068 L73.324,4.032 L74.276,4.032 L76.474,12.068 L78.42,4.032 L79.554,4.032 Z M86.316,10.822 L81.668,10.822 C81.668,12.334 82.382,13.202 83.698,13.202 C84.496,13.202 84.958,12.964 85.504,12.418 L86.19,13.02 C85.49,13.72 84.846,14.084 83.67,14.084 C81.85,14.084 80.66,12.992 80.66,10.556 C80.66,8.33 81.738,7.028 83.488,7.028 C85.266,7.028 86.316,8.316 86.316,10.36 L86.316,10.822 Z M85.308,10.066 C85.28,9.506 85.252,9.296 85.098,8.918 C84.832,8.288 84.216,7.882 83.488,7.882 C82.76,7.882 82.144,8.288 81.878,8.918 C81.724,9.296 81.696,9.506 81.668,10.066 L85.308,10.066 Z M95.206,11.116 C94.884,12.992 93.526,14.084 91.748,14.084 C90.768,14.084 89.872,13.72 89.2,13.048 C88.262,12.11 88.262,11.13 88.262,9.016 C88.262,6.902 88.262,5.922 89.2,4.984 C89.872,4.312 90.768,3.948 91.748,3.948 C93.54,3.948 94.87,5.04 95.206,6.916 L94.114,6.916 C93.848,5.698 92.994,4.9 91.748,4.9 C91.09,4.9 90.46,5.152 90.026,5.6 C89.396,6.244 89.326,6.93 89.326,9.016 C89.326,11.102 89.396,11.788 90.026,12.432 C90.46,12.88 91.09,13.132 91.748,13.132 C92.994,13.132 93.876,12.334 94.142,11.116 L95.206,11.116 Z M102.794,14 L101.786,14 L101.786,9.744 C101.786,8.54 101.142,7.924 100.106,7.924 C99.07,7.924 98.384,8.554 98.384,9.744 L98.384,14 L97.376,14 L97.376,4.032 L98.384,4.032 L98.384,7.868 C98.888,7.294 99.546,7.028 100.316,7.028 C101.87,7.028 102.794,8.022 102.794,9.576 L102.794,14 Z M110.158,14 L109.15,14 L109.15,13.342 C108.59,13.902 108.086,14.084 107.162,14.084 C106.21,14.084 105.65,13.902 105.216,13.454 C104.88,13.118 104.698,12.6 104.698,12.054 C104.698,10.85 105.538,10.066 107.078,10.066 L109.15,10.066 L109.15,9.408 C109.15,8.4 108.646,7.896 107.386,7.896 C106.504,7.896 106.056,8.106 105.65,8.68 L104.964,8.05 C105.58,7.252 106.28,7.028 107.4,7.028 C109.248,7.028 110.158,7.826 110.158,9.324 L110.158,14 Z M109.15,11.564 L109.15,10.822 L107.218,10.822 C106.182,10.822 105.678,11.242 105.678,12.04 C105.678,12.838 106.168,13.216 107.26,13.216 C107.848,13.216 108.366,13.174 108.8,12.754 C109.038,12.53 109.15,12.138 109.15,11.564 Z M115.254,14 L114.54,14 C113.364,14 112.776,13.174 112.776,12.152 L112.776,7.924 L111.908,7.924 L111.908,7.154 L112.776,7.154 L112.776,4.998 L113.784,4.998 L113.784,7.154 L115.254,7.154 L115.254,7.924 L113.784,7.924 L113.784,12.124 C113.784,12.754 114.078,13.132 114.722,13.132 L115.254,13.132 L115.254,14 Z" id="SharetoWeChat" fill-rule="nonzero"></path>
        </g>
    </g>
</svg>