<?xml version="1.0" encoding="UTF-8"?>
<svg width="48px" height="48px" viewBox="0 0 48 48" version="1.1" xmlns="http://www.w3.org/2000/svg" xmlns:xlink="http://www.w3.org/1999/xlink">
    <!-- Generator: Sketch 56.2 (81672) - https://sketch.com -->
    <title>编组 24</title>
    <desc>Created with Sketch.</desc>
    <g id="Page-2" stroke="none" stroke-width="1" fill="none" fill-rule="evenodd">
        <g id="P4-1-展示页按钮状态页备份" transform="translate(-1252.000000, -636.000000)" fill="#FFFFFF">
            <g id="编组-20复制" transform="translate(1136.000000, 544.000000)">
                <g id="编组-24" transform="translate(116.000000, 92.000000)">
                    <rect id="矩形" opacity="0" x="0" y="0" width="48" height="48"></rect>
                    <path d="M38.2843373,28.5963142 C39.370294,28.5963142 40.2506024,27.7138004 40.2506024,26.6251233 C40.2506024,25.5365042 39.370294,24.6539325 38.2843373,24.6539325 C37.1983807,24.6539325 36.3180723,25.5365042 36.3180723,26.6251233 C36.3180723,27.7138004 37.1983807,28.5963142 38.2843373,28.5963142 L38.2843373,28.5963142 Z M28.6843373,28.5963142 C29.770294,28.5963142 30.6506024,27.7138004 30.6506024,26.6251233 C30.6506024,25.5365042 29.770294,24.6539325 28.6843373,24.6539325 C27.5983807,24.6539325 26.7180723,25.5365042 26.7180723,26.6251233 C26.7180723,27.7138004 27.5983807,28.5963142 28.6843373,28.5963142 L28.6843373,28.5963142 Z M23.1903614,17.1750024 C24.4679133,17.1750024 25.5036145,16.1367646 25.5036145,14.8559543 C25.5036145,13.5752021 24.4679133,12.5369063 23.1903614,12.5369063 C21.9127518,12.5369063 20.8771084,13.5752021 20.8771084,14.8559543 C20.8771084,16.1367646 21.9127518,17.1750024 23.1903614,17.1750024 L23.1903614,17.1750024 Z M11.5662651,17.1750024 C12.8438169,17.1750024 13.8795181,16.1367646 13.8795181,14.8559543 C13.8795181,13.5752021 12.8438169,12.5369063 11.5662651,12.5369063 C10.2887133,12.5369063 9.25301205,13.5752021 9.25301205,14.8559543 C9.25301205,16.1367646 10.2887133,17.1750024 11.5662651,17.1750024 L11.5662651,17.1750024 Z M39.2592,41.998093 C39.0135325,41.8554716 38.720212,41.8229469 38.4485205,41.9052731 C36.9081831,42.3720395 35.2462265,42.6265551 33.513253,42.6265551 C25.5124627,42.6265551 19.026506,37.2016059 19.026506,30.5095289 C19.026506,23.8175098 25.5124627,18.3925026 33.513253,18.3925026 C41.5140434,18.3925026 48,23.8175098 48,30.5095289 C48,34.2059176 46.0211855,37.515663 42.901359,39.7381807 C42.6510651,39.9165155 42.5374265,40.2317901 42.6152675,40.5295558 L43.2972145,43.1375573 C43.5014169,43.9183808 43.0983325,44.2262924 42.4015229,43.8219084 L39.2592,41.998093 L39.2592,41.998093 Z M11.5404145,33.2006102 C13.3734361,33.7479635 15.3486072,34.0460772 17.4072289,34.0460772 C17.7213108,34.0460772 18.0333687,34.039178 18.3433446,34.0254376 C17.9595181,32.8886983 17.7542169,31.6900403 17.7542169,30.4515527 C17.7542169,23.1511313 24.8874795,17.2329786 33.686747,17.2329786 C33.9944096,17.2329786 34.2999904,17.2402256 34.6033157,17.2544878 C33.2978892,10.3111999 26.0959807,5 17.4072289,5 C7.79346506,5 0,11.502205 0,19.5230386 C0,23.9322447 2.35512289,27.8825112 6.07304096,30.5460539 C6.42309398,30.7968009 6.58340241,31.2373041 6.47201928,31.6539791 L5.65382169,34.7146008 C5.40688193,35.6383356 5.87884337,35.9996433 6.7026506,35.5173972 L10.430053,33.3356368 C10.7658217,33.1390975 11.1677494,33.0892959 11.5404145,33.2006102 Z" id="WeChat"></path>
                </g>
            </g>
        </g>
    </g>
</svg>