<?xml version="1.0" encoding="UTF-8"?>
<svg width="80px" height="80px" viewBox="0 0 80 80" version="1.1" xmlns="http://www.w3.org/2000/svg" xmlns:xlink="http://www.w3.org/1999/xlink">
    <!-- Generator: Sketch 56.2 (81672) - https://sketch.com -->
    <title>编组 36</title>
    <desc>Created with Sketch.</desc>
    <g id="Page-2" stroke="none" stroke-width="1" fill="none" fill-rule="evenodd">
        <g id="P4-展示页" transform="translate(-288.000000, -759.000000)">
            <g id="分组-12" transform="translate(288.000000, 539.000000)">
                <g id="编组-36" transform="translate(0.000000, 220.000000)">
                    <rect id="矩形-copy-23" x="0" y="0" width="80" height="80"></rect>
                    <path d="M40,19 C39.86,19 26.16,19.2420749 26,40.0201729 C26.38,60.7579251 39.86,61 40,61 C40.14,61 53.62,60.7579251 54,40.0201729 C53.84,19.2420749 40.14,19 40,19 Z M52.18,37.1556196 L45.56,33.2824207 L45.56,33.1412104 L46.84,23.6397695 C49.24,25.8789625 51.62,29.9135447 52.18,37.1556196 Z M27.7,40 L27.7,38.1440922 L33.82,34.573487 C33.2239021,36.3179509 32.9394916,38.155281 32.98,40 C32.9673162,41.9670089 33.3270909,43.918372 34.04,45.7492795 L27.78,42.0172911 C27.74,41.4322767 27.7,40.7262248 27.7,40 Z M40,49.6628242 C40,49.6628242 34,49.5417867 33.84,40 C33.7851543,37.913255 34.2095466,35.8419901 35.08,33.9481268 L35.28,33.5648415 C36.1651084,31.9721253 37.7158205,30.8676055 39.5,30.5590778 L40.1,30.5590778 C41.8729416,30.8539315 43.4215399,31.9347375 44.32,33.5043228 L44.32,33.6253602 L44.48,33.9279539 L44.48,34.0288184 L44.64,34.0288184 C45.501508,35.9250167 45.9189415,37.9957173 45.86,40.0806916 C46,49.5216138 40.24,49.6628242 40,49.6628242 Z M41.04,29.6311239 L45.84,24.2449568 L44.78,32.0720461 C43.8300338,30.8599909 42.5072092,30.0012378 41.02,29.6311239 L41.04,29.6311239 Z M35.24,32.1527378 L34.18,24.2449568 L38.98,29.6311239 C37.4903321,30.0294935 36.1745037,30.9166622 35.24,32.1527378 L35.24,32.1527378 Z M35.24,47.8270893 C36.2054516,49.1121273 37.5844011,50.0179768 39.14,50.389049 L34.16,55.9971182 L35.24,47.8270893 Z M44.76,47.8270893 L45.84,55.8962536 L40.84,50.389049 C42.3782685,50.0378898 43.7489607,49.1613293 44.72,47.907781 L44.76,47.8270893 Z M47.02,40 C47.046175,38.1744062 46.75511,36.3582979 46.16,34.6340058 L52.16,38.184438 L52.16,41.9971182 L45.92,45.6282421 C46.6303746,43.8374514 47.0034183,41.9287423 47.02,40 L47.02,40 Z M45.86,22.9135447 L40.02,29.4697406 L39.9,29.4697406 L34.1,22.9538905 C35.8015368,21.6312128 37.8560658,20.8514693 40,20.7146974 C42.1260525,20.846449 44.1655027,21.6117118 45.86,22.9135447 L45.86,22.9135447 Z M33.24,23.7002882 L34.52,33.2420749 L27.82,37.1152738 C28.36,30.0144092 30.7,25.9798271 33.24,23.7002882 L33.24,23.7002882 Z M27.86,43.1469741 L34.46,47 L33.24,56.2391931 C30.8,53.9798271 28.52,50.0864553 27.86,43.1469741 Z M34.24,57.1066282 L39.94,50.6916427 L45.68,57.1268012 C44.0301461,58.3900444 42.0472777,59.1339083 39.98,59.2651297 C37.9041752,59.1295838 35.9142752,58.3786744 34.26,57.1066282 L34.24,57.1066282 Z M46.7,56.2997118 L45.46,47 L52.12,43.1066282 C51.48,50.0864553 49.24,54.1210375 46.72,56.2997118 L46.7,56.2997118 Z" id="形状" fill="#FFFFFF" fill-rule="nonzero"></path>
                </g>
            </g>
        </g>
    </g>
</svg>