<?xml version="1.0" encoding="UTF-8"?>
<svg width="80px" height="80px" viewBox="0 0 80 80" version="1.1" xmlns="http://www.w3.org/2000/svg" xmlns:xlink="http://www.w3.org/1999/xlink">
    <!-- Generator: Sketch 56.2 (81672) - https://sketch.com -->
    <title>编组 38</title>
    <desc>Created with Sketch.</desc>
    <g id="Page-2" stroke="none" stroke-width="1" fill="none" fill-rule="evenodd">
        <g id="P4-展示页" transform="translate(-448.000000, -759.000000)" fill="#FFFFFF">
            <g id="分组-12" transform="translate(288.000000, 539.000000)">
                <g id="编组-38" transform="translate(160.000000, 220.000000)">
                    <rect id="矩形-copy-25" opacity="0" x="0" y="0" width="80" height="80"></rect>
                    <path d="M23,23 L23,57 L57,57 L57,23 L23,23 Z M29.42,51.14 L29.42,49.26 L32.24,45 L33.4,46.86 C33.4460676,46.9272025 33.50786,46.982129 33.58,47.02 L35.74,48.24 L31.28,51.14 L29.42,51.14 Z M29.82,52.14 L25.64,54.9 L28.42,50.72 L28.42,52.14 L29.82,52.14 Z M28.42,30.6 L25.18,25.72 L29.86,28.82 L28.42,28.82 L28.42,30.6 Z M29.42,29.82 L31.42,29.82 L35.64,32.62 L33.74,33.8 L33.74,33.9 C33.74,34 33.74,33.9 33.74,33.9 L32.44,36.24 L29.66,32.06 L29.42,29.82 Z M45.62,34.7 L47.06,37.04 L47.06,43.64 L45.52,46.4 L43.18,47.84 L37.18,47.84 L34.26,46.2 L32.82,43.86 L32.82,37.38 L34.4,34.56 L36.74,33.12 L42.94,33.12 L45.62,34.7 Z M43.16,32.14 L36.64,32.14 L33.16,29.82 L46.64,29.82 L43.16,32.14 Z M31.72,37.42 L31.72,43.94 L29.4,47.42 L29.4,33.92 L31.72,37.42 Z M36.62,48.84 L43.14,48.84 L46.62,51.16 L33.14,51.16 L36.62,48.84 Z M44.24,48.36 L46.24,47.18 C46.3053217,47.1401791 46.3601791,47.0853217 46.4,47.02 L47.7,44.72 L50.82,49.44 L50.82,51.18 L48.44,51.18 L44.24,48.36 Z M48.06,43.56 L48.06,37.04 L50.74,33.04 L50.74,47.64 L48.06,43.56 Z M47.58,35.96 L46.4,33.96 L46.3,33.96 C46.2,33.96 46.3,33.96 46.3,33.96 L44.2,32.78 L48.54,29.9 L50.82,29.9 L50.82,31.26 L47.58,35.96 Z M49.98,28.82 L54.14,26.06 L51.74,29.68 L51.74,28.82 L49.98,28.82 Z M48.16,28.82 L31.66,28.82 L25.9,25 L53.9,25 L48.16,28.82 Z M25,27.26 L28.42,32.4 L28.42,48.92 L25,54.08 L25,27.26 Z M31.62,52.14 L48.12,52.14 L52.54,55.08 L27.28,55.08 L31.62,52.14 Z M49.94,52.14 L51.74,52.14 L51.74,50.9 L54.5,55.08 L54.36,55.08 L49.94,52.14 Z M51.74,49.1 L51.74,31.48 L55.06,26.46 L55.06,54.12 L51.74,49.1 Z" id="形状" fill-rule="nonzero"></path>
                </g>
            </g>
        </g>
    </g>
</svg>