<?xml version="1.0" encoding="UTF-8"?>
<svg width="80px" height="80px" viewBox="0 0 80 80" version="1.1" xmlns="http://www.w3.org/2000/svg" xmlns:xlink="http://www.w3.org/1999/xlink">
    <!-- Generator: Sketch 56.2 (81672) - https://sketch.com -->
    <title>编组 31</title>
    <desc>Created with Sketch.</desc>
    <g id="Page-2" stroke="none" stroke-width="1" fill="none" fill-rule="evenodd">
        <g id="P4-展示页" transform="translate(-368.000000, -599.000000)">
            <g id="分组-12" transform="translate(288.000000, 539.000000)">
                <g id="编组-31" transform="translate(80.000000, 60.000000)">
                    <rect id="矩形-copy-18" x="0" y="0" width="80" height="80"></rect>
                    <path d="M40,23 C30.6111593,23 23,30.6111593 23,40 C23,49.3888407 30.6111593,57 40,57 C49.3888407,57 57,49.3888407 57,40 C57,35.4913197 55.2089337,31.1673032 52.0208153,27.9791847 C48.8326968,24.7910663 44.5086803,23 40,23 Z M55.0163361,40 C55.0090571,41.14953 54.8692778,42.2943887 54.5997666,43.411902 L51.4655776,40.277713 L54.6989498,37.0443407 C54.8942788,38.010806 54.9939431,38.9941603 54.9964994,39.9801634 L55.0163361,40 Z M25.7176196,44.5822637 L29.327888,40.991832 L31.966161,43.630105 L31.966161,47.3792299 L26.9474912,47.3792299 C26.442881,46.491461 26.0307626,45.5542238 25.7176196,44.5822637 L25.7176196,44.5822637 Z M24.9836639,39.9801634 C25.007022,38.9649485 25.1333004,37.9547213 25.3605601,36.9649942 L28.613769,40.277713 L25.3605601,43.4714119 C25.0982786,42.3264984 24.9717749,41.1546748 24.9836639,39.9801634 L24.9836639,39.9801634 Z M54.4212369,36.0128355 L50.7712952,39.6627771 L48.1131855,37.0046674 L48.1131855,33.1960327 L53.3500583,33.1960327 C53.7954002,34.0645745 54.1541887,34.9748341 54.4212369,35.9136523 L54.4212369,36.0128355 Z M32.9381564,37.4410735 L37.084014,33.2952159 L43.0350058,33.2952159 L47.1808635,37.3418903 L47.1808635,43.2928821 L43.0350058,47.4387398 L37.084014,47.4387398 L32.9381564,43.2928821 L32.9381564,37.4410735 Z M31.9463244,42.3208868 L29.9626604,40.3372229 L31.9463244,38.3535589 L31.9463244,42.3208868 Z M48.1131855,38.3535589 L50.0968495,40.3372229 L48.1131855,42.3208868 L48.1131855,38.3535589 Z M47.1808635,35.9334889 L44.4235706,33.176196 L47.1808635,33.176196 L47.1808635,35.9334889 Z M43.4317386,32.1843641 L40.7339557,29.546091 L44.5822637,25.697783 C45.4809135,25.9787411 46.3509853,26.3440385 47.1808635,26.7887981 L47.1808635,32.2042007 L43.4317386,32.1843641 Z M42.0233372,32.1843641 L38.0560093,32.1843641 L40.0396733,30.2007001 L42.0233372,32.1843641 Z M36.7269545,32.1843641 L32.9381564,32.1843641 L32.9381564,26.7491249 C33.7679834,26.304258 34.6380656,25.9389563 35.5367561,25.6581097 L39.2462077,29.546091 L36.7269545,32.1843641 Z M35.7351225,33.176196 L32.9778296,35.9334889 L32.9778296,33.1960327 L35.7351225,33.176196 Z M31.9859977,36.9253209 L29.327888,39.5834306 L25.5787631,35.8541424 C25.8431981,34.9364547 26.1952657,34.0463216 26.630105,33.1960327 L31.966161,33.1960327 L31.9859977,36.9253209 Z M32.9778296,44.621937 L35.7351225,47.3792299 L32.9381564,47.3792299 L32.9778296,44.621937 Z M36.6872812,48.4107351 L39.2462077,51.0093349 L35.9334889,54.361727 C34.8949886,54.0743416 33.8906835,53.6752799 32.9381564,53.1715286 L32.9381564,48.4107351 L36.6872812,48.4107351 Z M38.0956826,48.4107351 L42.0630105,48.4107351 L40.0793466,50.3943991 L38.0956826,48.4107351 Z M43.3920653,48.4107351 L47.1808635,48.4107351 L47.1808635,53.2310385 C46.2291669,53.7416263 45.2248348,54.1473499 44.1855309,54.4410735 L40.7934656,51.0490082 L43.3920653,48.4107351 Z M44.3838973,47.4189032 L47.1808635,44.621937 L47.1808635,47.3792299 L44.3838973,47.4189032 Z M48.1330222,43.6697783 L50.7911319,41.0116686 L54.302217,44.4434072 C54.0171587,45.4606979 53.6248368,46.4448275 53.1318553,47.3792299 L48.1330222,47.3792299 L48.1330222,43.6697783 Z M52.8144691,32.243874 L48.1330222,32.243874 L48.1330222,27.3838973 C50.0286261,28.6208574 51.6217985,30.2682655 52.7946324,32.2042007 L52.8144691,32.243874 Z M43.4912485,25.4002334 L40.0396733,28.8518086 L36.5682614,25.3803967 C38.8420771,24.8214455 41.2174328,24.8214455 43.4912485,25.3803967 L43.4912485,25.4002334 Z M31.966161,27.3838973 L31.966161,32.243874 L27.1855309,32.243874 C28.3747831,30.2610975 30.0035947,28.5779921 31.9463244,27.3243874 L31.966161,27.3838973 Z M27.5425904,48.4107351 L31.9463244,48.4107351 L31.9463244,52.6756126 C30.2025109,51.5697064 28.7037808,50.1182336 27.5425904,48.4107351 Z M37.0443407,54.7386231 L40.0198366,51.7631272 L42.9953326,54.7386231 C41.0315856,55.136159 39.0080876,55.136159 37.0443407,54.7386231 Z M48.1131855,52.6161027 L48.1131855,48.4107351 L52.4375729,48.4107351 C51.294984,50.0725534 49.8313993,51.4889257 48.1330222,52.5764294 L48.1131855,52.6161027 Z" id="形状" fill="#FFFFFF" fill-rule="nonzero"></path>
                </g>
            </g>
        </g>
    </g>
</svg>