<?xml version="1.0" encoding="UTF-8"?>
<svg width="80px" height="80px" viewBox="0 0 80 80" version="1.1" xmlns="http://www.w3.org/2000/svg" xmlns:xlink="http://www.w3.org/1999/xlink">
    <!-- Generator: Sketch 56.2 (81672) - https://sketch.com -->
    <title>编组 35</title>
    <desc>Created with Sketch.</desc>
    <g id="Page-2" stroke="none" stroke-width="1" fill="none" fill-rule="evenodd">
        <g id="P4-展示页" transform="translate(-448.000000, -679.000000)">
            <g id="分组-12" transform="translate(288.000000, 539.000000)">
                <g id="编组-35" transform="translate(160.000000, 140.000000)">
                    <rect id="矩形-copy-22" x="0" y="0" width="80" height="80"></rect>
                    <path d="M40.5,18.1638761 C40.1946681,17.9453746 39.7853319,17.9453746 39.48,18.1638761 C38.96,18.5261381 27,27.220426 27,40.5033658 C27,53.7863056 39.48,62.8428555 39.6,62.9032325 C39.8512544,63.0322558 40.1487456,63.0322558 40.4,62.9032325 C40.52,62.9032325 53,53.8466826 53,40.5033658 C53,27.160049 41.02,18.5261381 40.5,18.1638761 Z M32.5,52.5787656 L39.04,50.566199 L35.84,56.9862866 C34.605537,55.6141916 33.4882457,54.1397951 32.5,52.5787656 Z M34.5,38.6316788 L30.18,33.9826499 L35.9,35.0291846 C35.2381923,36.1343143 34.7713117,37.3462987 34.52,38.6115532 L34.5,38.6316788 Z M28.74,40.5033658 C28.7430553,38.5261496 29.0327733,36.5599602 29.6,34.6669226 L34.34,39.7788418 L34.34,41.0065075 L29.56,46.1586781 C29.0347577,44.3134675 28.7721445,42.4026403 28.78,40.4832401 L28.74,40.5033658 Z M35.8,45.7561647 L30.18,46.8026994 L34.46,42.1939218 C34.7126177,43.4461567 35.1795641,44.6446921 35.84,45.7360391 L35.8,45.7561647 Z M39.04,49.600167 L32.58,51.6127337 L36.58,46.7624481 C37.2868718,47.8019265 38.1125176,48.7543454 39.04,49.600167 L39.04,49.600167 Z M39.98,49.237905 C37.2327267,47.1324595 35.5084251,43.9477164 35.24,40.4832401 C35.528722,37.0208666 37.2665816,33.8452595 40.02,31.7487009 C42.7753811,33.8435502 44.5137627,37.0201113 44.8,40.4832401 C44.5194314,43.9584267 42.7718355,47.1458469 40,49.237905 L39.98,49.237905 Z M43.98,35.0291846 L49.64,33.9826499 L45.44,38.5511762 C45.1777166,37.2986995 44.7042052,36.1006759 44.04,35.0090589 L43.98,35.0291846 Z M45.42,42.2542988 L49.64,46.8026994 L44.1,45.7762904 C44.7608015,44.6851258 45.2277737,43.4865242 45.48,42.2341731 L45.42,42.2542988 Z M45.54,39.6983392 L50.26,34.6065456 C51.4086921,38.3979454 51.4086921,42.4477808 50.26,46.2391807 L45.5,41.1071358 L45.5,40.5234915 C45.5,40.3222348 45.64,39.9398472 45.6,39.6782135 L45.54,39.6983392 Z M44.46,34.0229012 L48.16,29.4745006 C48.8006353,30.5978173 49.3555645,31.7684725 49.82,32.9763666 L44.46,34.0229012 Z M43.3,34.0229012 C42.5330765,32.9701822 41.639618,32.0170303 40.64,31.1851823 L47.24,29.1726156 L43.3,34.0229012 Z M36.5,34.0229012 L32.5,29.0719873 L39.16,31.0845539 C38.1783774,31.9712432 37.311565,32.9787359 36.58,34.0832782 L36.5,34.0229012 Z M31.8,29.5952546 L35.36,34.0027756 L30.16,33.0367436 C30.6207362,31.850084 31.1689284,30.6997197 31.8,29.5952546 L31.8,29.5952546 Z M35.36,46.7423224 L31.72,51.2705973 C31.0905985,50.133409 30.5490029,48.9492144 30.1,47.72848 L35.36,46.7423224 Z M43.36,46.7423224 L47.24,51.6127337 L40.84,49.600167 C41.8278281,48.7921944 42.7143366,47.8663248 43.48,46.8429507 L43.36,46.7423224 Z M48.12,51.2102203 L44.42,46.6416941 L49.76,47.6278517 C49.3498894,48.8936514 48.8416615,50.1251 48.24,51.3108487 L48.12,51.2102203 Z M47.36,28.186458 L40.86,30.1990246 L44.02,23.839314 C45.2511892,25.1926646 46.3683742,26.6467257 47.36,28.186458 L47.36,28.186458 Z M40,20.0154374 C41.1952509,20.9846399 42.3244591,22.0335354 43.38,23.1550414 L39.96,30.0380193 L36.56,23.2154184 C37.6332485,22.071515 38.7825671,21.0023877 40,20.0154374 L40,20.0154374 Z M36,23.9198167 L39.04,30.2191503 L32.62,28.2065837 C33.6018101,26.6893676 34.7055022,25.2556492 35.92,23.9198167 L36,23.9198167 Z M40,60.9711685 C38.750657,59.9487771 37.5744143,58.8391207 36.48,57.6504336 L39.96,50.6668273 L43.46,57.7108106 C42.3827172,58.8765413 41.2266272,59.965925 40,60.9711685 L40,60.9711685 Z M44.1,57.0466636 L40.86,50.5259477 L47.48,52.5385143 C46.4835522,54.1357526 45.3527374,55.6440017 44.1,57.0466636 L44.1,57.0466636 Z" id="形状" fill="#FFFFFF" fill-rule="nonzero"></path>
                </g>
            </g>
        </g>
    </g>
</svg>