<?xml version="1.0" encoding="UTF-8"?>
<svg width="80px" height="80px" viewBox="0 0 80 80" version="1.1" xmlns="http://www.w3.org/2000/svg" xmlns:xlink="http://www.w3.org/1999/xlink">
    <!-- Generator: Sketch 56.2 (81672) - https://sketch.com -->
    <title>编组 33</title>
    <desc>Created with Sketch.</desc>
    <g id="Page-2" stroke="none" stroke-width="1" fill="none" fill-rule="evenodd">
        <g id="P4-展示页" transform="translate(-288.000000, -679.000000)">
            <g id="分组-12" transform="translate(288.000000, 539.000000)">
                <g id="编组-33" transform="translate(0.000000, 140.000000)">
                    <rect id="矩形-copy-20" x="0" y="0" width="80" height="80"></rect>
                    <path d="M49,20 L31,20 L25,26.1390374 L25,55.8774915 L29.64,61 L50.36,61 L55,55.8774915 L55,26.1589694 L49,20 Z M45.14,26.956247 L34.9,26.956247 L32.32,21.7540107 L47.66,21.7540107 L45.14,26.956247 Z M34.88,27.8332523 L45.12,27.8332523 L48.3,31.3612056 L48.3,50.3364123 L45.94,53.1667477 L34.06,53.1667477 L31.7,50.3364123 L31.7,31.3612056 L34.88,27.8332523 Z M34.06,54.043753 L45.88,54.043753 L49.08,59.2459893 L31.08,59.2459893 L34.06,54.043753 Z M46.66,53.6451142 L48.66,51.1336898 L53.12,55.1200778 L49.88,58.8872144 L46.66,53.6451142 Z M49.24,50.3164803 L49.24,31.3412737 L53.24,27.594069 L53.24,54.0038892 L49.24,50.3164803 Z M53.04,26.597472 L48.8,30.58386 L45.9,27.3947496 L48.52,22.0131259 L53.04,26.597472 Z M31.46,22.0330579 L34.12,27.3748177 L31.24,30.58386 L26.86,26.7569276 L31.46,22.0330579 Z M30.82,31.4010695 L30.82,50.5157997 L26.82,54.5021877 L26.82,27.8332523 L30.82,31.4010695 Z M27.02,55.4987846 L31.24,51.2532815 L33.24,53.6052504 L30.12,58.9669421 L27.02,55.4987846 Z" id="形状" fill="#FFFFFF" fill-rule="nonzero"></path>
                </g>
            </g>
        </g>
    </g>
</svg>