<?xml version="1.0" encoding="UTF-8"?>
<svg width="80px" height="80px" viewBox="0 0 80 80" version="1.1" xmlns="http://www.w3.org/2000/svg" xmlns:xlink="http://www.w3.org/1999/xlink">
    <!-- Generator: Sketch 56.2 (81672) - https://sketch.com -->
    <title>编组 30</title>
    <desc>Created with Sketch.</desc>
    <g id="Page-2" stroke="none" stroke-width="1" fill="none" fill-rule="evenodd">
        <g id="P4-展示页" transform="translate(-288.000000, -599.000000)">
            <g id="分组-12" transform="translate(288.000000, 539.000000)">
                <g id="编组-30" transform="translate(0.000000, 60.000000)">
                    <rect id="矩形" x="0" y="0" width="80" height="80"></rect>
                    <path d="M48.0153009,23.0198186 C45.0614651,22.839598 42.163996,23.8945401 40,25.9381165 C37.836004,23.8945401 34.9385349,22.839598 31.9846991,23.0198186 C24.5814039,23.0198186 12.8545844,40.6695246 40,57 C67.1454156,40.6695246 55.4185961,23.0198186 48.0153009,23.0198186 Z M54.253811,30.6753535 L48.6470487,35.2127072 L48.6470487,25.0386411 C51.2904417,25.9153937 53.369199,28.0052553 54.253811,30.6753535 Z M43.8891977,31.634794 C43.1490364,31.6328214 42.4141868,31.761333 41.7175645,32.0145725 L47.7586533,25.8381748 L47.7586533,34.673022 C47.100451,33.0478293 45.6144605,31.9194366 43.8891977,31.7347357 L43.8891977,31.634794 Z M39.9407736,46.945864 C32.1821203,42.1086852 32.3992836,37.6312966 32.8533524,35.9122992 C33.1939467,34.273423 34.4683151,32.9988958 36.0910602,32.6741878 C37.24358,32.5964519 38.379515,32.9846114 39.2497994,33.7535582 L39.9802579,34.5930686 L40.7304585,33.7735466 C41.5996388,33.0026563 42.736393,32.6142169 43.8891977,32.6941761 C45.5422262,33.0231905 46.83168,34.3366385 47.1466476,36.0122409 C47.54149,37.7312383 47.7586533,42.2086269 40,47.0458057 L39.9407736,46.945864 Z M35.9923496,31.634794 C34.3500787,31.9271646 32.9873358,33.0858403 32.4190258,34.673022 L32.4190258,26.0180699 L38.4995988,32.2344442 C37.736519,31.9107754 36.9183742,31.7410318 36.0910602,31.7347357 L35.9923496,31.634794 Z M31.6490831,37.2315297 C31.683889,39.3836823 32.4747822,41.4528954 33.8799427,43.0681256 L27.4045272,42.4284987 L31.6490831,37.2315297 Z M39.2497994,47.6454559 L36.7030659,51.2233692 L35.9133811,45.2268665 C36.9592448,46.1228877 38.0750277,46.9317253 39.2497994,47.6454559 L39.2497994,47.6454559 Z M44.3827507,45.0269831 L43.5733238,51.2233692 L40.987106,47.5854909 C42.1539802,46.8337405 43.2567925,45.9846151 44.2840401,45.0469715 L44.3827507,45.0269831 Z M48.3311748,37.2115414 L52.7336677,42.4085103 L46.0805731,43.1680673 C47.4868304,41.5120243 48.2514898,39.3954146 48.2324642,37.2115414 L48.3311748,37.2115414 Z M47.1466476,25.0586294 L40.4343266,31.9346191 L40.4343266,28.3367175 L41.4214327,27.2573471 C43.0085697,25.8545513 45.0398932,25.0744396 47.1466476,25.0586294 Z M39.4472206,28.3766942 L39.4472206,31.8346774 L32.8928366,25.0786178 C34.9565129,25.1154744 36.941486,25.8868142 38.4995988,27.2573471 L39.4472206,28.3766942 Z M31.3529513,25.0986061 L31.3529513,35.2926606 L25.746189,30.6753535 C26.6301059,28.0177336 28.7127837,25.946205 31.3529513,25.0986061 L31.3529513,25.0986061 Z M25.4303151,31.7947007 L31.3529513,36.5119494 L26.7727793,41.68893 C25.1032986,38.6821879 24.623485,35.1458655 25.4303151,31.7947007 L25.4303151,31.7947007 Z M27.7796275,43.4678924 L34.7091117,44.2674261 L35.6567335,51.5831593 C32.5841414,49.3633388 29.9183398,46.6169378 27.7796275,43.4678924 L27.7796275,43.4678924 Z M36.9004871,52.5226114 L39.9605158,48.2051295 L43.1982235,52.4626464 C42.2111175,53.1622383 41.2240115,53.8618303 40.0394842,54.5814106 C38.8746991,53.8818186 37.867851,53.202215 36.9202292,52.5226114 L36.9004871,52.5226114 Z M44.4419771,51.5032059 L45.3698568,44.2674261 L52.1808883,43.4878808 C50.0767237,46.591215 47.4585386,49.3029149 44.4419771,51.5032059 L44.4419771,51.5032059 Z M53.2469628,41.628965 L48.84447,36.4120077 L54.589427,31.7747124 C55.3886421,35.1044184 54.9162094,38.6168934 53.2667049,41.6089766 L53.2469628,41.628965 Z" id="形状" fill="#FFFFFF" fill-rule="nonzero"></path>
                </g>
            </g>
        </g>
    </g>
</svg>