<?xml version="1.0" encoding="UTF-8"?>
<svg width="80px" height="80px" viewBox="0 0 80 80" version="1.1" xmlns="http://www.w3.org/2000/svg" xmlns:xlink="http://www.w3.org/1999/xlink">
    <!-- Generator: Sketch 56.2 (81672) - https://sketch.com -->
    <title>编组 37</title>
    <desc>Created with Sketch.</desc>
    <g id="Page-2" stroke="none" stroke-width="1" fill="none" fill-rule="evenodd">
        <g id="P4-展示页" transform="translate(-368.000000, -759.000000)">
            <g id="分组-12" transform="translate(288.000000, 539.000000)">
                <g id="编组-37" transform="translate(80.000000, 220.000000)">
                    <rect id="矩形-copy-24" x="0" y="0" width="80" height="80"></rect>
                    <path d="M40.1397955,19 L39.9997979,19 C39.8797999,19 28,20.1324025 28,35.1771786 C28,49.8579682 38.9798151,60.0698122 39.459807,60.4944632 L39.9997979,61 L40.5397888,60.4944632 C40.999781,60.0698122 51.9995957,49.8579682 51.9995957,35.1771786 C52.0795944,20.152624 40.2597935,19.0202215 40.1397955,19 Z M40.1397955,48.7255657 C36.9330556,45.4909407 35.0298582,41.1666595 34.7998855,36.5926818 C34.7998855,29.8387097 39.6598036,29.1511796 40.1397955,29.0905152 C40.6197874,29.0298507 45.4797056,29.8387097 45.4797056,36.5926818 C45.2347447,41.1811425 43.3098793,45.5132696 40.0797965,48.7457872 L40.1397955,48.7255657 Z M46.2996918,36.5926818 L46.2996918,34.5705344 L50.2996244,36.5926818 L46.0396961,39.1001444 C46.1740044,38.278049 46.2408976,37.4461382 46.2396928,36.6129032 L46.2996918,36.5926818 Z M40.9797814,28.5040924 L45.9196982,23.6711603 L45.5997035,32.7303804 C44.818801,30.6191604 43.0745603,29.0213821 40.9197824,28.443428 L40.9797814,28.5040924 Z M34.5598895,32.9325951 L34.2398949,23.7520462 L39.159812,28.5445354 C37.0037192,29.136422 35.2661347,30.7500147 34.4998905,32.8719307 L34.5598895,32.9325951 Z M33.879901,36.7544535 C33.8997259,37.541453 33.9799658,38.3257076 34.1198969,39.1001444 L29.839969,36.815118 L33.8399016,34.7929706 L33.879901,36.7544535 Z M34.1398966,40.1112181 L34.9398831,52.0823303 C32.2147537,47.8158341 30.4971347,42.9725352 29.9199677,37.927299 L34.1398966,40.1112181 Z M35.8398679,53.4978334 L35.1198801,42.5580164 C36.1382676,45.099946 37.6399276,47.4152039 39.5398056,49.3726529 L35.9198666,53.5787193 L35.8398679,53.4978334 Z M45.0197133,42.8815599 L44.2997254,53.6191623 L40.6797864,49.4130958 C42.5062832,47.5094362 43.9586506,45.2724133 44.9597143,42.8208955 L45.0197133,42.8815599 Z M46.0196965,40.0505537 L50.3596234,37.7250843 C49.7993186,42.9217617 48.0312112,47.910739 45.1997103,52.284545 L46.0196965,40.0505537 Z M50.4796213,35.278286 L50.4796213,35.9051517 L46.4796887,33.8830043 L46.819683,24.1564757 C49.4269631,27.2136221 50.7287655,31.1914313 50.439622,35.2176216 L50.4796213,35.278286 Z M40.0797965,20.6783823 C41.9857807,20.9675164 43.7883864,21.7396858 45.3197083,22.9229658 L39.9997979,28.2007703 L34.6598878,22.9229658 C36.2423552,21.7102826 38.1106543,20.9365512 40.0797965,20.6783823 L40.0797965,20.6783823 Z M33.3199104,24.1564757 L33.6599047,33.8425614 L29.659972,35.8647087 L29.659972,35.1974001 C29.395991,31.1735937 30.71097,27.2067006 33.3199104,24.1564757 L33.3199104,24.1564757 Z M40.0197975,58.7554165 C38.6708605,57.3477062 37.4274452,55.8404113 36.2998602,54.2460279 L39.9997979,49.9388541 L43.7197352,54.2662494 C42.6170395,55.850939 41.4004376,57.3513844 40.0797965,58.7554165 L40.0197975,58.7554165 Z" id="形状" fill="#FFFFFF" fill-rule="nonzero"></path>
                </g>
            </g>
        </g>
    </g>
</svg>