<?xml version="1.0" encoding="UTF-8"?>
<svg width="80px" height="80px" viewBox="0 0 80 80" version="1.1" xmlns="http://www.w3.org/2000/svg" xmlns:xlink="http://www.w3.org/1999/xlink">
    <!-- Generator: Sketch 56.2 (81672) - https://sketch.com -->
    <title>编组 34</title>
    <desc>Created with Sketch.</desc>
    <g id="Page-2" stroke="none" stroke-width="1" fill="none" fill-rule="evenodd">
        <g id="P4-展示页" transform="translate(-368.000000, -679.000000)">
            <g id="分组-12" transform="translate(288.000000, 539.000000)">
                <g id="编组-34" transform="translate(80.000000, 140.000000)">
                    <rect id="矩形-copy-21" x="0" y="0" width="80" height="80"></rect>
                    <path d="M57.5165654,30.2727606 C56.1006471,26.4009534 52.7645981,23.5536237 48.7228235,22.7672707 C46.0127005,22.2227871 43.2525336,21.9678409 40.4886834,22.0067144 C37.5868948,21.9512002 34.6887536,22.2400892 31.8548278,22.8673439 C27.8150315,23.7804038 24.5515225,26.7522057 23.2609437,30.693068 C22.3146416,33.8721633 21.8960333,37.1852976 22.0218255,40.5002415 C21.9482713,43.5458423 22.277565,46.5877959 23.0011286,49.5468587 C24.0004512,54.0355829 27.6233807,57.4657007 32.1546144,58.2131977 C34.8960686,58.7758409 37.6905926,59.0375767 40.4886834,58.9937686 C43.2936606,59.0447346 46.0955898,58.7829331 48.8427382,58.2131977 C53.0929997,57.4691502 56.5462264,54.3606435 57.7364089,50.2073418 C58.6632188,47.0450253 59.0748779,43.7537548 58.9555413,40.4602122 C59.1577944,37.0023268 58.6685724,33.5388042 57.5165654,30.2727606 L57.5165654,30.2727606 Z M55.8377601,49.6669465 L55.8377601,49.8270636 L53.7392536,46.4646042 L56.9170071,42.4616762 C56.9196476,44.855117 56.5694521,47.2358386 55.8777317,49.526844 L55.8377601,49.6669465 Z M40.4886834,57.0123193 L32.6142873,51.1480299 L40.6085981,48.9664341 L48.6029089,51.1480299 L40.7285128,57.0123193 L40.4886834,57.0123193 Z M24.9197632,49.0064634 C24.3809608,46.8655996 24.0925614,44.6692554 24.0603748,42.4616762 L27.2381133,46.4646042 L25.2395356,49.8670929 C25.0996352,49.586888 24.9997063,49.2666537 24.939749,49.0464927 L24.9197632,49.0064634 Z M25.2595214,30.9932876 L27.2580991,34.1355861 L24.0803606,38.3586751 C24.0876704,35.9907441 24.4446135,33.6369126 25.1396067,31.3735658 C25.1795783,31.253478 25.2395356,31.253478 25.2795072,31.0533316 L25.2595214,30.9932876 Z M27.7577435,45.5439307 L24.040389,40.860505 L24.040389,40.0799341 L27.7577435,35.1163034 L30.9754536,40.4001683 L27.7577435,45.5439307 Z M40.5086692,24.028193 L40.9483563,24.028193 L48.4430227,29.6122775 L40.4487119,31.7938732 L32.4544011,29.6122775 L39.9490675,24.028193 L40.5086692,24.028193 Z M31.9747425,48.0457607 L37.8705467,48.7062438 L31.8748136,50.3474443 L31.9747425,48.0457607 Z M49.1025533,50.3274296 L43.1068202,48.6862292 L49.0026244,48.0257461 L49.1025533,50.3274296 Z M40.5086692,47.9657021 L31.9947282,47.0250141 L32.1346287,40.5202562 L32.1346287,40.2600658 L31.9947282,33.7553079 L40.5086692,32.8146199 L49.0226102,33.7553079 L48.8827098,40.2600658 L48.8827098,40.5002415 L49.0226102,47.0049994 L40.5086692,47.9657021 Z M49.042596,32.7946052 L43.1467918,32.1341221 L49.1425249,30.4929217 L49.042596,32.7946052 Z M31.9147851,30.472907 L37.9105182,32.1141075 L32.014714,32.7745906 L31.9147851,30.472907 Z M55.7378312,31.1333901 C56.5700825,33.449506 56.9763612,35.89748 56.9369779,38.3586751 L53.7392536,34.19563 L55.7378312,31.0933608 L55.7378312,31.1333901 Z M53.2795807,35.1363181 L56.9769494,40.1199634 L56.9769494,40.9005343 L53.1996376,45.58396 L50.0618706,40.420183 L53.2795807,35.1363181 Z M55.2781584,29.9925557 L49.9219702,38.6588947 L50.201771,25.249086 C52.3798823,26.1787079 54.1576314,27.8526309 55.218201,29.972541 L55.2781584,29.9925557 Z M49.2824253,24.9888957 L49.2824253,28.9918237 L42.8270193,24.1883101 C44.7281078,24.240963 46.6208146,24.461986 48.4829942,24.8487932 C48.6228947,24.7887493 48.9026955,24.8888225 49.2024822,24.9688811 L49.2824253,24.9888957 Z M32.3544722,24.8287786 C34.323401,24.3823831 36.3319735,24.1343014 38.3502053,24.0882369 L31.8947993,28.8917505 L31.8947993,24.9888957 L32.3544722,24.8287786 Z M30.8155674,25.249086 L31.0753825,38.5788361 L25.7591658,29.9124971 C26.8295134,27.7994515 28.624758,26.1437358 30.8155674,25.249086 L30.8155674,25.249086 Z M25.6392512,51.027942 L31.0753825,42.1014127 L30.7955816,55.7914263 C28.5213975,54.9391748 26.6706149,53.2293982 25.6392512,51.027942 L25.6392512,51.027942 Z M31.7548989,56.0916459 L31.7548989,51.8885715 L38.5900346,56.97229 C36.5140529,56.9342449 34.4463145,56.6996968 32.4144295,56.2717776 C32.2945149,56.2317484 32.0546856,56.1516898 31.7548989,56.0916459 Z M48.4030511,56.2717776 C46.3786543,56.7042514 44.3171087,56.9388563 42.2474318,56.97229 L49.0825675,51.8885715 L49.0825675,56.0916459 L48.4030511,56.2717776 Z M50.1418137,55.7714116 L49.8620128,42.1014127 L55.2781584,51.0079274 C54.2656594,53.1940381 52.4459008,54.9016287 50.201771,55.7714116 L50.1418137,55.7714116 Z" id="形状" fill="#FFFFFF" fill-rule="nonzero"></path>
                </g>
            </g>
        </g>
    </g>
</svg>