<?xml version="1.0" encoding="UTF-8"?>
<svg width="80px" height="80px" viewBox="0 0 80 80" version="1.1" xmlns="http://www.w3.org/2000/svg" xmlns:xlink="http://www.w3.org/1999/xlink">
    <!-- Generator: Sketch 56.2 (81672) - https://sketch.com -->
    <title>编组 32</title>
    <desc>Created with Sketch.</desc>
    <g id="Page-2" stroke="none" stroke-width="1" fill="none" fill-rule="evenodd">
        <g id="P4-展示页" transform="translate(-448.000000, -599.000000)">
            <g id="分组-12" transform="translate(288.000000, 539.000000)">
                <g id="编组-32" transform="translate(160.000000, 60.000000)">
                    <rect id="矩形-copy-19" x="0" y="0" width="80" height="80"></rect>
                    <path d="M51.6525822,23 L28.42723,23 L23,28.8558875 L23,51.0246046 L28.42723,57 L51.6525822,57 L57,51.0246046 L57,29.4335091 L51.6525822,23 Z M51.213615,46.9613357 L51.213615,33.417106 L54.9448357,31.2062097 L54.9448357,49.2319859 L51.213615,46.9613357 Z M24.9953052,30.7480961 L28.5269953,33.0386643 L28.6467136,33.0386643 L28.806338,33.3374341 L28.806338,46.9015817 L24.9953052,49.212068 L24.9953052,30.7480961 Z M40.0798122,47.9970709 L45.2276995,50.1880492 L35.1115023,50.1880492 L40.0798122,47.9970709 Z M33.3356808,49.9888694 L33.3356808,47.9970709 L37.9248826,47.9970709 L33.3356808,49.9888694 Z M42.4741784,47.9970709 L47.2030516,47.9970709 L47.2030516,49.9888694 L42.4741784,47.9970709 Z M40.0399061,46.9613357 L33.2558685,46.8418278 L33.2558685,33.417106 L47.2429577,33.417106 L47.2429577,46.7223199 L40.0399061,46.9613357 Z M32.0586854,39.990041 L29.7441315,44.8500293 L29.7441315,35.4089045 L32.0586854,39.990041 Z M29.9835681,33.417106 L32.1784038,33.417106 L32.1784038,37.8986526 L29.9835681,33.417106 Z M32.1983568,42.0615114 L32.1983568,46.7422378 L29.9237089,46.7422378 L32.1983568,42.0615114 Z M39.9800469,32.3614528 L34.7124413,29.6526069 L45.407277,29.6526069 L39.9800469,32.3614528 Z M47.2230047,29.9513767 L47.2230047,32.5407147 L41.9553991,32.5407147 L47.2230047,29.9513767 Z M37.9248826,32.5008787 L33.2558685,32.5008787 L33.2558685,30.0908026 L37.9248826,32.5008787 Z M48.2206573,37.6198008 L48.2206573,33.5366139 L50.0762911,33.5366139 L48.2206573,37.6198008 Z M48.2206573,42.2806093 L50.2159624,46.7820738 L48.2206573,46.7820738 L48.2206573,42.2806093 Z M48.2206573,39.950205 L50.2159624,35.4885764 L50.2159624,44.7106034 L48.2206573,39.950205 Z M48.2206573,32.5606327 L48.2206573,30.847686 L49.657277,32.5606327 L48.2206573,32.5606327 Z M47.3826291,28.7562976 L32.8568075,28.7562976 C32.8845694,28.6654127 32.8845694,28.5683308 32.8568075,28.4774458 L30.4624413,24.9917985 L49.7969484,24.9917985 L47.3826291,28.7562976 Z M32.1983568,32.5207967 L30.2030516,32.5207967 L32.1983568,30.5289982 L32.1983568,32.5207967 Z M32.3180751,47.817809 L32.3180751,49.6303456 L30.6420188,47.797891 L32.3180751,47.817809 Z M33.0962441,51.1839484 L47.4624413,51.1839484 L49.7969484,54.9484476 L30.4225352,54.9484476 L33.0962441,51.1839484 Z M48.2206573,47.817809 L49.4776995,47.817809 L48.2206573,49.212068 L48.2206573,47.817809 Z M54.9847418,30.0310486 L50.8943662,32.4610428 L48.2007042,29.2940832 L50.834507,25.1312244 L54.9847418,30.0310486 Z M29.2652582,25.0515524 L31.9988263,29.0351494 L29.1255869,32.2817809 L25.1349765,29.6526069 L29.2652582,25.0515524 Z M25.0551643,50.3274751 L29.2652582,47.837727 L29.4248826,47.837727 L32.1185446,50.7656708 L29.2852113,54.7492677 L25.0551643,50.3274751 Z M50.8544601,54.8289397 L48.2406103,50.6063269 L50.7347418,47.857645 L54.8849765,50.3473931 L50.8544601,54.8289397 Z" id="形状" fill="#FFFFFF" fill-rule="nonzero"></path>
                </g>
            </g>
        </g>
    </g>
</svg>