<?xml version="1.0" standalone="no"?>
<!DOCTYPE svg PUBLIC "-//W3C//DTD SVG 1.1//EN" "http://www.w3.org/Graphics/SVG/1.1/DTD/svg11.dtd" >
<!--
2013-9-30: Created.
-->
<svg>
<metadata>
Created by iconfont
</metadata>
<defs>

<font id="iconfont" horiz-adv-x="1024" >
  <font-face
    font-family="iconfont"
    font-weight="500"
    font-stretch="normal"
    units-per-em="1024"
    ascent="896"
    descent="-128"
  />
    <missing-glyph />
    
    <glyph glyph-name="add" unicode="&#58915;" d="M543.978319 352.021681l352.427678 0c17.665335 0 31.975249 14.312984 31.975249 31.978319 0 17.665335-14.308891 31.978319-31.975249 31.978319L543.978319 415.978319l0 352.426655c0 17.665335-14.312984 31.975249-31.978319 31.975249-17.665335 0-31.978319-14.308891-31.978319-31.975249l0-352.426655-352.426655 0c-17.665335 0-31.975249-14.310937-31.975249-31.976272 0-8.833179 3.577478-16.829294 9.363252-22.615067 5.785773-5.785773 13.778818-9.365298 22.611997-9.365298l352.426655 0 0-352.426655c0-8.833179 3.578502-16.826224 9.364275-22.611997s13.781888-9.363252 22.615067-9.363252c17.665335 0 31.977295 14.308891 31.977295 31.975249L543.978319 352.021681z"  horiz-adv-x="1024" />

    
    <glyph glyph-name="daochu" unicode="&#59247;" d="M512-64c-247.039484 0-448 200.960516-448 448S264.960516 832 512 832 960 631.039484 960 384 759.039484-64 512-64zM512 768c-211.744443 0-384-172.255557-384-384s172.255557-384 384-384 384 172.255557 384 384S723.744443 768 512 768zM694.463217 437.632361l-158.495686 160.25545c-9.34412 9.471415-23.167639 11.840129-34.784142 7.135385-0.736245-0.287273-1.312512-0.992555-2.016073-1.343475-2.975944-1.47249-5.951888-3.072275-8.447897-5.5356-0.032684-0.032684-0.032684-0.063647-0.063647-0.096331-0.032684-0.032684-0.063647-0.032684-0.096331-0.063647l-159.359226-158.911974c-12.512727-12.480043-12.54369-32.735385-0.063647-45.248112 6.239161-6.271845 14.463432-9.407768 22.65674-9.407768 8.160624 0 16.352211 3.103239 22.591372 9.34412l103.616181 103.296224 0-305.056632c0-17.695686 14.336138-31.99914 32.00086-31.99914s32.00086 14.303454 32.00086 31.99914L544.00258 498.752748l104.959656-106.112189c6.239161-6.335493 14.496116-9.504099 22.751351-9.504099 8.12794 0 16.25588 3.072275 22.496761 9.247789C706.783282 404.800645 706.912297 425.055987 694.463217 437.632361z"  horiz-adv-x="1024" />

    
    <glyph glyph-name="close" unicode="&#58911;" d="M945.930435 2.135896 556.382325 385.078565l381.169279 391.296941c12.443403 12.757558 12.218276 33.217543-0.49221 45.705971-12.688997 12.487406-33.062 12.263301-45.480844-0.494257L510.399037 430.281069 120.843764 813.231925c-12.691043 12.487406-33.062 12.263301-45.481867-0.494257-12.419867-12.735046-12.195763-33.217543 0.494257-45.683459l389.553227-382.958018L84.231915-7.207913c-12.443403-12.756535-12.217253-33.216519 0.494257-45.705971 6.356778-6.243191 14.622022-9.29776 22.841218-9.208732 8.243755 0.091074 16.418948 3.325745 22.64065 9.702989l381.182582 391.310244L900.942825-44.065356c6.333242-6.242168 14.600533-9.320273 22.840194-9.229199 8.222265 0.088004 16.419971 3.346211 22.64065 9.723455C958.844559-30.811494 958.641945-10.35151 945.930435 2.135896z"  horiz-adv-x="1024" />

    
    <glyph glyph-name="webicon308" unicode="&#59037;" d="M512 768C299.936 768 128 596.096 128 384c0-212.064 171.936-384 384-384s384 171.936 384 384C896 596.096 724.064 768 512 768zM736 352l-192 0 0-192c0-17.664-14.336-32-32-32s-32 14.336-32 32l0 192L288 352c-17.664 0-32 14.336-32 32 0 17.664 14.336 32 32 32l192 0L480 608c0 17.664 14.336 32 32 32s32-14.336 32-32l0-192 192 0c17.664 0 32-14.336 32-32C768 366.336 753.664 352 736 352z"  horiz-adv-x="1024" />

    
    <glyph glyph-name="tishi" unicode="&#59162;" d="M511.315408 831.882704c-114.365724 0-228.732471-43.446511-316.263014-130.978077-174.424588-174.424588-174.424588-458.102463 0-632.527051 87.531566-87.531566 201.89729-130.978077 316.263014-130.978077s228.731448 43.446511 316.263014 130.978077c174.424588 174.423565 174.424588 458.102463 0 632.527051C740.04788 788.436192 625.682155 831.882704 511.315408 831.882704zM511.315408 787.158083c52.391231 0 103.504352-10.222829 151.422711-29.390377 49.835012-20.445658 94.559633-49.835012 132.894729-88.809675 38.97364-38.335097 68.364017-83.058694 88.809675-132.894729 19.167548-47.918359 29.390377-99.031481 29.390377-151.422711s-10.222829-103.504352-29.390377-151.422711c-20.445658-49.835012-49.835012-94.559633-88.809675-132.894729-38.335097-38.97364-83.058694-68.364017-132.894729-88.809675-47.918359-19.167548-99.031481-29.390377-151.422711-29.390377s-103.504352 10.222829-151.422711 29.390377c-49.835012 20.445658-94.559633 49.835012-132.894729 88.809675-38.97364 38.335097-68.364017 83.058694-88.809675 132.894729-19.167548 47.918359-29.390377 99.031481-29.390377 151.422711s10.222829 103.504352 29.390377 151.422711c20.445658 49.835012 49.835012 94.559633 88.809675 132.894729 38.335097 38.97364 83.058694 68.364017 132.894729 88.809675C407.811056 776.935254 458.924177 787.158083 511.315408 787.158083zM516.619204 182.8794c13.227256 0 24.582885-4.617158 34.066887-13.851473 9.484002-9.234315 14.226003-20.465101 14.226003-33.692357 0-13.476943-4.742001-24.77015-14.226003-33.879622-9.484002-9.109472-20.839631-13.664208-34.066887-13.664208-13.227256 0-24.582885 4.554736-34.066887 13.664208s-14.226003 20.402679-14.226003 33.879622c0 13.227256 4.742001 24.458041 14.226003 33.692357C492.036319 178.262242 503.391948 182.8794 516.619204 182.8794zM553.306778 676.666596l-8.235568-414.796144L485.921042 261.870452l-8.235568 414.796144L553.306778 676.666596z"  horiz-adv-x="1024" />

    
    <glyph glyph-name="select" unicode="&#58944;" d="M512 830.054055c-246.361991 0-446.060195-199.698205-446.060195-446.060195s199.698205-446.048939 446.060195-446.048939c246.360967 0 446.059172 199.686948 446.059172 446.048939S758.361991 830.054055 512 830.054055L512 830.054055zM756.604974 510.152165 456.943057 210.519923c-6.520507-6.563486-15.195074-9.780761-23.813359-9.739828-8.56098-0.040932-17.293875 3.176342-23.813359 9.739828L267.394003 352.441237c-13.039991 13.011338-13.039991 34.302247 0 47.313585 13.041014 13.014408 34.305317 13.014408 47.346331 0l118.389364-118.430296 276.129968 276.129968c13.041014 13.011338 34.305317 13.011338 47.346331 0C769.588683 544.454412 769.588683 523.163503 756.604974 510.152165L756.604974 510.152165z"  horiz-adv-x="1024" />

    
    <glyph glyph-name="shang" unicode="&#58914;" d="M746.134 270.662c-0.008-0-0.018-0-0.027-0-5.579 0-10.635 2.239-14.319 5.867l-203.027 199.289c-9.104 8.936-23.895 8.914-32.971-0.050l-201.688-199.198c-8.048-7.948-21.013-7.867-28.96 0.18-7.947 8.046-7.867 21.011 0.179 28.959l201.688 199.198c12.116 11.966 28.164 18.569 45.192 18.596h0.102c16.99 0 33.019-6.552 45.147-18.457l203.028-199.293c8.071-7.922 8.192-20.887 0.269-28.958-3.709-3.786-8.875-6.133-14.589-6.133-0.009 0-0.018 0-0.027 0z"  horiz-adv-x="1024" />

    
    <glyph glyph-name="xia" unicode="&#58917;" d="M746.134 523.502c-0.008 0-0.018 0-0.027 0-5.579 0-10.635-2.239-14.319-5.867l-203.027-199.289c-9.104-8.936-23.895-8.914-32.971 0.050l-201.688 199.198c-8.048 7.948-21.013 7.867-28.96-0.18-7.947-8.046-7.867-21.011 0.179-28.959l201.688-199.198c12.116-11.966 28.164-18.569 45.192-18.596h0.102c16.99 0 33.019 6.552 45.147 18.457l203.028 199.293c8.071 7.922 8.192 20.887 0.269 28.958-3.709 3.786-8.875 6.133-14.589 6.133-0.009 0-0.018-0-0.027-0z"  horiz-adv-x="1024" />

    
    <glyph glyph-name="down" unicode="&#59409;" d="M688 435.2H329.6l179.2-179.2z"  horiz-adv-x="1024" />

    
    <glyph glyph-name="up" unicode="&#59410;" d="M515.2 512l-179.2-179.2h358.4z"  horiz-adv-x="1024" />

    
    <glyph glyph-name="dayin" unicode="&#58932;" d="M852.8 482.8h-36.4c0.7 4.1 1.3 8.2 1.3 12.5V708.8c0 42-34.2 76.2-76.2 76.2h-456c-42 0-76.2-34.2-76.2-76.2v-213.5c0-4.3 0.6-8.4 1.3-12.5h-36.4c-42 0-76.2-34.2-76.2-76.2V209c0-42 34.2-76.2 76.2-76.2h67v-67c0-42 34.2-76.2 76.2-76.2h392.3c42 0 76.2 34.2 76.2 76.2v67h67c42 0 76.2 34.2 76.2 76.2V406.7c-0.2 41.9-34.3 76.1-76.3 76.1zM273 495.4V708.8c0 6.8 5.7 12.5 12.5 12.5h455.9c6.8 0 12.5-5.7 12.5-12.5v-213.5c0-6.8-5.7-12.5-12.5-12.5H285.5c-6.8 0-12.5 5.8-12.5 12.6z m449.2-429.5c0-6.8-5.7-12.5-12.5-12.5H317.3c-6.8 0-12.5 5.7-12.5 12.5v67h417.4v-67z m0 130.6H304.8v67c0 6.8 5.7 12.5 12.5 12.5h392.3c6.8 0 12.5-5.7 12.5-12.5v-67z m143.1 12.6c0-6.8-5.7-12.5-12.5-12.5h-67v67c0 42-34.2 76.2-76.2 76.2H317.3c-42 0-76.2-34.2-76.2-76.2v-67h-67c-6.8 0-12.5 5.7-12.5 12.5V406.7c0 6.8 5.7 12.5 12.5 12.5H852.6c6.8 0 12.5-5.7 12.5-12.5v-197.6z"  horiz-adv-x="1024" />

    
    <glyph glyph-name="delete-s" unicode="&#58934;" d="M512 736.5632c-194.7648 0-352.5632-157.9008-352.5632-352.5632S317.2352 31.43679999999995 512 31.43679999999995 864.5632 189.23519999999996 864.5632 384 706.7648 736.5632 512 736.5632zM756.736 384c0-16.9984-13.7216-30.72-30.72-30.72H297.984c-16.9984 0-30.72 13.7216-30.72 30.72s13.7216 30.72 30.72 30.72h428.032c16.9984 0 30.72-13.7216 30.72-30.72z"  horiz-adv-x="1024" />

    
    <glyph glyph-name="jurassic_false" unicode="&#59032;" d="M512 832C265 832 64 631 64 384s201-448 448-448 448 201 448 448S759 832 512 832z m0-832c-211.8 0-384 172.2-384 384s172.2 384 384 384 384-172.2 384-384-172.2-384-384-384zM647.8 565L512 429.2 376.2 565 331 519.8 466.8 384 331 248.20000000000005l45.2-45.2L512 338.79999999999995 647.8 203l45.2 45.2L557.2 384 693 519.8z"  horiz-adv-x="1024" />

    
    <glyph glyph-name="order" unicode="&#58883;" d="M655.36 757.76H215.04v-747.52h593.92V604.1600000000001h-153.6V757.76z m10.24-4.23936V614.4h139.12064L665.6 753.52064zM204.8 768h460.8l153.6-153.6v-614.4H204.8V768z m143.36-286.72h327.68v-10.24H348.16v10.24z m0-112.64h327.68v-10.24H348.16v10.24z m0-112.64h245.76v-10.24H348.16v10.24z"  horiz-adv-x="1024" />

    
    <glyph glyph-name="shoppingcart" unicode="&#58884;" d="M201.81504 747.52H81.92v10.24H210.16576l27.33568-133.12H878.848l-86.19008-419.84H320.96768l-37.05856-97.28H778.24c31.104 0 56.32-25.216 56.32-56.32s-25.216-56.32-56.32-56.32-56.32 25.216-56.32 56.32c0 19.0464 9.45664 35.8912 23.93088 46.08H308.86912A56.25344 56.25344 0 0 0 332.8 51.200000000000045c0-31.104-25.216-56.32-56.32-56.32s-56.32 25.216-56.32 56.32c0 29.9008 23.30624 54.36416 52.75136 56.20736l39.21408 102.94272L201.81504 747.52z m56.71424-225.28h588.84096l18.92352 92.16h-626.688l18.92352-92.16z m2.0992-10.24l60.98944-296.96h462.68416l60.96896 296.96H260.6336zM778.24 5.1200000000000045a46.08 46.08 0 1 1 0 92.16 46.08 46.08 0 0 1 0-92.16z m-501.76 0a46.08 46.08 0 1 1 0 92.16 46.08 46.08 0 0 1 0-92.16z"  horiz-adv-x="1024" />

    
    <glyph glyph-name="ordertext" unicode="&#58885;" d="M901.12 342.584889c0-109.226667-0.682667-152.917333-45.056-197.290667a170.268444 170.268444 0 0 0-121.514667-49.834666 170.268444 170.268444 0 0 0-121.514666 49.834666c-44.373333 44.373333-45.056 88.064-45.056 197.290667 0 109.909333 0.682667 152.917333 45.056 197.290667a170.268444 170.268444 0 0 0 121.514666 49.834666c46.421333 0 89.429333-17.749333 121.514667-49.834666 44.373333-44.373333 45.056-87.381333 45.056-197.290667z m-36.864 0c0 103.765333-2.730667 141.994667-37.546667 176.810667-24.576 24.576-57.344 37.546667-92.16 37.546666-34.816 0-67.584-12.970667-92.16-37.546666-34.816-34.816-37.546667-73.045333-37.546666-176.810667s2.730667-141.994667 37.546666-176.810667c24.576-24.576 57.344-37.546667 92.16-37.546666 34.816 0 67.584 12.970667 92.16 37.546666 34.816 34.816 37.546667 73.045333 37.546667 176.810667zM1208.32 376.03555600000004c-19.797333 19.797333-34.816 25.941333-62.122667 25.941333-56.661333 0-88.064-47.104-88.064-99.669333V99.55555600000002h-34.816V428.600889H1058.133333v-43.690667c19.114667 30.72 57.344 47.786667 96.256 47.786667 32.085333 0 55.296-7.509333 79.189334-31.402667l-25.258667-25.258666zM1503.914667 99.55555600000002v42.325333c-29.354667-38.229333-60.074667-46.421333-97.621334-46.421333-34.816 0-63.488 11.605333-80.554666 28.672-33.450667 33.450667-42.325333 88.064-42.325334 139.946666 0 51.882667 8.874667 106.496 42.325334 139.946667 17.066667 17.066667 45.738667 28.672 80.554666 28.672 37.546667 0 68.266667-8.192 97.621334-46.421333v199.338666h34.816V99.55555600000002h-34.816z m0 164.522666c0 68.266667-12.288 137.898667-92.842667 137.898667s-92.842667-69.632-92.842667-137.898667 12.288-137.898667 92.842667-137.898666 92.842667 69.632 92.842667 137.898666z m182.954666-7.509333c0-83.968 36.864-129.706667 107.178667-129.706667 38.912 0 62.805333 11.605333 90.794667 39.594667l25.941333-20.48C1877.333333 112.52622199999996 1846.613333 95.45955600000002 1792 95.45955600000002c-90.794667 0-139.946667 58.709333-139.946667 168.618666 0 106.496 49.152 168.618667 131.754667 168.618667s131.754667-59.392 131.754667-160.426667v-15.701333h-228.693334z m193.877334 27.989333c-2.048 31.402667-2.730667 42.325333-11.605334 62.122667-14.336 34.816-47.104 55.296-85.333333 55.296s-70.997333-20.48-85.333333-55.296c-7.509333-21.162667-9.557333-30.037333-11.605334-62.122667h193.877334z m332.458666 91.477334c-19.797333 19.797333-34.816 25.941333-62.122666 25.941333-56.661333 0-88.064-47.104-88.064-99.669333V99.55555600000002h-34.816V428.600889h34.816v-43.690667c19.114667 30.72 57.344 47.786667 96.256 47.786667 32.085333 0 55.296-7.509333 79.189333-31.402667l-25.258667-25.258666z m314.026667 176.810666v-200.021333h219.818667v-32.768h-219.818667V99.55555600000002h-36.864V585.6142219999999H2785.28v-32.768h-258.048z m593.237333-288.768c0-47.104-6.144-97.621333-40.96-132.437333-23.893333-23.893333-53.930667-36.181333-91.477333-36.181333-36.864 0-67.584 12.288-91.477333 36.181333-34.816 34.816-40.96 85.333333-40.96 132.437333 0 47.104 6.144 97.621333 40.96 132.437334 23.893333 23.893333 54.613333 36.181333 91.477333 36.181333 37.546667 0 67.584-12.288 91.477333-36.181333 34.816-34.816 40.96-85.333333 40.96-132.437334z m-34.816 0c0 38.229333-2.048 82.602667-29.354666 109.909334a93.781333 93.781333 0 0 1-68.266667 27.989333c-26.624 0-49.834667-9.557333-68.266667-27.989333-27.306667-27.306667-29.354667-71.68-29.354666-109.909334 0-38.229333 2.048-82.602667 29.354666-109.909333a93.781333 93.781333 0 0 1 68.266667-27.989333c26.624 0 49.834667 9.557333 68.266667 27.989333 27.306667 27.306667 29.354667 71.68 29.354666 109.909333z m333.141334 111.957334c-19.797333 19.797333-34.816 25.941333-62.122667 25.941333-56.661333 0-88.064-47.104-88.064-99.669333V99.55555600000002h-34.816V428.600889h34.816v-43.690667c19.114667 30.72 57.344 47.786667 96.256 47.786667 32.085333 0 55.296-7.509333 79.189333-31.402667l-25.258666-25.258666zM3949.909333 99.55555600000002v204.117333c0 63.488-31.402667 98.304-90.794666 98.304-57.344 0-92.842667-35.498667-92.842667-92.16V99.55555600000002h-34.816v204.117333c0 63.488-31.402667 98.304-90.794667 98.304s-92.842667-35.498667-92.842666-98.304V99.55555600000002h-34.816V428.600889h34.816V389.688889c24.576 28.672 57.344 43.008 97.621333 43.008 49.152 0 86.016-21.162667 105.813333-60.074667 24.576 38.912 62.805333 60.074667 111.957334 60.074667 36.181333 0 65.536-11.605333 86.698666-31.402667 22.528-21.845333 34.133333-52.565333 34.133334-91.477333V99.55555600000002h-34.133334z"  horiz-adv-x="4551" />

    
    <glyph glyph-name="shoppingtext" unicode="&#58886;" d="M502.670222 229.944889c0-82.602667-62.122667-134.485333-163.84-134.485333-71.68 0-117.418667 19.797333-161.792 64.170666l25.941334 25.941334c43.690667-43.690667 79.872-57.344 137.898666-57.344 77.141333 0 124.928 36.864 124.928 100.352 0 29.354667-8.192 52.565333-26.624 68.266666-18.432 14.336-30.037333 20.48-70.314666 25.941334l-56.661334 8.874666c-36.864 5.461333-65.536 17.066667-86.698666 35.498667-25.258667 21.162667-38.229333 51.2-38.229334 89.429333 0 81.92 57.344 133.12 150.869334 133.12 60.074667 0 98.304-16.384 139.946666-52.565333l-23.893333-23.893333c-28.672 27.306667-60.757333 45.056-118.101333 45.056-70.997333 0-112.64-38.229333-112.64-100.352 0-27.989333 8.192-49.152 25.258666-63.488 17.066667-14.336 45.056-25.258667 72.362667-30.037334l52.565333-8.192c45.738667-6.144 66.901333-15.018667 86.698667-32.085333 26.624-21.845333 42.325333-55.296 42.325333-94.208zM827.619556 99.55555600000002v204.117333c0 63.488-31.402667 98.304-90.794667 98.304s-92.842667-35.498667-92.842667-98.304V99.55555600000002h-34.816V585.6142219999999h34.816V389.688889c24.576 28.672 56.661333 43.008 96.938667 43.008 75.776 0 121.514667-46.421333 121.514667-122.88V99.55555600000002h-34.816z m408.917333 164.522666c0-47.104-6.144-97.621333-40.96-132.437333-23.893333-23.893333-53.930667-36.181333-91.477333-36.181333-36.864 0-67.584 12.288-91.477334 36.181333-34.816 34.816-40.96 85.333333-40.96 132.437333 0 47.104 6.144 97.621333 40.96 132.437334 23.893333 23.893333 54.613333 36.181333 91.477334 36.181333 37.546667 0 67.584-12.288 91.477333-36.181333 34.816-34.816 40.96-85.333333 40.96-132.437334z m-34.816 0c0 38.229333-2.048 82.602667-29.354667 109.909334a93.781333 93.781333 0 0 1-68.266666 27.989333c-26.624 0-49.834667-9.557333-68.266667-27.989333-27.306667-27.306667-29.354667-71.68-29.354667-109.909334 0-38.229333 2.048-82.602667 29.354667-109.909333a93.781333 93.781333 0 0 1 68.266667-27.989333c26.624 0 49.834667 9.557333 68.266666 27.989333 27.306667 27.306667 29.354667 71.68 29.354667 109.909333z m403.456 0c0-51.882667-8.874667-106.496-42.325333-139.946666-17.066667-17.066667-45.738667-28.672-80.554667-28.672-37.546667 0-68.266667 8.192-97.621333 46.421333v-199.338667h-34.816V428.600889h34.816v-42.325333c29.354667 38.229333 60.074667 46.421333 97.621333 46.421333 34.816 0 63.488-11.605333 80.554667-28.672 33.450667-33.450667 42.325333-88.064 42.325333-139.946667z m-34.816 0c0 68.266667-12.288 137.898667-92.842667 137.898667s-92.842667-69.632-92.842666-137.898667 12.288-137.898667 92.842666-137.898666 92.842667 69.632 92.842667 137.898666z m403.456 0c0-51.882667-8.874667-106.496-42.325333-139.946666-17.066667-17.066667-45.738667-28.672-80.554667-28.672-37.546667 0-68.266667 8.192-97.621333 46.421333v-199.338667h-34.816V428.600889h34.816v-42.325333c29.354667 38.229333 60.074667 46.421333 97.621333 46.421333 34.816 0 63.488-11.605333 80.554667-28.672 33.450667-33.450667 42.325333-88.064 42.325333-139.946667z m-34.816 0c0 68.266667-12.288 137.898667-92.842667 137.898667s-92.842667-69.632-92.842666-137.898667 12.288-137.898667 92.842666-137.898666 92.842667 69.632 92.842667 137.898666zM2087.139556 99.55555600000002V428.600889H2121.955556V99.55555600000002h-34.816z m-4.096 443.050666v43.008h43.008v-43.008h-43.008zM2472.846222 99.55555600000002v204.117333c0 63.488-31.402667 98.304-90.794666 98.304s-92.842667-35.498667-92.842667-98.304V99.55555600000002h-34.816V428.600889h34.816V389.688889c24.576 28.672 56.661333 43.008 96.938667 43.008 36.181333 0 65.536-10.24 87.381333-31.402667 22.528-21.845333 34.133333-52.565333 34.133333-91.477333V99.55555600000002h-34.816z m399.36-18.432c0-82.602667-49.152-142.677333-134.485333-142.677334-49.152 0-74.410667 12.970667-108.544 43.690667l23.210667 23.210667c25.941333-23.893333 43.690667-36.181333 85.333333-36.181334 68.949333 0 99.669333 48.469333 99.669333 114.005334v58.709333c-29.354667-38.229333-60.074667-46.421333-97.621333-46.421333-34.816 0-63.488 11.605333-80.554667 28.672C2625.763556 157.582222 2616.888889 212.195556 2616.888889 264.078222c0 51.882667 8.874667 106.496 42.325333 139.946667 17.066667 17.066667 45.738667 28.672 80.554667 28.672 37.546667 0 68.266667-8.192 97.621333-46.421333v42.325333h34.816v-347.477333z m-34.816 182.954666c0 68.266667-12.288 137.898667-92.842666 137.898667s-92.842667-69.632-92.842667-137.898667 12.288-137.898667 92.842667-137.898666 92.842667 69.632 92.842666 137.898666z m662.869334-26.624c-16.384-87.381333-79.189333-141.994667-165.205334-141.994666a170.268444 170.268444 0 0 0-121.514666 49.834666c-44.373333 44.373333-45.056 88.064-45.056 197.290667 0 109.909333 0.682667 152.917333 45.056 197.290667a170.268444 170.268444 0 0 0 121.514666 49.834666c87.381333 0 148.821333-54.613333 165.205334-141.994666h-37.546667c-14.336 67.584-62.122667 109.226667-127.658667 109.226666-34.816 0-67.584-12.970667-92.16-37.546666-34.816-34.816-37.546667-73.045333-37.546666-176.810667s2.730667-141.994667 37.546666-176.810667c24.576-24.576 57.344-37.546667 92.16-37.546666 65.536 0 114.688 41.642667 129.024 109.226666h36.181334zM3811.555556 99.55555600000002v32.768c-27.989333-27.989333-53.930667-36.864-100.352-36.864-49.152 0-75.776 8.192-96.938667 30.037333-15.701333 15.701333-23.893333 39.594667-23.893333 64.170667 0 60.074667 43.008 94.890667 114.688 94.890666H3811.555556V321.42222200000003c0 52.565333-25.258667 80.554667-92.842667 80.554667-46.421333 0-69.632-11.605333-90.794667-41.642667l-25.258666 21.845334c27.989333 38.912 62.122667 50.517333 116.053333 50.517333 87.381333 0 127.658667-38.912 127.658667-107.861333V99.55555600000002H3811.555556z m0 157.013333h-102.4c-55.978667 0-83.968-21.845333-83.968-66.218667 0-43.690667 25.941333-64.170667 86.016-64.170666 30.037333 0 58.026667 2.730667 81.92 25.258666 12.288 11.605333 18.432 32.768 18.432 62.805334V256.568889z m349.525333 119.466667c-19.797333 19.797333-34.816 25.941333-62.122667 25.941333-56.661333 0-88.064-47.104-88.064-99.669333V99.55555600000002h-34.816V428.600889h34.816v-43.690667c19.114667 30.72 57.344 47.786667 96.256 47.786667 32.085333 0 55.296-7.509333 79.189334-31.402667l-25.258667-25.258666z m181.589333-276.48c-51.882667 0-79.189333 36.181333-79.189333 86.016v217.088h-45.056v25.941333h45.056v105.130667h34.816v-105.130667h74.410667v-25.941333h-74.410667V184.88888899999995c0-34.816 15.701333-54.613333 50.517333-54.613333h23.893334V99.55555600000002h-30.037334z"  horiz-adv-x="4551" />

    
    <glyph glyph-name="bymetal" unicode="&#58888;" d="M1369.201778 231.992889c0-86.698667-57.344-132.437333-142.677334-132.437333h-184.32V585.6142219999999h178.858667c80.554667 0 140.629333-47.104 140.629333-126.976 0-51.2-28.672-93.525333-75.776-109.226666 52.565333-18.432 83.285333-60.757333 83.285334-117.418667z m-36.864 0c0 62.805333-43.690667 99.669333-109.909334 99.669333h-143.36v-199.338666h143.36c66.218667 0 109.909333 36.864 109.909334 99.669333z m-7.509334 226.645333c0 66.901333-49.152 94.208-107.861333 94.208h-137.898667v-188.416h137.898667c58.709333 0 107.861333 27.306667 107.861333 94.208z m231.424-448.512c-6.144-17.749333-13.653333-30.72-22.528-38.229333-16.384-15.701333-40.277333-21.162667-62.122666-21.162667h-16.384v30.72h12.970666c37.546667 0 48.469333 12.288 60.074667 45.056L1554.887111 99.55555600000002 1434.737778 428.600889h38.229333l98.986667-288.085333 98.986666 288.085333h38.229334l-152.917334-418.474667zM2339.271111 99.55555600000002V500.280889L2191.815111 167.822222H2154.951111l-150.186667 332.458667V99.55555600000002h-36.864V585.6142219999999h36.864l169.301334-374.784 165.205333 374.784h36.864V99.55555600000002H2339.271111z m193.877333 157.013333c0-83.968 36.864-129.706667 107.178667-129.706667 38.912 0 62.805333 11.605333 90.794667 39.594667l25.941333-20.48c-33.450667-33.450667-64.170667-50.517333-118.784-50.517333-90.794667 0-139.946667 58.709333-139.946667 168.618666 0 106.496 49.152 168.618667 131.754667 168.618667s131.754667-59.392 131.754667-160.426667v-15.701333h-228.693334z m193.877334 27.989333c-2.048 31.402667-2.730667 42.325333-11.605334 62.122667-14.336 34.816-47.104 55.296-85.333333 55.296s-70.997333-20.48-85.333333-55.296c-7.509333-21.162667-9.557333-30.037333-11.605334-62.122667h193.877334zM2961.863111 99.55555600000002c-51.882667 0-79.189333 36.181333-79.189333 86.016v217.088H2837.617778v25.941333h45.056v105.130667h34.816v-105.130667h74.410666v-25.941333h-74.410666V184.88888899999995c0-34.816 15.701333-54.613333 50.517333-54.613333h23.893333V99.55555600000002h-30.037333z m327.68 0v32.768c-27.989333-27.989333-53.930667-36.864-100.352-36.864-49.152 0-75.776 8.192-96.938667 30.037333-15.701333 15.701333-23.893333 39.594667-23.893333 64.170667 0 60.074667 43.008 94.890667 114.688 94.890666h106.496V321.42222200000003c0 52.565333-25.258667 80.554667-92.842667 80.554667-46.421333 0-69.632-11.605333-90.794666-41.642667l-25.258667 21.845334c27.989333 38.912 62.122667 50.517333 116.053333 50.517333 87.381333 0 127.658667-38.912 127.658667-107.861333V99.55555600000002h-34.816z m0 157.013333h-102.4c-55.978667 0-83.968-21.845333-83.968-66.218667 0-43.690667 25.941333-64.170667 86.016-64.170666 30.037333 0 58.026667 2.730667 81.92 25.258666 12.288 11.605333 18.432 32.768 18.432 62.805334V256.568889z m242.346667-157.013333c-53.930667 0-79.189333 33.450667-79.189334 85.333333V585.6142219999999h34.816v-400.042666c0-37.546667 11.605333-55.296 50.517334-55.296h23.893333V99.55555600000002h-30.037333z"  horiz-adv-x="4551" />

    
    <glyph glyph-name="bygemstome" unicode="&#58889;" d="M686.535111 231.992889c0-86.698667-57.344-132.437333-142.677333-132.437333h-184.32V585.6142219999999h178.858666c80.554667 0 140.629333-47.104 140.629334-126.976 0-51.2-28.672-93.525333-75.776-109.226666 52.565333-18.432 83.285333-60.757333 83.285333-117.418667z m-36.864 0c0 62.805333-43.690667 99.669333-109.909333 99.669333h-143.36v-199.338666h143.36c66.218667 0 109.909333 36.864 109.909333 99.669333z m-7.509333 226.645333c0 66.901333-49.152 94.208-107.861334 94.208h-137.898666v-188.416h137.898666c58.709333 0 107.861333 27.306667 107.861334 94.208z m231.424-448.512c-6.144-17.749333-13.653333-30.72-22.528-38.229333-16.384-15.701333-40.277333-21.162667-62.122667-21.162667h-16.384v30.72h12.970667c37.546667 0 48.469333 12.288 60.074666 45.056L872.220444 99.55555600000002 752.071111 428.600889h38.229333l98.986667-288.085333 98.986667 288.085333h38.229333l-152.917333-418.474667z m726.357333 258.730667c0-51.2-10.24-86.698667-39.594667-117.418667a171.918222 171.918222 0 0 0-127.658666-55.978666 170.268444 170.268444 0 0 0-121.514667 49.834666c-44.373333 44.373333-45.056 88.064-45.056 197.290667 0 109.909333 0.682667 152.917333 45.056 197.290667a170.268444 170.268444 0 0 0 121.514667 49.834666c84.650667 0 151.552-56.661333 165.888-141.994666h-36.864c-14.336 67.584-63.488 109.226667-129.024 109.226666-34.816 0-67.584-12.970667-92.16-37.546666-34.816-34.816-37.546667-73.045333-37.546667-176.810667s2.730667-141.994667 37.546667-176.810667c24.576-24.576 57.344-37.546667 92.16-37.546666a130.56 130.56 0 0 1 101.034666 47.104c21.162667 26.624 29.354667 54.613333 29.354667 96.256v43.690666h-130.389333v32.768h167.253333v-79.189333z m136.533333-12.288c0-83.968 36.864-129.706667 107.178667-129.706667 38.912 0 62.805333 11.605333 90.794667 39.594667l25.941333-20.48c-33.450667-33.450667-64.170667-50.517333-118.784-50.517333-90.794667 0-139.946667 58.709333-139.946667 168.618666 0 106.496 49.152 168.618667 131.754667 168.618667s131.754667-59.392 131.754667-160.426667v-15.701333h-228.693334z m193.877334 27.989333c-2.048 31.402667-2.730667 42.325333-11.605334 62.122667-14.336 34.816-47.104 55.296-85.333333 55.296s-70.997333-20.48-85.333333-55.296c-7.509333-21.162667-9.557333-30.037333-11.605334-62.122667h193.877334zM2514.716444 99.55555600000002v204.117333c0 63.488-31.402667 98.304-90.794666 98.304-57.344 0-92.842667-35.498667-92.842667-92.16V99.55555600000002h-34.816v204.117333c0 63.488-31.402667 98.304-90.794667 98.304s-92.842667-35.498667-92.842666-98.304V99.55555600000002h-34.816V428.600889h34.816V389.688889c24.576 28.672 57.344 43.008 97.621333 43.008 49.152 0 86.016-21.162667 105.813333-60.074667 24.576 38.912 62.805333 60.074667 111.957334 60.074667 36.181333 0 65.536-11.605333 86.698666-31.402667 22.528-21.845333 34.133333-52.565333 34.133334-91.477333V99.55555600000002h-34.133334z m395.264 93.525333c0-60.074667-50.517333-97.621333-131.754666-97.621333-57.344 0-99.669333 15.018667-133.12 47.104l23.893333 23.893333c25.258667-26.624 61.44-40.277333 107.861333-40.277333 64.853333 0 98.986667 22.528 98.986667 66.901333 0 34.816-19.114667 50.517333-62.805333 55.296l-54.613334 4.778667c-66.218667 5.461333-98.986667 34.133333-98.986666 86.016 0 57.344 46.421333 93.525333 118.101333 93.525333 45.738667 0 86.016-12.970667 115.370667-34.816l-23.210667-23.210667c-25.258667 18.432-55.978667 27.989333-92.16 27.989334-54.613333 0-83.968-22.528-83.968-63.488 0-34.816 20.48-50.517333 66.901333-55.296l53.248-4.778667c54.613333-5.461333 96.256-21.845333 96.256-86.016zM3101.809778 99.55555600000002c-51.882667 0-79.189333 36.181333-79.189334 86.016v217.088h-45.056v25.941333h45.056v105.130667h34.816v-105.130667h74.410667v-25.941333h-74.410667V184.88888899999995c0-34.816 15.701333-54.613333 50.517334-54.613333h23.893333V99.55555600000002h-30.037333z m380.245333 164.522666c0-47.104-6.144-97.621333-40.96-132.437333-23.893333-23.893333-53.930667-36.181333-91.477333-36.181333-36.864 0-67.584 12.288-91.477334 36.181333-34.816 34.816-40.96 85.333333-40.96 132.437333 0 47.104 6.144 97.621333 40.96 132.437334 23.893333 23.893333 54.613333 36.181333 91.477334 36.181333 37.546667 0 67.584-12.288 91.477333-36.181333 34.816-34.816 40.96-85.333333 40.96-132.437334z m-34.816 0c0 38.229333-2.048 82.602667-29.354667 109.909334a93.781333 93.781333 0 0 1-68.266666 27.989333c-26.624 0-49.834667-9.557333-68.266667-27.989333-27.306667-27.306667-29.354667-71.68-29.354667-109.909334 0-38.229333 2.048-82.602667 29.354667-109.909333a93.781333 93.781333 0 0 1 68.266667-27.989333c26.624 0 49.834667 9.557333 68.266666 27.989333 27.306667 27.306667 29.354667 71.68 29.354667 109.909333zM3813.831111 99.55555600000002v204.117333c0 63.488-31.402667 98.304-90.794667 98.304s-92.842667-35.498667-92.842666-98.304V99.55555600000002H3595.377778V428.600889h34.816V389.688889c24.576 28.672 56.661333 43.008 96.938666 43.008 36.181333 0 65.536-10.24 87.381334-31.402667 22.528-21.845333 34.133333-52.565333 34.133333-91.477333V99.55555600000002h-34.816z m178.858667 157.013333c0-83.968 36.864-129.706667 107.178666-129.706667 38.912 0 62.805333 11.605333 90.794667 39.594667l25.941333-20.48c-33.450667-33.450667-64.170667-50.517333-118.784-50.517333-90.794667 0-139.946667 58.709333-139.946666 168.618666 0 106.496 49.152 168.618667 131.754666 168.618667s131.754667-59.392 131.754667-160.426667v-15.701333h-228.693333z m193.877333 27.989333c-2.048 31.402667-2.730667 42.325333-11.605333 62.122667-14.336 34.816-47.104 55.296-85.333334 55.296s-70.997333-20.48-85.333333-55.296c-7.509333-21.162667-9.557333-30.037333-11.605333-62.122667h193.877333z"  horiz-adv-x="4551" />

    
    <glyph glyph-name="metal" unicode="&#58890;" d="M247.71072 551.00928c145.96096 145.96096 382.6176 145.96096 528.57856 0 145.96096-145.96096 145.96096-382.6176 0-528.57856-145.96096-145.96096-382.6176-145.96096-528.57856 0-145.96096 145.96096-145.96096 382.6176 0 528.57856z m7.23968-7.23968c-141.96224-141.96736-141.96224-372.13184 0-514.0992 141.96736-141.96224 372.13184-141.96224 514.0992 0 141.96224 141.96736 141.96224 372.13184 0 514.0992-141.96736 141.96224-372.13184 141.96224-514.0992 0z m43.44832-43.44832c117.9648 117.96992 309.23264 117.96992 427.20256 0 117.96992-117.9648 117.96992-309.23264 0-427.20256-117.9648-117.96992-309.23264-117.96992-427.20256 0-117.96992 117.9648-117.96992 309.23264 0 427.20256z m7.23968-7.23968c-113.9712-113.9712-113.9712-298.752 0-412.7232 113.9712-113.9712 298.752-113.9712 412.7232 0 113.9712 113.9712 113.9712 298.752 0 412.7232-113.9712 113.9712-298.752 113.9712-412.7232 0z"  horiz-adv-x="1024" />

    
    <glyph glyph-name="gemstone" unicode="&#58893;" d="M554.116458 646.368159l14.152597 127.363184H456.556259l14.152597-127.363184h83.407602z m10.250189 0h74.395383l63.681592 127.363184h-123.924378l-14.152597-127.363184z m61.205652 219.064677H399.258109l54.338229-81.512438h117.642826l54.338229 81.512438z m9.608278-3.958448L583.476219 783.920398h116.333532L635.180577 861.474388zM460.458667 646.368159l-14.152597 127.363184H321.556378l63.681592-127.363184h75.220697zM389.272836 862.024597L324.190249 783.920398h117.153751L389.27793 862.024597zM373.846607 646.368159L307.266229 779.528915 387.347104 875.621891h249.305792l80.080875-96.092976L650.153393 646.368159h0.611343l124.204577-124.209671c145.244975-145.234786 145.244975-380.71403 0-525.948816-145.229692-145.234786-380.708935-145.234786-525.943721 0-145.234786 145.234786-145.234786 380.71403 0 525.948816L373.235264 646.368159h0.611343z m271.212259-10.189055H377.458627L256.229254 514.954826c-141.25596-141.261055-141.25596-370.280438 0-511.541493 141.261055-141.25596 370.280438-141.25596 511.541492 0 141.25596 141.261055 141.25596 370.280438 0 511.541493L646.541373 636.179104h-1.482507zM299.461413 471.727761c117.37791 117.37791 307.694169 117.37791 425.077174 0 117.383005-117.3881 117.383005-307.699264 0-425.087363-117.37791-117.37791-307.694169-117.37791-425.077174 0-117.383005 117.3881-117.383005 307.699264 0 425.087363z m7.203662-7.208756c-113.404179-113.404179-113.404179-297.265672 0-410.669851 113.404179-113.404179 297.265672-113.404179 410.66985 0 113.404179 113.404179 113.404179 297.265672 0 410.669851-113.404179 113.404179-297.265672 113.404179-410.66985 0z"  horiz-adv-x="1024" />

    
    <glyph glyph-name="blackgou" unicode="&#58891;" d="M0 896h950.857143L0-54.85714299999995zM268.653714 576.749714l99.035429 99.035429 27.52-27.501714-126.537143-126.537143-77.037714 77.019428 27.501714 27.501715z"  horiz-adv-x="1024" />

    
    <glyph glyph-name="arrowleft" unicode="&#58892;" d="M346.496 384l316.8-316.8-45.248-45.248-316.8 316.8L256 384 618.048 746.048l45.248-45.28-316.8-316.768z"  horiz-adv-x="1024" />

    
    <glyph glyph-name="cart" unicode="&#58894;" d="M256.832 672H928l-96-480H341.664l-38.4-96H832a64 64 0 1 0-64-64H320a64 64 0 1 0-87.424 59.584l50.336 125.856-55.264 276.384-0.64-0.128L172.48 768H32V832h192.992l31.84-160z m0 0l12.704-64h0.544l-12.8 64h-0.448z m83.648-416h439.04l70.4 352H270.08l70.4-352z"  horiz-adv-x="1024" />

    
    <glyph glyph-name="diamond" unicode="&#58895;" d="M614.592 601.344A137.216 137.216 0 0 1 512 563.9936a137.216 137.216 0 0 1-102.592 37.3504C314.624 601.344 164.544 375.424 512 166.39999999999998c347.456 209.024 197.3632 434.944 102.592 434.944z m79.8592-97.984l-71.7696-58.0864V575.5008a113.408 113.408 0 0 0 71.7696-72.1408z m-132.672-12.288a80.7168 80.7168 0 0 1-27.7888-4.864l77.312 79.0656v-113.088a60.4928 60.4928 0 0 1-49.5232 37.6064v1.28z m-50.5344-195.968c-99.3152 61.9008-96.5376 119.2192-90.7264 141.2224a53.1328 53.1328 0 0 0 41.4464 41.4464 55.424 55.424 0 0 0 40.4352-13.824l9.344-10.752 9.6 10.496a55.168 55.168 0 0 0 40.448 13.824 53.1584 53.1584 0 0 0 41.6896-42.4704c5.0432-22.016 7.8336-79.3216-91.4816-141.2352l-0.768 1.28z m-50.5472 195.968a59.84 59.84 0 0 1-45.7344-38.8864v110.784l77.824-79.5648a80.512 80.512 0 0 1-30.8224 6.4l-1.2672 1.28z m-55.5904-71.6416a116.7232 116.7232 0 0 1 28.544-74.7008l-82.8672 8.192 54.3232 66.5088z m97.28-133.2864l-32.5888-45.7984-10.112 76.7488a325.0816 325.0816 0 0 1 42.7136-30.9504z m65.7152 33.5104l-10.368-79.3088-33.1008 46.5664a318.336 318.336 0 0 1 42.2016 32.4864l1.2672 0.256z m50.5344 100.032l56.3584-66.5216-85.1584-9.728a116.2496 116.2496 0 0 1 27.5328 76.2496h1.28z m-15.1552 155.5584l-85.9264-88.0128v46.0544l12.6336 13.824a111.9104 111.9104 0 0 0 73.2928 28.1344z m-98.56-42.4704v-44.2624l-83.8912 86.4768a111.6672 111.6672 0 0 0 71.7696-27.8784l12.1216-14.336z m-103.6032 41.9584v-130.4832l-71.7696 59.1104a111.8592 111.8592 0 0 0 71.7696 71.3728z m-75.8144-85.7088l75.8144-60.3776-58.624-66.2656a176.1408 176.1408 0 0 0-17.1904 126.6432z m30.08-149.4144l88.704-10.24 12.1216-93.632a417.4336 417.4336 0 0 0-100.8256 103.872z m116.736-115.904l39.168 55.2704 41.4464-54.5024c-12.6336-8.96-25.2672-17.9072-40.4352-27.1104a578.3296 578.3296 0 0 0-39.9232 26.3424h-0.256z m96.5376 13.056l11.8784 92.6208 87.168 9.984a415.6928 415.6928 0 0 0-99.0464-102.6048z m112.704 126.3872l-56.3584 66.7776 73.536 59.3536c10.24-42.624 4.1856-87.5776-16.9216-125.8752l-0.256-0.256z"  horiz-adv-x="1024" />

    
    <glyph glyph-name="diamond1" unicode="&#58896;" d="M512 601.6c-120.1792 0-217.6-97.4208-217.6-217.6s97.4208-217.6 217.6-217.6 217.6 97.4208 217.6 217.6a217.6 217.6 0 0 1-217.6 217.6z m192.2048-217.6a191.4496 191.4496 0 0 0-5.3248-43.6736l-40.1152 40.1152 41.3824 41.3952c2.496-12.3776 3.776-24.96 3.8016-37.5808l0.256-0.256z m-375.0144-58.6496l46.208 45.952 33.7664-33.7664v-48h-64.2432a190.9376 190.9376 0 0 0-15.744 35.8144z m-9.3952 58.9056c0.2944 12.992 1.92 25.92 4.8256 38.592l41.6384-42.4064-41.6384-40.8704a191.4496 191.4496 0 0 0-4.8256 44.672z m376.7936 50.7776l-46.72-46.72-34.0224 34.0224v48.7552h67.0336c5.696-11.1232 10.2912-22.7712 13.7088-34.7904v-1.2672zM421.6064 416.768l53.0688 53.0688h76.1728l53.0688-51.8016v-76.16l-53.0688-53.0816h-76.1728l-53.0688 53.0688V416.768z m-12.6976-62.464l-25.3824 25.3952 25.3824 25.3824v-50.7776z m206.9376 50.7776l25.3952-25.3824-25.3952-25.3952v50.7776z m-11.9296 30.976l-35.2896 35.3024h35.2896v-35.2896z m-48 48l-34.5216 33.7664 49.2544 49.2544c11.5072-3.584 22.6432-8.2688 33.2672-13.952v-69.3248l-48 0.256z m-18.0224 0h-50.7776l25.3952 25.3824 25.3824-25.3824z m-67.7888 0h-48.4992V553.6c10.624 5.696 21.76 10.368 33.2672 13.952l47.488-49.7536-32.256-33.7664z m-12.6976-12.6976l-35.2896-35.2896v35.0336l35.2896 0.256z m-47.9872-48l-34.0224-34.0096-48 47.7312c3.392 11.7504 7.8976 23.1424 13.4656 34.0224h68.3008l0.256-47.744z m12.6976-98.5088l35.2896-35.2896h-35.8016l0.512 35.2896z m47.488-48.4992l32.7424-33.2544-42.4064-42.9184a190.9376 190.9376 0 0 0-38.336 15.232V276.352h48z m18.0224 0h50.7776l-25.3952-25.3824-25.3824 25.3824z m67.7888 0h48.4992v-61.696c-12.1856-6.528-25.0368-11.7248-38.336-15.488l-43.4304 43.4176 33.28 33.7664z m12.6976 12.6976l35.8016 35.8016v-35.2896l-35.8016-0.512z m47.9872 48l34.0224 34.0096 44.9408-43.9168a190.9376 190.9376 0 0 0-14.976-37.5808h-63.9872v47.488z m59.9168 146.24h-59.9168v62.208a193.2288 193.2288 0 0 0 59.6736-61.696l0.256-0.512zM556.6848 570.88l-44.1728-44.1856-44.4416 44.4416a185.6 185.6 0 0 0 88.6144 0v-0.256z m-147.52-25.3952v-62.208h-61.184a193.2288 193.2288 0 0 0 60.928 62.976l0.256-0.768zM352.5504 276.352h56.3584v-54.592a193.4848 193.4848 0 0 0-56.3584 54.592z m121.6128-80.9984l38.0928 38.0928 38.08-38.0928a191.9616 191.9616 0 0 0-76.16 0z m141.696 27.1744v53.824h55.3472a193.4848 193.4848 0 0 0-55.104-53.312l-0.256-0.512z"  horiz-adv-x="1024" />

    
    <glyph glyph-name="diamond2" unicode="&#58897;" d="M294.4 601.6v-435.2h435.2V601.6H294.4z m82.176-360.192v24.064L412.672 320l14.848-23.808a6.4 6.4 0 0 1 2.304-2.048l27.648-15.616-57.088-37.12h-23.808z m5.12-12.8l-53.504-35.328 35.584 53.504v-18.176h17.92z m-17.92 275.712l-41.472 62.464 59.904-39.68h-18.432v-22.784z m12.8 9.984h25.6l54.016-35.84-24.32-15.104v-1.28c0-1.28 0 0 0 0l-16.64-29.952-35.584 53.504-3.072 28.672z m207.36-62.464l18.432-29.952v-84.48l-19.712-35.328-29.952-18.432h-76.8l-37.376 20.992-18.432 29.952v82.944l20.224 36.096 29.952 18.432h79.36l34.304-20.224z m-31.488 32.768h-83.456l-44.544 29.696h172.544l-44.544-29.696z m-146.432-67.584v-83.456l-29.696-44.544v172.8l29.696-44.8z m62.72-146.176h83.456l44.544-29.696H424.192l44.544 29.696z m97.536 6.144l25.6 15.104a6.144 6.144 0 0 1 2.048 2.048l16.64 29.44 39.936-60.416v-22.272h-30.464l-53.76 36.096z m48.896 61.44v83.456l34.304 51.2v-186.88l-34.304 52.224z m-6.144 97.28l-15.104 25.6h-1.28c-1.28 0 0 0 0 0l-26.88 15.104 55.552 36.864h29.184v-17.408l-41.472-60.16z m30.72 91.392l53.248 35.328-30.72-46.336v11.008h-22.528z m-23.296 0h-211.2L331.52 576h358.4l-73.472-48.896zM320 547.072l43.776-65.792v-211.456L320 203.77599999999995V547.072z m84.736-318.464h211.2l56.576-37.632H349.184l55.552 37.632z m234.496 0h23.04V244.48000000000002l35.328-53.504h-1.792l-56.576 37.632z m23.04 38.912V493.056l42.496 64.256v-354.048l-42.496 64.256z"  horiz-adv-x="1024" />

    
    <glyph glyph-name="player" unicode="&#58898;" d="M793.408 384L322.784 652.928v-537.856L793.408 384zM256 0V768l672-384L256 0z"  horiz-adv-x="1024" />

    
    <glyph glyph-name="diamond3" unicode="&#58899;" d="M627.2 640H396.8l-76.8-78.5792v-380.6464L379.392 115.20000000000005h265.216L704 180.7744V561.152L627.2 640z m-49.408-89.0368H446.72l-33.024 66.5856h196.352l-32.256-66.5856z m-131.328-11.2256h131.072l40.704-45.1584v-242.88l-30.208-36.224H435.968l-30.208 36.224V494.5792l40.704 45.1584z m-10.496-335.488h151.296l40.96-66.5984h-230.4l38.144 66.5856z m161.28 5.0944l25.6 32.1408 57.088-51.0208-41.472-48.2176-41.216 67.0976z m33.024 42.6112V494.8352l51.2 47.9616v-338.048l-51.2 47.2064z m48.64 303.6032l-54.272-51.0336-37.12 40.832 33.536 68.864 57.856-58.6624z m-276.224 58.4192l34.048-68.3776-36.864-41.0752-56.064 48.9856 58.88 60.4672z m-8.192-119.9104v-244.672l-51.2-51.0208V539.7375999999999l51.2-45.6704zM345.856 185.60000000000002l54.016 54.3488 25.6-30.1056-39.936-68.6336-39.68 44.3904z"  horiz-adv-x="1024" />

    
    <glyph glyph-name="diamond4" unicode="&#58900;" d="M513.792 652.8H512c-1.536 0-153.6-14.4896-153.6-207.0656 0-187.9168 140.544-318.6304 146.688-324.0576L512 115.20000000000005l6.912 6.4768C524.8 127.10400000000004 665.6 257.81759999999997 665.6 445.7344 666.624 638.0416 515.328 652.544 513.792 652.8z m0-380.4928a237.5296 237.5296 0 0 0-68.352 155.3024c0 86.4512 62.208 95.2576 68.352 96.0256 6.144 0.7808 68.352-9.5744 68.352-96.0256a238.0288 238.0288 0 0 0-69.12-155.5584l0.768 0.256z m78.848 155.3024V453.504l51.2-25.8816-54.528-32.0896a195.712 195.712 0 0 1 2.56 31.8336l0.768 0.256z m-68.096 103.5392l63.232 61.8624-4.096-115.968a88.4224 88.4224 0 0 1-59.904 54.8864l0.768-0.7808z m-82.176-56.6912l-4.096 117.5168 62.976-61.3504a88.448 88.448 0 0 1-59.648-55.3856l0.768-0.768z m-8.704-48.9088c0.256-10.0736 1.28-20.1216 3.072-30.0288l-54.784 29.248 51.2 25.8816 0.512-25.1008z m3.328-42.9696l10.24-153.2288a426.7264 426.7264 0 0 0-64.256 181.184l54.016-27.9552z m21.76-171.3536l-9.216 140.032a268.6976 268.6976 0 0 1 56.576-87.232l-46.336-53.8368-1.024 1.0368z m117.504 135.8848l-9.216-137.4336-46.336 53.8368a268.4416 268.4416 0 0 1 54.784 84.3776l0.768-0.768z m12.8 36.2368l55.552 29.7728a427.2384 427.2384 0 0 0-66.048-186.368l10.496 156.5952z m57.088 61.0944v-8.0256l-51.2 25.8816 4.352 124.5056a196.5568 196.5568 0 0 0 46.336-141.5936l0.512-0.768z m-133.12 186.88a145.344 145.344 0 0 0 67.072-28.736L512 535.0272l-68.352 67.5584a145.0496 145.0496 0 0 0 69.376 28.736z m-86.528-44.5184l4.352-123.9936-51.2-25.8816v8.5504a197.5936 197.5936 0 0 0 46.848 141.312z m85.76-442.88a504.256 504.256 0 0 0-47.616 57.728l47.36 55.1296 47.616-55.3856a504.1408 504.1408 0 0 0-46.592-57.472h-0.768z"  horiz-adv-x="1024" />

    
    <glyph glyph-name="diamond5" unicode="&#58901;" d="M736.2176 508.5056a150.4768 150.4768 0 0 1-112.5632 96.0768c-34.688 6.9632-70.016 10.24-105.3952 9.728-37.1456 0.7168-74.24-2.9824-110.5152-11.008a150.7584 150.7584 0 0 1-110.0032-100.1728 388.3904 388.3904 0 0 1-15.872-125.5296 442.5344 442.5344 0 0 1 12.544-115.8016c12.8-57.4592 59.1616-101.3632 117.1712-110.9248 35.0848-7.2064 70.8608-10.56 106.6752-9.984a483.328 483.328 0 0 1 106.9312 9.984 144.3584 144.3584 0 0 1 113.8304 102.4768 393.0112 393.0112 0 0 1 15.616 124.7616 333.4912 333.4912 0 0 1-18.432 130.3936z m-21.504-248.2432v-2.048l-26.8544 43.0336 40.6784 51.2384a311.68 311.68 0 0 0-13.312-90.432l-0.512-1.792zM518.272 166.2464l-100.8 75.0592 102.336 27.9296 102.3232-27.9296-100.7872-75.0592h-3.072z m-199.296 102.4768a365.056 365.056 0 0 0-10.9952 83.7632l40.6784-51.2384-25.5744-43.5456c-1.792 3.584-3.072 7.68-3.84 10.496l-0.256 0.512z m4.352 230.5664l25.6-40.2304-40.6912-54.0544a307.84 307.84 0 0 0 13.568 89.408c0.512 1.536 1.28 1.536 1.792 4.096l-0.256 0.768z m31.9872-186.24l-47.5904 59.9296v9.9968l47.5904 63.5392 41.1776-67.6352-41.1776-65.8432z m163.2 275.392h5.632l95.936-71.4752-102.3232-27.9296-102.336 27.9296 95.936 71.4752h7.168z m-109.2224-307.4304l75.4688-8.448-76.7488-21.0048 1.28 29.4528z m219.2384-29.1968l-76.7488 20.992 75.4688 8.4608 1.28-29.4528z m-110.0032 30.2208l-108.9792 12.0448 1.792 83.264v3.328l-1.792 83.264 108.9792 12.032 108.9792-12.032-1.792-83.264v-3.072l1.792-83.264-108.9792-12.288z m109.2352 194.1888l-75.4688 8.448 76.7488 21.0176-1.28-29.4656z m-219.2384 29.7216l76.7488-21.0048-75.4688-8.448-1.28 29.4528z m304.9344-8.448a261.1456 261.1456 0 0 0 15.3472-92.4928l-40.9344 53.2864 25.5872 39.7184v-0.512z m-31.4624-51.2384l47.3216-63.7952v-9.984L680.96 312.51199999999994l-40.1664 66.0992 41.1904 67.6352z m25.5744 65.8304l-68.5568-110.9248 3.584 171.648a127.9872 127.9872 0 0 0 64.2048-60.4672l0.768-0.256z m-76.7488 64.0512v-51.2384l-82.624 61.4912c24.3328-0.6784 48.5632-3.5072 72.3968-8.448 1.792 0.768 5.376-0.512 9.216-1.536l1.024-0.256z m-216.6784 2.048a387.0336 387.0336 0 0 0 76.7488 9.472l-82.624-61.4784v49.9584l5.888 2.048z m-19.6864-5.376l3.328-170.624-68.0576 110.9376a125.9264 125.9264 0 0 0 64.7296 59.6864z m-66.2656-329.9712l69.5808 114.2656-3.584-175.232a119.0272 119.0272 0 0 0-65.9968 60.9664z m78.2848-64.8192v53.7984l87.488-65.0624a421.0048 421.0048 0 0 0-79.0528 8.96c-1.536 0.512-4.608 1.536-8.448 2.304z m213.0944-2.304a408.7424 408.7424 0 0 0-78.7968-8.96l87.5008 65.0624v-53.7984l-8.704-2.304z m22.2592 6.4l-3.584 174.976 69.3248-113.9968a119.0272 119.0272 0 0 0-64.9728-60.9664h-0.768z"  horiz-adv-x="1024" />

    
    <glyph glyph-name="share" unicode="&#58902;" d="M820.064 626.752L205.248 11.936000000000035 160 57.18399999999997 774.816 672H372.064V736h512v-512h-64V626.752z"  horiz-adv-x="1024" />

    
    <glyph glyph-name="screen" unicode="&#58903;" d="M529.792 499.68L122.496 92.38400000000001l90.528-90.496 407.296 407.296-90.528 90.496z m0 90.528l181.024-181.024L213.024-88.63999999999999 32 92.38400000000001 529.792 590.2080000000001z m316.8 181.024l45.248-45.28-135.776-135.744-45.248 45.248L846.592 771.2zM167.776 725.952l45.248 45.28 135.744-135.776-45.248-45.248-135.744 135.744zM891.84 92.38400000000001l-45.248-45.248-135.776 135.776 45.248 45.248 135.776-135.776zM497.792 889.184h64v-192h-64v192z m512-448v-64h-192v64h192z"  horiz-adv-x="1024" />

    
    <glyph glyph-name="diamond6" unicode="&#58904;" d="M512 652.8c-1.792 0-177.152-3.0976-179.2-269.056C337.664 118.29759999999999 510.208 115.20000000000005 512 115.20000000000005c1.792 0 174.336 3.0976 179.2 268.544C689.152 649.7024 513.792 652.8 512 652.8z m155.904-232.3968l-84.736 49.5872v1.792l16.384 121.6256c30.72-28.6592 61.184-80.3072 68.352-173.0048zM354.56 384v23.7568l78.336 45.696A201.1776 201.1776 0 0 1 422.144 384a199.296 199.296 0 0 1 13.568-73.6l-80.128 47.7824c-0.512 7.488-1.024 16.512-1.024 25.8176zM512 260.31359999999995s-76.8 1.5488-78.848 123.6864a174.5408 174.5408 0 0 0 15.872 77.4656l2.56 4.9024a76.8256 76.8256 0 0 0 54.016 38.4768h7.68a76.8 76.8 0 0 0 54.016-37.696v-1.5488l2.048-3.8784v-1.28h2.048a175.3216 175.3216 0 0 0 15.616-77.4784c1.792-120.832-71.936-122.6496-75.008-122.6496z m13.312 256.4096l61.44 68.9408-13.568-100.1856a88.2432 88.2432 0 0 1-48.128 31.232h0.256z m-74.24-32.2816l-13.568 101.2224 61.44-68.9408a88.7936 88.7936 0 0 1-47.872-32.2816z m0-200.6272a88 88 0 0 1 49.92-32.7936l-63.744-71.7824 13.824 104.576z m121.856 0l13.824-103.296-64 70.5024a87.4752 87.4752 0 0 1 49.664 31.7568l0.512 1.024zM601.856 384a201.6896 201.6896 0 0 1-11.008 68.6848l76.8-45.44v-48.8064l-79.872-46.4768A200.064 200.064 0 0 1 601.856 384z m-14.848 218.7008l-74.752-83.9168h-1.536l-74.24 83.4048a137.28 137.28 0 0 0 75.52 28.672c27.2128-1.6896 53.3248-11.4944 75.008-28.16z m-161.536-10.0608l16.384-122.1376-85.76-49.5744c6.912 90.88 36.864 142.528 69.376 171.712z m-68.864-248.9216L441.088 294.4l-15.616-118.272c-31.232 28.928-60.416 78.7712-68.864 167.5904z m81.664-178.688l72.96 82.112 73.472-82.368a133.9648 133.9648 0 0 0-72.96-27.3664 134.4768 134.4768 0 0 0-73.216 27.6224h-0.256zM597.76 175.36L581.888 294.4l85.248 49.8304c-8.192-89.344-36.864-140.9792-69.12-168.8704h-0.256z"  horiz-adv-x="1024" />

    
    <glyph glyph-name="diamond7" unicode="&#58905;" d="M518.4 663.5008a11.2128 11.2128 0 0 1-13.056 0C498.688 658.8672 345.6 547.5840000000001 345.6 377.5488c0-170.0096 159.744-285.9392 161.28-286.72a11.2 11.2 0 0 1 10.24 0c1.536 0 161.28 115.9296 161.28 286.72 0 170.8032-153.344 281.3184-160 285.952z m-102.4-440.512l83.712 25.7664-40.96-82.176a421.184 421.184 0 0 0-42.752 56.4096z m25.6 178.5216l-55.296 59.52 73.216-13.4016a143.7696 143.7696 0 0 1-17.664-45.8624l-0.256-0.256z m-73.728-23.9488c0.0384 25.3056 3.7504 50.4704 11.008 74.7008l60.672-65.4336v-15.7184l-61.184-65.9456a261.4528 261.4528 0 0 0-9.984 72.6528l-0.512-0.256z m90.368-67.2384l-71.936-13.4016 54.784 59.008a141.696 141.696 0 0 1 17.664-45.3504l-0.512-0.256z m41.472-49.2032l-82.688-25.7664 51.2 62.08a205.7088 205.7088 0 0 1 31.488-36.3136z m12.032 4.6336a156.3776 156.3776 0 0 0-60.672 112.064 156.8768 156.8768 0 0 0 61.184 111.7952 156.6208 156.6208 0 0 0 61.184-111.7952 156.1088 156.1088 0 0 0-61.44-112.064h-0.256z m51.2 181.8752l72.448 13.3888-53.76-58.4704a144 144 0 0 1-17.92 45.3376l-0.768-0.256z m18.432-92.48l54.016-58.2272-70.912 13.1456a141.44 141.44 0 0 1 17.664 45.3376l-0.768-0.256z m1.536 32.7168l60.416 65.1648a256.8192 256.8192 0 0 0 0-148.8896l-60.928 65.6896v7.4752c0 2.56 1.792 7.4624 1.28 10.816l-0.768-0.256z m-13.824 72.64l47.36 58.2144a328.3328 328.3328 0 0 0 21.248-44.8128l-68.608-13.4016z m-14.848 0a201.9584 201.9584 0 0 1-34.048 36.3264l84.48 25.7536-50.432-62.08z m-87.04 0l-51.2 63.3728 85.248-25.7664a202.112 202.112 0 0 1-33.024-38.3744l-1.024 0.768z m-60.16 56.6784l45.568-56.4224-66.56 12.3648a328.32 328.32 0 0 0 20.992 44.0576z m45.568-219.4816l-46.592-57.9712a326.0672 326.0672 0 0 0-20.736 45.3504l67.328 12.6208z m102.4 0l49.664-62.336-81.92 25.7536a201.664 201.664 0 0 1 33.792 35.2896l-1.536 1.28z m60.928-57.1904l-47.36 58.4704 68.352-12.6208a326.7584 326.7584 0 0 0-19.456-47.1424l-1.536 1.28z m-9.728 294.7072l-83.2-25.7664 40.448 81.408a423.1936 423.1936 0 0 0 42.752-55.6416zM512 639.7952a439.8464 439.8464 0 0 0 43.264-40.1792l-43.776-88.1024-43.52 87.3344a442.4192 442.4192 0 0 0 44.032 40.96z m-51.2-49.9712l38.912-80.64-82.176 25.7664a423.9616 423.9616 0 0 0 42.24 54.8736H460.8z m51.2-474.2528a440.1664 440.1664 0 0 0-45.056 42.496l44.544 89.3952 44.8-90.1632A440.4096 440.4096 0 0 0 512 115.58399999999995z m52.48 50.2272l-41.472 83.4688 84.736-25.7664a421.7344 421.7344 0 0 0-43.264-57.7024z"  horiz-adv-x="1024" />

    
    <glyph glyph-name="diamond8" unicode="&#58906;" d="M661.1584 601.6H363.8656L294.4 526.6432v-283.7632L363.8656 166.39999999999998h297.2928L729.6 242.88V519.2447999999999L661.1584 601.6z m-5.632-306.7008V468.2624l47.7696 28.288v-230.72l-47.7568 29.056zM319.9488 502.4256l45.2096-29.312h1.536l2.048-3.84v-173.6192l-48.7936-29.568V502.4256z m193.088-220.8l65.8944-28.032H449.4336l63.5904 28.032z m-86.3232-25.472v25.472h58.7392l-58.752-25.472z m116.9664 25.472h60.544v-25.472l-60.544 25.472zM512.512 294.91200000000003l-86.8352 1.536V468.2496h179.0336v-170.304l-92.1984-3.072z m-102.1568 89.2288l-29.632-62.208v120.8448l29.632-58.6368z m-26.56 84.1344h28.0832V410.88l-28.0832 57.3696z m28.3392-110.656v-59.904h-29.1072l29.1072 59.904z m99.6096 124.16l-67.4304 34.688h136.896l-69.4656-34.688z m92.7104 30.848v-33.1392h-67.4304l67.4304 33.152zM485.44 480h-59.776v30.848l59.776-30.848zM617.216 414.464v52.2624h23.744l-23.744-52.2624z m0-59.648l25.536-57.6256h-25.536v57.6128z m0 29.824l25.536 57.1008v-118.0416l-25.536 60.928z m0 94.592v21.9136l18.3808-21.9264h-18.3808z m-10.7264 48.6912H420.5696a6.1056 6.1056 0 0 1 0 3.5712l-30.656 44.608h247.488l-30.8992-48.1792z m-194.368-48.192h-25.536l25.536 25.4976v-25.4976z m1.536-195.8016v-23.1936l-21.4528 23.4496 21.4528-0.256z m9.9584-43.0848h183.8848l29.888-48.1792H389.4144l34.2144 48.1792z m193.6 43.0848h16.0896l-16.0896-17.8432v17.8432z m86.5792 227.6736l-52.352-31.104-34.4832 40.5376 33.7152 53.2864 53.12-62.72z m-329.216 63.744L409.6 524.3392l-36.7744-41.5616-51.0848 33.664 52.864 58.88z m-53.888-323.5328l53.888 31.872h2.048l34.4832-37.4912-36.2752-50.9824-54.144 56.6016z m330.24-57.6256l-33.4592 54.0544 31.9232 35.1744 53.12-31.872-51.584-57.344z"  horiz-adv-x="1024" />

    
    <glyph glyph-name="search" unicode="&#58907;" d="M719.04 245.24800000000005l209.056-217.472-46.112-44.352-209.024 217.44A334.56 334.56 0 0 0 464 128C278.432 128 128 278.432 128 464S278.432 800 464 800 800 649.568 800 464c0-83.52-30.496-159.968-80.96-218.752zM464 192a272 272 0 1 1 0 544 272 272 0 0 1 0-544z"  horiz-adv-x="1024" />

    
    <glyph glyph-name="next" unicode="&#58908;" d="M768 384L341.333333 640v-512z"  horiz-adv-x="1024" />

    
    <glyph glyph-name="prev" unicode="&#58909;" d="M256 384l426.666667 256v-512z"  horiz-adv-x="1024" />

    
    <glyph glyph-name="quit" unicode="&#58912;" d="M693.034667 172.79999999999995l-60.373334-60.330667L361.130667 384l271.530666 271.530667 60.373334-60.330667-211.2-211.2z"  horiz-adv-x="1024" />

    
    <glyph glyph-name="arrow_right" unicode="&#58910;" d="M327.04 67.20000000000005l90.56-90.496L824.96 384 417.6 791.296 327.104 700.8 643.84 384z"  horiz-adv-x="1024" />

    
    <glyph glyph-name="weixinlogo" unicode="&#58913;" d="M816.725333 285.952a42.005333 42.005333 0 0 1 41.962667 42.026667c0 23.253333-18.773333 42.069333-41.962667 42.069333a42.005333 42.005333 0 0 1-41.941333-42.048c0-23.232 18.773333-42.048 41.941333-42.048z m-204.8 0a42.005333 42.005333 0 0 1 41.962667 42.026667c0 23.253333-18.773333 42.069333-41.962667 42.069333a42.005333 42.005333 0 0 1-41.941333-42.048c0-23.232 18.773333-42.048 41.941333-42.048zM494.72 529.6a49.408 49.408 0 0 1 49.365333 49.472 49.408 49.408 0 0 1-49.365333 49.493333 49.408 49.408 0 0 1-49.344-49.493333 49.408 49.408 0 0 1 49.344-49.472z m-247.978667 0a49.408 49.408 0 0 1 49.365334 49.472 49.408 49.408 0 0 1-49.365334 49.493333 49.408 49.408 0 0 1-49.344-49.493333 49.408 49.408 0 0 1 49.344-49.472zM837.546667 0.0426670000000513a21.824 21.824 0 0 1-17.28 1.984 363.093333 363.093333 0 0 0-105.301334-15.402667c-170.666667 0-309.034667 115.733333-309.034666 258.496 0 142.762667 138.346667 258.496 309.034666 258.496C885.632 503.616 1024 387.882667 1024 245.12c0-78.848-42.218667-149.461333-108.778667-196.864a15.808 15.808 0 0 1-6.101333-16.896l14.549333-55.637333c4.352-16.64-4.245333-23.210667-19.093333-14.592l-67.050667 38.912zM246.186667 187.712c39.104-11.669333 81.258667-18.026667 125.162666-18.026667 6.698667 0 13.354667 0.149333 19.968 0.426667a237.610667 237.610667 0 0 0-12.565333 76.245333c0 155.733333 152.170667 282.005333 339.904 282.005334 6.549333 0 13.077333-0.149333 19.541333-0.448C710.357333 676.032 556.714667 789.333333 371.349333 789.333333 166.250667 789.333333 0 650.624 0 479.509333c0-94.08 50.24-178.346667 129.557333-235.157333 7.466667-5.333333 10.88-14.741333 8.512-23.637333l-17.450666-65.28c-5.269333-19.712 4.8-27.434667 22.378666-17.130667l79.509334 46.528a29.930667 29.930667 0 0 0 23.68 2.88z"  horiz-adv-x="1024" />

    
    <glyph glyph-name="wenben" unicode="&#58939;" d="M839.647708-120.974416H184.352292a98.358181 98.358181 0 0 0-97.719492 98.358182V788.519417A98.358181 98.358181 0 0 0 184.352292 886.877598h383.213694a97.080802 97.080802 0 0 0 63.868948-24.90889l275.27517-243.979385a95.803423 95.803423 0 0 0 32.573164-72.810602v-567.794955a98.358181 98.358181 0 0 0-99.63556-98.358182zM184.352292 821.092581a32.573164 32.573164 0 0 1-32.573164-32.573164v-811.135651a32.573164 32.573164 0 0 1 32.573164-32.573164h655.295416a32.573164 32.573164 0 0 1 32.573164 32.573164V545.178721a30.657095 30.657095 0 0 1-10.857722 23.631512l-274.63648 243.979384a35.127922 35.127922 0 0 1-21.715442 8.302964zM448.131051 541.346584H288.458679a33.211853 33.211853 0 0 0 0 63.868949H448.131051a33.211853 33.211853 0 1 0 0-63.868949zM667.840235 348.462359H288.458679a32.573164 32.573164 0 0 0 0 63.868949h379.381556a32.573164 32.573164 0 0 0 0-63.868949zM667.840235 154.939444H288.458679a33.211853 33.211853 0 0 0 0 63.868949h379.381556a33.211853 33.211853 0 0 0 0-63.868949zM883.078593 536.875758h-319.344744a32.573164 32.573164 0 0 0-33.211854 32.573164V853.665745a33.211853 33.211853 0 1 0 63.868949 0v-251.643659h285.494202a32.573164 32.573164 0 1 0 0-63.868949z"  horiz-adv-x="1024" />

    


  </font>
</defs>
</svg>
