<?xml version="1.0" encoding="UTF-8"?>
<svg width="200px" height="200px" viewBox="0 0 200 200" version="1.1" xmlns="http://www.w3.org/2000/svg" xmlns:xlink="http://www.w3.org/1999/xlink">
    <!-- Generator: Sketch 56.2 (81672) - https://sketch.com -->
    <title>编组 5备份</title>
    <desc>Created with Sketch.</desc>
    <defs>
        <linearGradient x1="82%" y1="100%" x2="18%" y2="1.72254642e-14%" id="linearGradient-1">
            <stop stop-color="#5A4668" offset="0%"></stop>
            <stop stop-color="#D29991" offset="100%"></stop>
        </linearGradient>
    </defs>
    <g id="Page-2" stroke="none" stroke-width="1" fill="none" fill-rule="evenodd">
        <g id="编组-5备份">
            <rect id="矩形" fill="#FFFFFF" opacity="0" x="0" y="0" width="200" height="200"></rect>
            <g id="编组-2" transform="translate(40.000000, 25.000000)" fill="url(#linearGradient-1)">
                <path d="M88,2 L2,2 L2,148 L118,148 L118,32 L88,32 L88,2 Z M90,2.82842712 L90,30 L117.171573,30 L90,2.82842712 Z M0,0 L90,0 L120,30 L120,150 L0,150 L0,0 Z M28,56 L92,56 L92,58 L28,58 L28,56 Z M28,78 L92,78 L92,80 L28,80 L28,78 Z M28,100 L76,100 L76,102 L28,102 L28,100 Z" id="形状结合"></path>
            </g>
        </g>
    </g>
</svg>