<?xml version="1.0" encoding="UTF-8"?>
<svg width="160px" height="36px" viewBox="0 0 160 36" version="1.1" xmlns="http://www.w3.org/2000/svg" xmlns:xlink="http://www.w3.org/1999/xlink">
    <!-- Generator: Sketch 56.2 (81672) - https://sketch.com -->
    <title>编组 4</title>
    <desc>Created with Sketch.</desc>
    <g id="Page-2" stroke="none" stroke-width="1" fill="none" fill-rule="evenodd">
        <g id="编组-4" fill="#FFFFFF">
            <rect id="矩形" opacity="0" x="0" y="0" width="160" height="36"></rect>
            <path d="M17.672,23.416 C17.672,26.32 15.488,28.144 11.912,28.144 C9.392,28.144 7.784,27.448 6.224,25.888 L7.136,24.976 C8.672,26.512 9.944,26.992 11.984,26.992 C14.696,26.992 16.376,25.696 16.376,23.464 C16.376,22.432 16.088,21.616 15.44,21.064 C14.792,20.56 14.384,20.344 12.968,20.152 L10.976,19.84 C9.68,19.648 8.672,19.24 7.928,18.592 C7.04,17.848 6.584,16.792 6.584,15.448 C6.584,12.568 8.6,10.768 11.888,10.768 C14,10.768 15.344,11.344 16.808,12.616 L15.968,13.456 C14.96,12.496 13.832,11.872 11.816,11.872 C9.32,11.872 7.856,13.216 7.856,15.4 C7.856,16.384 8.144,17.128 8.744,17.632 C9.344,18.136 10.328,18.52 11.288,18.688 L13.136,18.976 C14.744,19.192 15.488,19.504 16.184,20.104 C17.12,20.872 17.672,22.048 17.672,23.416 Z M29.096,28 L29.096,20.824 C29.096,18.592 27.992,17.368 25.904,17.368 C23.816,17.368 22.64,18.616 22.64,20.824 L22.64,28 L21.416,28 L21.416,10.912 L22.64,10.912 L22.64,17.8 C23.504,16.792 24.632,16.288 26.048,16.288 C28.712,16.288 30.32,17.92 30.32,20.608 L30.32,28 L29.096,28 Z M43.472,22.216 C43.472,23.872 43.256,25.648 42.032,26.872 C41.192,27.712 40.136,28.144 38.816,28.144 C37.52,28.144 36.44,27.712 35.6,26.872 C34.376,25.648 34.16,23.872 34.16,22.216 C34.16,20.56 34.376,18.784 35.6,17.56 C36.44,16.72 37.52,16.288 38.816,16.288 C40.136,16.288 41.192,16.72 42.032,17.56 C43.256,18.784 43.472,20.56 43.472,22.216 Z M42.248,22.216 C42.248,20.872 42.176,19.312 41.216,18.352 C40.568,17.704 39.752,17.368 38.816,17.368 C37.88,17.368 37.064,17.704 36.416,18.352 C35.456,19.312 35.384,20.872 35.384,22.216 C35.384,23.56 35.456,25.12 36.416,26.08 C37.064,26.728 37.88,27.064 38.816,27.064 C39.752,27.064 40.568,26.728 41.216,26.08 C42.176,25.12 42.248,23.56 42.248,22.216 Z M56.432,22.216 C56.432,24.04 56.12,25.96 54.944,27.136 C54.344,27.736 53.336,28.144 52.112,28.144 C50.792,28.144 49.712,27.856 48.68,26.512 L48.68,33.52 L47.456,33.52 L47.456,16.432 L48.68,16.432 L48.68,17.92 C49.712,16.576 50.792,16.288 52.112,16.288 C53.336,16.288 54.344,16.696 54.944,17.296 C56.12,18.472 56.432,20.392 56.432,22.216 Z M55.208,22.216 C55.208,19.816 54.776,17.368 51.944,17.368 C49.112,17.368 48.68,19.816 48.68,22.216 C48.68,24.616 49.112,27.064 51.944,27.064 C54.776,27.064 55.208,24.616 55.208,22.216 Z M69.392,22.216 C69.392,24.04 69.08,25.96 67.904,27.136 C67.304,27.736 66.296,28.144 65.072,28.144 C63.752,28.144 62.672,27.856 61.64,26.512 L61.64,33.52 L60.416,33.52 L60.416,16.432 L61.64,16.432 L61.64,17.92 C62.672,16.576 63.752,16.288 65.072,16.288 C66.296,16.288 67.304,16.696 67.904,17.296 C69.08,18.472 69.392,20.392 69.392,22.216 Z M68.168,22.216 C68.168,19.816 67.736,17.368 64.904,17.368 C62.072,17.368 61.64,19.816 61.64,22.216 C61.64,24.616 62.072,27.064 64.904,27.064 C67.736,27.064 68.168,24.616 68.168,22.216 Z M73.376,28 L73.376,16.432 L74.6,16.432 L74.6,28 L73.376,28 Z M73.232,12.424 L73.232,10.912 L74.744,10.912 L74.744,12.424 L73.232,12.424 Z M86.936,28 L86.936,20.824 C86.936,18.592 85.832,17.368 83.744,17.368 C81.656,17.368 80.48,18.616 80.48,20.824 L80.48,28 L79.256,28 L79.256,16.432 L80.48,16.432 L80.48,17.8 C81.344,16.792 82.472,16.288 83.888,16.288 C85.16,16.288 86.192,16.648 86.96,17.392 C87.752,18.16 88.16,19.24 88.16,20.608 L88.16,28 L86.936,28 Z M100.976,28.648 C100.976,31.552 99.248,33.664 96.248,33.664 C94.52,33.664 93.632,33.208 92.432,32.128 L93.248,31.312 C94.16,32.152 94.784,32.584 96.248,32.584 C98.672,32.584 99.752,30.88 99.752,28.576 L99.752,26.512 C98.72,27.856 97.64,28.144 96.32,28.144 C95.096,28.144 94.088,27.736 93.488,27.136 C92.312,25.96 92,24.04 92,22.216 C92,20.392 92.312,18.472 93.488,17.296 C94.088,16.696 95.096,16.288 96.32,16.288 C97.64,16.288 98.72,16.576 99.752,17.92 L99.752,16.432 L100.976,16.432 L100.976,28.648 Z M99.752,22.216 C99.752,19.816 99.32,17.368 96.488,17.368 C93.656,17.368 93.224,19.816 93.224,22.216 C93.224,24.616 93.656,27.064 96.488,27.064 C99.32,27.064 99.752,24.616 99.752,22.216 Z M123.056,23.152 C122.48,26.224 120.272,28.144 117.248,28.144 C115.616,28.144 114.104,27.52 112.976,26.392 C111.416,24.832 111.392,23.296 111.392,19.456 C111.392,15.592 111.416,14.08 112.976,12.52 C114.104,11.392 115.616,10.768 117.248,10.768 C120.32,10.768 122.48,12.688 123.056,15.76 L121.736,15.76 C121.232,13.384 119.552,11.92 117.248,11.92 C116.024,11.92 114.872,12.376 114.008,13.24 C112.784,14.464 112.688,15.808 112.688,19.456 C112.688,23.104 112.784,24.448 114.008,25.672 C114.872,26.536 116.024,26.992 117.248,26.992 C119.552,26.992 121.28,25.528 121.784,23.152 L123.056,23.152 Z M134,28 L134,26.848 C133.016,27.832 132.104,28.144 130.472,28.144 C128.744,28.144 127.808,27.856 127.064,27.088 C126.512,26.536 126.224,25.696 126.224,24.832 C126.224,22.72 127.736,21.496 130.256,21.496 L134,21.496 L134,20.2 C134,18.352 133.112,17.368 130.736,17.368 C129.104,17.368 128.288,17.776 127.544,18.832 L126.656,18.064 C127.64,16.696 128.84,16.288 130.736,16.288 C133.808,16.288 135.224,17.656 135.224,20.08 L135.224,28 L134,28 Z M134,22.48 L130.4,22.48 C128.432,22.48 127.448,23.248 127.448,24.808 C127.448,26.344 128.36,27.064 130.472,27.064 C131.528,27.064 132.512,26.968 133.352,26.176 C133.784,25.768 134,25.024 134,23.968 L134,22.48 Z M146.288,18.28 C145.592,17.584 145.064,17.368 144.104,17.368 C142.112,17.368 141.008,19.024 141.008,20.872 L141.008,28 L139.784,28 L139.784,16.432 L141.008,16.432 L141.008,17.968 C141.68,16.888 143.024,16.288 144.392,16.288 C145.52,16.288 146.336,16.552 147.176,17.392 L146.288,18.28 Z M152.672,28 C150.848,28 149.888,26.728 149.888,24.976 L149.888,17.344 L148.304,17.344 L148.304,16.432 L149.888,16.432 L149.888,12.736 L151.112,12.736 L151.112,16.432 L153.728,16.432 L153.728,17.344 L151.112,17.344 L151.112,25 C151.112,26.224 151.664,26.92 152.888,26.92 L153.728,26.92 L153.728,28 L152.672,28 Z" id="ShoppingCart" fill-rule="nonzero"></path>
        </g>
    </g>
</svg>