<?xml version="1.0" encoding="UTF-8"?>
<svg width="200px" height="200px" viewBox="0 0 200 200" version="1.1" xmlns="http://www.w3.org/2000/svg" xmlns:xlink="http://www.w3.org/1999/xlink">
    <!-- Generator: Sketch 56.2 (81672) - https://sketch.com -->
    <title>编组 4</title>
    <desc>Created with Sketch.</desc>
    <g id="Page-2" stroke="none" stroke-width="1" fill="none" fill-rule="evenodd">
        <g id="P2-1-镶嵌-素金选择页hover" transform="translate(-1124.000000, -340.000000)" fill="#FFFFFF">
            <g id="编组-7" transform="translate(1004.000000, 180.000000)">
                <g id="编组-4" transform="translate(120.000000, 160.000000)">
                    <rect id="矩形" opacity="0" x="0" y="0" width="200" height="200"></rect>
                    <g id="编组-3复制" transform="translate(27.000000, 46.000000)">
                        <path d="M21.381205,21.381205 C49.8894783,-7.12706832 96.1105217,-7.12706832 124.618795,21.381205 C153.127068,49.8894783 153.127068,96.1105217 124.618795,124.618795 C96.1105217,153.127068 49.8894783,153.127068 21.381205,124.618795 C-7.12706832,96.1105217 -7.12706832,49.8894783 21.381205,21.381205 Z M22.7954185,22.7954185 C-4.93180618,50.5226433 -4.93180618,95.4773567 22.7954185,123.204581 C50.5226433,150.931806 95.4773567,150.931806 123.204581,123.204581 C150.931806,95.4773567 150.931806,50.5226433 123.204581,22.7954185 C95.4773567,-4.93180618 50.5226433,-4.93180618 22.7954185,22.7954185 Z M31.2806999,31.2806999 C54.3216331,8.2397667 91.6783669,8.2397667 114.7193,31.2806999 C137.760233,54.3216331 137.760233,91.6783669 114.7193,114.7193 C91.6783669,137.760233 54.3216331,137.760233 31.2806999,114.7193 C8.2397667,91.6783669 8.2397667,54.3216331 31.2806999,31.2806999 Z M32.6949135,32.6949135 C10.4350288,54.9547981 10.4350288,91.0452019 32.6949135,113.305087 C54.9547981,135.564971 91.0452019,135.564971 113.305087,113.305087 C135.564971,91.0452019 135.564971,54.9547981 113.305087,32.6949135 C91.0452019,10.4350288 54.9547981,10.4350288 32.6949135,32.6949135 Z" id="形状结合"></path>
                    </g>
                </g>
            </g>
        </g>
    </g>
</svg>