<?xml version="1.0" encoding="UTF-8"?>
<svg width="24px" height="24px" viewBox="0 0 24 24" version="1.1" xmlns="http://www.w3.org/2000/svg" xmlns:xlink="http://www.w3.org/1999/xlink">
    <!-- Generator: Sketch 56.2 (81672) - https://sketch.com -->
    <title>分组 18备份</title>
    <desc>Created with Sketch.</desc>
    <g id="Page-2" stroke="none" stroke-width="1" fill="none" fill-rule="evenodd">
        <g id="P5-轮播设置页hover" transform="translate(-1146.000000, -935.000000)">
            <g id="编组-11" transform="translate(960.000000, -1.000000)">
                <g id="编组-8" transform="translate(60.000000, 916.000000)">
                    <g id="分组-18备份" transform="translate(126.000000, 20.000000)">
                        <rect id="矩形" fill="#D8D8D8" opacity="0" x="0" y="0" width="24" height="24"></rect>
                        <path d="M12,22 C17.5228475,22 22,17.5228475 22,12 C22,6.4771525 17.5228475,2 12,2 C6.4771525,2 2,6.4771525 2,12 C2,17.5228475 6.4771525,22 12,22 Z" id="路径" fill="#D29991" fill-rule="nonzero"></path>
                        <path d="M12,3 C7.02931915,3 3,7.02931915 3,12 C3,16.9706809 7.02931915,21 12,21 C16.9706809,21 21,16.9706809 21,12 C21,7.02931915 16.9706809,3 12,3 Z" id="Shape" fill="#230D29"></path>
                        <polygon id="路径" fill="#FFFFFF" fill-rule="nonzero" points="10.6920769 13.4586902 16.108214 8.04255319 17.6126965 9.5470357 10.6920769 16.4676553 6.47952589 12.2551042 7.9840084 10.7506217"></polygon>
                    </g>
                </g>
            </g>
        </g>
    </g>
</svg>