<?xml version="1.0" encoding="UTF-8"?>
<svg width="24px" height="24px" viewBox="0 0 24 24" version="1.1" xmlns="http://www.w3.org/2000/svg" xmlns:xlink="http://www.w3.org/1999/xlink">
    <!-- Generator: Sketch 56.2 (81672) - https://sketch.com -->
    <title>编组 25</title>
    <desc>Created with Sketch.</desc>
    <g id="Page-2" stroke="none" stroke-width="1" fill="none" fill-rule="evenodd">
        <g id="P5-轮播设置页hover" transform="translate(-1796.000000, -136.000000)">
            <g id="编组-11" transform="translate(960.000000, -1.000000)">
                <g id="编组-7复制" transform="translate(500.000000, 100.000000)">
                    <g id="编组-6" transform="translate(1.000000, 1.000000)">
                        <g id="分组-30">
                            <g id="编组-25" transform="translate(335.000000, 36.000000)">
                                <g id="编组-27">
                                    <rect id="矩形" fill="#FFFFFF" opacity="0" x="0" y="0" width="24" height="24"></rect>
                                    <g id="通用-copy-6" transform="translate(12.000000, 12.000000) scale(1, -1) translate(-12.000000, -12.000000) translate(2.000000, 2.000000)">
                                        <g id="编组-24">
                                            <g id="分组-9"></g>
                                        </g>
                                    </g>
                                </g>
                                <g id="编组-26" transform="translate(2.000000, 2.000000)">
                                    <path d="M10,0 C4.47702128,0 0,4.47702128 0,10 C0,15.5229787 4.47702128,20 10,20 C15.5229787,20 20,15.5229787 20,10 C20,4.47702128 15.5229787,0 10,0 Z" id="Shape" fill="#230D29" transform="translate(10.000000, 10.000000) scale(1, -1) translate(-10.000000, -10.000000) "></path>
                                    <rect id="矩形" fill="#FFFFFF" fill-rule="nonzero" transform="translate(10.000000, 10.000000) scale(1, -1) translate(-10.000000, -10.000000) " x="4.5" y="8.75" width="11" height="2.5"></rect>
                                </g>
                            </g>
                        </g>
                    </g>
                </g>
            </g>
        </g>
    </g>
</svg>