<?xml version="1.0" encoding="UTF-8"?>
<svg width="24px" height="24px" viewBox="0 0 24 24" version="1.1" xmlns="http://www.w3.org/2000/svg" xmlns:xlink="http://www.w3.org/1999/xlink">
    <!-- Generator: Sketch 56.2 (81672) - https://sketch.com -->
    <title>分组 18</title>
    <desc>Created with Sketch.</desc>
    <g id="Page-2" stroke="none" stroke-width="1" fill="none" fill-rule="evenodd">
        <g id="P5-轮播设置页hover" transform="translate(-1356.000000, -232.000000)">
            <g id="编组-11" transform="translate(960.000000, -1.000000)">
                <g id="编组-7" transform="translate(60.000000, 100.000000)">
                    <g id="编组-6" transform="translate(1.000000, 1.000000)">
                        <g id="分组-30-copy" transform="translate(0.000000, 96.000000)">
                            <g id="分组-18" transform="translate(335.000000, 36.000000)">
                                <rect id="矩形" fill="#D8D8D8" opacity="0" x="0" y="0" width="24" height="24"></rect>
                                <path d="M12,22 C17.5228475,22 22,17.5228475 22,12 C22,6.4771525 17.5228475,2 12,2 C6.4771525,2 2,6.4771525 2,12 C2,17.5228475 6.4771525,22 12,22 Z" id="路径" fill="#230D29" fill-rule="nonzero"></path>
                                <path d="M12,21 C7.02943725,21 3,16.9705627 3,12 C3,7.02943725 7.02943725,3 12,3 C16.9705627,3 21,7.02943725 21,12 C21,16.9705627 16.9705627,21 12,21 Z" id="路径" fill="#F0D3CE" fill-rule="nonzero"></path>
                            </g>
                        </g>
                    </g>
                </g>
            </g>
        </g>
    </g>
</svg>