<?xml version="1.0" encoding="UTF-8"?>
<svg width="200px" height="200px" viewBox="0 0 200 200" version="1.1" xmlns="http://www.w3.org/2000/svg" xmlns:xlink="http://www.w3.org/1999/xlink">
    <!-- Generator: Sketch 56.2 (81672) - https://sketch.com -->
    <title>编组</title>
    <desc>Created with Sketch.</desc>
    <g id="Page-2" stroke="none" stroke-width="1" fill="none" fill-rule="evenodd">
        <g id="P1-登录页" transform="translate(-1348.000000, -251.000000)" fill="#FFFFFF">
            <g id="编组" transform="translate(1348.000000, 251.000000)">
                <rect id="矩形" opacity="0" x="0" y="0" width="200" height="200"></rect>
                <g id="分组" transform="translate(2.000000, 6.000000)">
                    <path d="M118.033076,2.34479103e-13 L120.497832,2.34479103e-13 L120.497832,2.4585 L105.567939,17.3505 L142.770863,17.3505 L142.770863,101.3505 L58.5571221,101.3505 L58.5571221,64.242 L42.3940992,80.3625 L42.3940992,75.4455 L58.5571221,59.325 L58.5571221,17.3505 L100.639931,17.3505 L118.033076,2.34479103e-13 Z M63.4355038,59.3745 L63.4355038,96.4845 L137.892481,96.4845 L137.892481,22.2165 L100.689557,22.2165 L63.4355038,59.3745 Z M95.7615496,22.2165 L63.4355038,22.2165 L63.4355038,54.459 L95.7615496,22.2165 Z M132.275575,133.29705 C140.633789,133.29705 147.408483,140.05605 147.408483,148.39155 C147.408483,156.72705 140.633789,163.48605 132.275575,163.48605 C123.917361,163.48605 117.142666,156.72705 117.142666,148.39155 C117.142666,140.05605 123.917361,133.29705 132.275575,133.29705 Z M161.496239,134.09205 L164.419659,134.09205 L170.264995,154.77255 L178.566063,134.09205 L179.030743,134.09205 L187.333315,154.77255 L193.177147,134.09205 L196.100567,134.09205 L187.994995,162.69105 L187.488208,162.69105 L178.799155,141.04305 L170.108598,162.69105 L169.601811,162.69105 L161.496239,134.09205 Z M90.8980557,156.20355 L100.560079,134.09205 L103.638392,134.09205 L91.1717504,162.69105 L90.6258649,162.69105 L78.1592237,134.09205 L81.2375366,134.09205 L90.8980557,156.20355 Z M9.93406336,148.05705 L10.6528878,149.65455 L11.373216,148.05705 L18.0336206,134.09205 L21.305926,134.09205 L12.0754985,152.21955 L12.0754985,162.69105 L9.2302771,162.69105 L9.2302771,152.21805 L-0.000150381679,134.09205 L3.27215496,134.09205 L9.93406336,148.05705 Z M49.6348267,133.29705 C57.9930405,133.29705 64.7677351,140.05605 64.7677351,148.39155 C64.7677351,156.72705 57.9930405,163.48605 49.6348267,163.48605 C41.2781168,163.48605 34.5019183,156.72705 34.5019183,148.39155 C34.5019183,140.05605 41.2781168,133.29705 49.6348267,133.29705 Z M49.6348267,136.27605 C42.9278038,136.27605 37.4900023,141.70005 37.4900023,148.39155 C37.4900023,155.08305 42.9278038,160.50705 49.6348267,160.50705 C56.3433534,160.50705 61.781155,155.08305 61.781155,148.39155 C61.781155,141.70005 56.3433534,136.27605 49.6348267,136.27605 Z M132.275575,136.27605 C125.567048,136.27605 120.129247,141.70005 120.129247,148.39155 C120.129247,155.08305 125.567048,160.50705 132.275575,160.50705 C138.982598,160.50705 144.421903,155.08305 144.421903,148.39155 C144.421903,141.70005 138.982598,136.27605 132.275575,136.27605 Z M52.8868305,187.2312 L52.8868305,175.1337 L55.9049908,175.1337 C57.0478916,175.1427 58.0404107,175.2492 58.8870595,175.4442 C59.3171511,175.5432 59.7667924,175.7262 60.2389908,175.9872 C61.2946702,176.6007 62.0510901,177.4347 62.511258,178.4862 C62.7112656,178.9242 62.8466092,179.3727 62.9248076,179.8332 C63.012029,180.2517 63.0631588,180.6612 63.0721817,181.0677 L63.0721817,181.5912 C63.0631588,182.0862 63.0015023,182.5407 62.8917237,182.9577 C62.6721664,183.9432 62.2225252,184.8162 61.5412962,185.5707 C61.058571,186.0747 60.5578,186.4422 60.0389832,186.6732 C59.3171511,187.0017 58.4133573,187.1832 57.3366244,187.2147 L57.0884947,187.2312 L52.8868305,187.2312 Z M57.1742122,176.4162 C56.5907313,176.3712 56.0147695,176.3367 55.4433191,176.3142 L54.0432656,176.3142 L54.0432656,186.0972 L56.0027389,186.0972 C56.5531359,186.0867 57.1065405,186.0522 57.6689679,185.9997 C58.1938,185.9547 58.644945,185.8737 59.0193954,185.7522 C59.4915939,185.5872 59.9412351,185.3232 60.3713267,184.9617 C60.787884,184.6017 61.1172198,184.1727 61.3593344,183.6792 C61.6570901,183.0342 61.8195023,182.3382 61.8540901,181.5912 L61.8540901,181.1142 C61.8315328,180.6357 61.7668687,180.1842 61.6570901,179.7687 C61.5142275,179.2857 61.3082046,178.8372 61.0465405,178.4187 C60.7938992,178.0152 60.4029069,177.6192 59.876571,177.2382 C59.4570061,176.9622 59.0073649,176.7612 58.5246397,176.6292 C58.0404107,176.5077 57.5892656,176.4357 57.1742122,176.4162 Z M66.9535328,187.2312 L66.9535328,175.1337 L68.1565863,175.1337 L68.1565863,187.2312 L66.9535328,187.2312 Z M71.5582198,187.2312 C73.4590443,183.1992 75.365884,179.1657 77.2787389,175.1337 L77.5749908,175.1337 L83.2278382,187.2312 L81.907487,187.2312 L80.0126779,183.2532 L74.7899221,183.2532 L72.8936092,187.2312 L71.5582198,187.2312 Z M77.4110748,177.6807 L77.2606931,178.0092 C76.6681893,179.2347 76.0862122,180.4647 75.5147618,181.6902 C75.4470901,181.8222 75.3944565,181.9542 75.349342,182.0862 L79.486342,182.0862 L77.4110748,177.6807 Z M86.2339679,187.2312 C86.8054183,183.1992 87.3813802,179.1657 87.9648611,175.1337 L88.1633649,175.1337 L93.0913725,185.0787 L97.9697542,175.1337 L98.1487084,175.1337 L99.8976473,187.2312 L98.7276779,187.2312 L97.5065786,178.5852 L93.2237084,187.2312 L92.9079069,187.2312 L88.8054947,178.9797 C88.7408305,178.8252 88.6671435,178.6662 88.5919527,178.5027 C88.1829145,181.4292 87.7844031,184.3392 87.3873954,187.2312 L86.2339679,187.2312 Z M109.067922,174.8697 L109.511548,174.8367 L110.006304,174.8367 C110.929647,174.8592 111.84096,175.0782 112.74325,175.4922 C113.741785,175.9977 114.594449,176.7777 115.296731,177.8292 C115.580953,178.2792 115.792991,178.7277 115.923823,179.1762 C116.099769,179.7912 116.193006,180.3777 116.203533,180.9357 L116.203533,181.4292 C116.170449,182.4252 115.938861,183.3282 115.511777,184.1427 C115.281693,184.5912 114.962884,185.0397 114.55535,185.4882 C114.081647,185.9937 113.556815,186.4152 112.974838,186.7542 C112.150747,187.2027 111.252968,187.4607 110.287518,187.5282 L110.105556,187.5282 L109.595762,187.5282 C109.123563,187.5177 108.670915,187.4562 108.243831,187.3467 C107.794189,187.2477 107.343044,187.0827 106.893403,186.8517 C105.321915,185.9877 104.27225,184.7652 103.742907,183.1887 C103.569968,182.5962 103.470716,182.0322 103.448159,181.4937 L103.448159,181.0002 C103.482747,180.0582 103.712831,179.1597 104.139915,178.3032 C104.657227,177.2742 105.397105,176.4462 106.365563,175.8237 C107.200182,175.2972 108.099464,174.9792 109.067922,174.8697 Z M109.6108,176.0037 C109.016792,176.0367 108.451357,176.1627 107.914495,176.3817 C106.893403,176.7867 106.063296,177.4932 105.425678,178.5027 C104.976037,179.2797 104.733922,180.1137 104.699334,181.0002 L104.699334,181.4457 C104.733922,181.9482 104.809113,182.3967 104.929418,182.7927 C105.206121,183.7572 105.839227,184.6272 106.825731,185.4072 C107.661853,186.0102 108.583693,186.3282 109.595762,186.3612 L110.02435,186.3612 C110.538655,186.3387 110.991304,186.2607 111.374777,186.1317 C111.846976,185.9877 112.296617,185.7747 112.726708,185.4882 C113.695166,184.8327 114.341808,183.9822 114.66964,182.9412 C114.836563,182.4822 114.934311,181.9647 114.968899,181.3962 L114.968899,180.9522 C114.946342,180.4917 114.869647,180.0432 114.737311,179.6022 C114.606479,179.1312 114.391434,178.6827 114.093678,178.2567 C113.598922,177.5442 112.962808,176.9907 112.180823,176.5947 C111.44696,176.2227 110.720617,176.0262 110.006304,176.0037 L109.6108,176.0037 Z M120.346548,187.2312 L120.346548,175.1337 L120.61122,175.1337 L128.66867,184.4037 L128.66867,175.1337 L129.873227,175.1337 L129.873227,187.2312 L129.592014,187.2312 C127.966388,185.3787 126.351289,183.5277 124.74822,181.6767 C123.694044,180.4692 122.638365,179.2752 121.584189,178.0902 L121.584189,187.2312 L120.346548,187.2312 Z M134.510998,187.2312 L134.510998,175.1337 L137.529159,175.1337 C138.670556,175.1427 139.664579,175.2492 140.511227,175.4442 C140.941319,175.5432 141.39096,175.7262 141.863159,175.9872 C142.918838,176.6007 143.675258,177.4347 144.135426,178.4862 C144.335434,178.9242 144.470777,179.3727 144.548976,179.8332 C144.636197,180.2517 144.687327,180.6612 144.69635,181.0677 L144.69635,181.5912 C144.687327,182.0862 144.62567,182.5407 144.515892,182.9577 C144.296334,183.9432 143.846693,184.8162 143.165464,185.5707 C142.681235,186.0747 142.180464,186.4422 141.663151,186.6732 C140.941319,187.0017 140.037525,187.1832 138.960792,187.2147 L138.712663,187.2312 L134.510998,187.2312 Z M138.796876,176.4162 C138.214899,176.3712 137.638937,176.3367 137.068991,176.3142 L135.667434,176.3142 L135.667434,186.0972 L137.628411,186.0972 C138.1758,186.0867 138.729205,186.0522 139.293136,185.9997 C139.819472,185.9547 140.267609,185.8737 140.64206,185.7522 C141.115762,185.5872 141.565403,185.3232 141.995495,184.9617 C142.412052,184.6017 142.739884,184.1727 142.983502,183.6792 C143.281258,183.0342 143.44367,182.3382 143.478258,181.5912 L143.478258,181.1142 C143.455701,180.6357 143.391037,180.1842 143.281258,179.7687 C143.138395,179.2857 142.932373,178.8372 142.670708,178.4187 C142.418067,178.0152 142.027075,177.6192 141.500739,177.2382 C141.081174,176.9622 140.631533,176.7612 140.147304,176.6292 C139.664579,176.5077 139.213434,176.4357 138.796876,176.4162 Z" id="形状结合"></path>
                </g>
            </g>
        </g>
    </g>
</svg>