<?xml version="1.0" encoding="UTF-8"?>
<svg width="200px" height="200px" viewBox="0 0 200 200" version="1.1" xmlns="http://www.w3.org/2000/svg" xmlns:xlink="http://www.w3.org/1999/xlink">
    <!-- Generator: Sketch 56.2 (81672) - https://sketch.com -->
    <title>编组 40</title>
    <desc>Created with Sketch.</desc>
    <g id="20190820" stroke="none" stroke-width="1" fill="none" fill-rule="evenodd">
        <g id="P1-登录页" transform="translate(-1568.000000, -251.000000)" fill="#FFFFFF">
            <g id="编组-40" transform="translate(1568.000000, 251.000000)">
                <rect id="矩形" opacity="0" x="0" y="0" width="200" height="200"></rect>
                <path d="M5.01392241,189.162716 L5.01392241,179.83944 L6.28762931,179.83944 L6.28762931,189.288578 C6.28762931,190.444181 6.10487069,191.260991 5.73978448,191.739871 C5.37426724,192.21875 4.75702586,192.458405 3.88849138,192.458405 C3.55228448,192.458405 3.24883621,192.409698 2.97728448,192.314009 C2.70616379,192.217457 2.46392241,192.07306 2.25185345,191.880819 L2.71090517,190.806681 C2.89366379,190.979526 3.0699569,191.100647 3.24021552,191.169612 C3.41047414,191.238578 3.60702586,191.27306 3.82900862,191.27306 C4.30314655,191.27306 4.61866379,191.125216 4.77685345,190.828664 C4.93461207,190.532974 5.01392241,189.977371 5.01392241,189.162716 Z M8.80543103,191.273276 L8.80543103,179.839655 L14.5963793,179.839655 L14.5963793,181.039224 L10.0791379,181.039224 L10.0791379,184.512069 L14.5963793,184.512069 L14.5963793,185.704741 L10.0791379,185.704741 L10.0791379,190.073707 L14.5963793,190.073707 L14.5963793,191.273276 L8.80543103,191.273276 Z M27.3996983,188.496379 L30.8432328,179.839483 L32.2281466,179.839483 L27.3996983,191.576552 L23.8673707,182.601552 L20.3203879,191.576552 L15.5290086,179.839483 L16.9065948,179.839483 L20.3203879,188.496379 L23.8824569,179.521379 L27.3996983,188.496379 Z M33.3314655,191.273276 L33.3314655,179.839655 L39.1224138,179.839655 L39.1224138,181.039224 L34.6051724,181.039224 L34.6051724,184.512069 L39.1224138,184.512069 L39.1224138,185.704741 L34.6051724,185.704741 L34.6051724,190.073707 L39.1224138,190.073707 L39.1224138,191.273276 L33.3314655,191.273276 Z M42.7062931,179.839483 L42.7062931,190.103276 L45.7498276,190.103276 L45.7498276,191.273103 L41.4325862,191.273103 L41.4325862,179.839483 L42.7062931,179.839483 Z M48.3934914,179.839483 L48.3934914,190.103276 L51.4370259,190.103276 L51.4370259,191.273103 L47.1197845,191.273103 L47.1197845,179.839483 L48.3934914,179.839483 Z M52.8071552,191.273276 L52.8071552,179.839655 L58.5981034,179.839655 L58.5981034,181.039224 L54.0808621,181.039224 L54.0808621,184.512069 L58.5981034,184.512069 L58.5981034,185.704741 L54.0808621,185.704741 L54.0808621,190.073707 L58.5981034,190.073707 L58.5981034,191.273276 L52.8071552,191.273276 Z M62.1819397,184.778707 L63.1668534,184.778707 C64.0754741,184.778707 64.7340948,184.635603 65.1440086,184.349397 C65.5539224,184.06319 65.7586638,183.601552 65.7586638,182.964483 C65.7586638,182.298103 65.54875,181.810603 65.1293534,181.501983 C64.7095259,181.193793 64.0556466,181.039052 63.1668534,181.039052 L62.1819397,181.039052 L62.1819397,184.778707 Z M66.2142672,185.019655 C65.6685776,185.535603 64.911681,185.805862 63.9444397,185.830431 L67.6099569,191.273103 L66.0621121,191.273103 L62.5595259,185.874828 L62.1819397,185.874828 L62.1819397,191.273103 L60.9082328,191.273103 L60.9082328,179.839483 L63.2853879,179.839483 C64.5047845,179.839483 65.4340948,180.105 66.073319,180.635603 C66.7125431,181.166207 67.0323707,181.927845 67.0323707,182.920086 C67.0323707,183.803707 66.7595259,184.503707 66.2142672,185.019655 Z M71.7495259,184.875086 L74.5413362,179.83931 L75.9555603,179.83931 L72.3715086,186.022931 L72.3715086,191.273362 L71.0978017,191.273362 L71.0978017,186.022931 L67.4473707,179.83931 L68.8689224,179.83931 L71.7495259,184.875086 Z M87.5079741,179.610086 C88.2239224,179.610086 88.8976293,179.697586 89.5295259,179.872586 C90.1614224,180.048448 90.6946121,180.293707 91.1290948,180.609655 L91.1290948,182.038966 C90.6596983,181.658793 90.1157328,181.359224 89.4963362,181.139397 C88.8765086,180.919569 88.2657328,180.809655 87.6635776,180.809655 C86.2515086,180.809655 85.069181,181.260086 84.1161638,182.161379 C83.1635776,183.062241 82.6868534,184.188966 82.6868534,185.541552 C82.6868534,186.904052 83.1450431,188.038534 84.0605603,188.944138 C84.9765086,189.850603 86.1105603,190.30319 87.4635776,190.30319 C88.1299569,190.30319 88.7924569,190.193707 89.4519397,189.973879 C90.1109914,189.754052 90.6700431,189.454052 91.1290948,189.073879 L91.1290948,190.532931 C90.7092672,190.804483 90.144181,191.033793 89.4334052,191.221293 C88.7221983,191.408793 88.0756466,191.502759 87.4928879,191.502759 C85.7403017,191.502759 84.2890086,190.941121 83.1390086,189.818276 C81.9885776,188.695 81.4135776,187.27 81.4135776,185.541552 C81.4135776,183.863103 81.9984914,182.454914 83.168319,181.316983 C84.3385776,180.179052 85.7846983,179.610086 87.5079741,179.610086 Z M99.5931466,187.252112 L99.5931466,179.839612 L100.866853,179.839612 L100.866853,186.99306 C100.866853,188.518491 100.537112,189.65125 99.8784914,190.392198 C99.2190086,191.132716 98.2129741,191.502543 96.860819,191.502543 C95.5228879,191.502543 94.5194397,191.127543 93.8504741,190.377112 C93.1815086,189.627112 92.8470259,188.499095 92.8470259,186.99306 L92.8470259,179.839612 L94.1207328,179.839612 L94.1207328,187.252112 C94.1207328,188.279267 94.3465948,189.044353 94.798319,189.547802 C95.2500431,190.05125 95.9375431,190.302974 96.860819,190.302974 C97.7884052,190.302974 98.4763362,190.053836 98.9228879,189.55556 C99.3694397,189.056853 99.5931466,188.28875 99.5931466,187.252112 Z M106.079914,184.526983 C108.212672,185.672241 109.279052,186.904138 109.279052,188.222241 C109.279052,189.239483 108.963103,190.040345 108.331638,190.625259 C107.69931,191.210172 106.835517,191.502845 105.739397,191.502845 C104.984224,191.502845 104.323879,191.33 103.758362,190.98431 C103.193276,190.639052 102.782069,190.159741 102.525603,189.547672 L103.436379,188.770517 C103.609224,189.248966 103.906638,189.624397 104.329052,189.895948 C104.751034,190.1675 105.238534,190.302845 105.791121,190.302845 C106.4825,190.302845 107.023879,190.125259 107.416983,189.770086 C107.809224,189.414483 108.005345,188.913621 108.005345,188.266638 C108.005345,187.743362 107.823879,187.28819 107.460948,186.90069 C107.098017,186.512759 106.489828,186.10931 105.635948,185.689483 C104.623448,185.191207 103.918707,184.705 103.521293,184.230862 C103.12431,183.757155 102.925603,183.157155 102.925603,182.431724 C102.925603,181.587328 103.21181,180.906293 103.784655,180.387328 C104.357069,179.869224 105.114828,179.610172 106.057931,179.610172 C106.630345,179.610172 107.133793,179.722672 107.568276,179.94681 C108.002759,180.17181 108.370431,180.508879 108.672155,180.958017 L107.805345,181.764914 C107.637672,181.464052 107.394569,181.229569 107.076466,181.061466 C106.7575,180.893362 106.398448,180.809741 105.998879,180.809741 C105.44069,180.809741 105.001466,180.950259 104.680345,181.231724 C104.359655,181.51319 104.19931,181.893362 104.19931,182.372241 C104.19931,182.806724 104.321293,183.17181 104.56569,183.468362 C104.810086,183.764052 105.292845,184.107586 106.013534,184.497672 L106.079914,184.526983 Z M109.952931,180.987371 L109.952931,179.839526 L116.624914,179.839526 L116.624914,180.987371 L113.922328,180.987371 L113.922328,191.273147 L112.648621,191.273147 L112.648621,180.987371 L109.952931,180.987371 Z M125.981595,188.929526 C126.887629,188.014009 127.340216,186.88944 127.340216,185.556681 C127.340216,184.218319 126.888491,183.092888 125.985474,182.179957 C125.082026,181.266595 123.961336,180.809698 122.623405,180.809698 C121.206595,180.809698 120.066078,181.273491 119.201853,182.20194 C118.338491,183.129957 117.906595,184.248491 117.906595,185.556681 C117.906595,186.894181 118.355733,188.020043 119.25444,188.933405 C120.152716,189.846767 121.27556,190.303233 122.623405,190.303233 C123.956595,190.303233 125.07556,189.845474 125.981595,188.929526 Z M122.623405,179.610129 C124.326422,179.610129 125.750991,180.177802 126.89625,181.313147 C128.041509,182.448922 128.613922,183.863147 128.613922,185.556681 C128.613922,187.230388 128.036767,188.63944 126.881595,189.784698 C125.725991,190.930388 124.306595,191.502802 122.623405,191.502802 C120.935043,191.502802 119.514353,190.929095 118.361767,189.78125 C117.20875,188.633405 116.632888,187.225216 116.632888,185.556681 C116.632888,183.863147 117.204009,182.448922 118.346681,181.313147 C119.489353,180.177802 120.915216,179.610129 122.623405,179.610129 Z M135.80444,188.873966 L140.106595,179.521379 L141.913922,191.273103 L140.62556,191.273103 L139.52944,183.47569 L135.775129,191.591638 L132.027716,183.47569 L130.931595,191.273103 L129.628578,191.273103 L131.465216,179.521379 L135.80444,188.873966 Z M143.750431,191.273276 L143.750431,179.839655 L145.024138,179.839655 L145.024138,191.273276 L143.750431,191.273276 Z M150.333362,184.526983 C152.466121,185.672241 153.5325,186.904138 153.5325,188.222241 C153.5325,189.239483 153.216552,190.040345 152.585086,190.625259 C151.952759,191.210172 151.088966,191.502845 149.992845,191.502845 C149.237672,191.502845 148.577328,191.33 148.01181,190.98431 C147.446724,190.639052 147.035948,190.159741 146.779052,189.547672 L147.689828,188.770517 C147.862672,189.248966 148.160086,189.624397 148.5825,189.895948 C149.004483,190.1675 149.491983,190.302845 150.044569,190.302845 C150.735948,190.302845 151.277328,190.125259 151.670431,189.770086 C152.062672,189.414483 152.258793,188.913621 152.258793,188.266638 C152.258793,187.743362 152.077328,187.28819 151.714397,186.90069 C151.351466,186.512759 150.743276,186.10931 149.889397,185.689483 C148.876897,185.191207 148.172155,184.705 147.774741,184.230862 C147.377759,183.757155 147.179052,183.157155 147.179052,182.431724 C147.179052,181.587328 147.465259,180.906293 148.038103,180.387328 C148.610517,179.869224 149.368276,179.610172 150.311379,179.610172 C150.883793,179.610172 151.387241,179.722672 151.821724,179.94681 C152.256207,180.17181 152.623879,180.508879 152.925603,180.958017 L152.058793,181.764914 C151.891121,181.464052 151.648017,181.229569 151.329914,181.061466 C151.010948,180.893362 150.651897,180.809741 150.252328,180.809741 C149.694138,180.809741 149.254914,180.950259 148.933793,181.231724 C148.613103,181.51319 148.452759,181.893362 148.452759,182.372241 C148.452759,182.806724 148.574741,183.17181 148.819138,183.468362 C149.063534,183.764052 149.546293,184.107586 150.266983,184.497672 L150.333362,184.526983 Z M157.316595,186.726336 L161.107974,186.726336 L159.212284,182.312974 L157.316595,186.726336 Z M153.947629,191.273319 L159.212284,179.521164 L164.470043,191.273319 L163.063147,191.273319 L161.574784,187.814698 L156.827802,187.814698 L155.354095,191.273319 L153.947629,191.273319 Z M163.707198,180.987371 L163.707198,179.839526 L170.379181,179.839526 L170.379181,180.987371 L167.676595,180.987371 L167.676595,191.273147 L166.402888,191.273147 L166.402888,180.987371 L163.707198,180.987371 Z M171.5125,191.273276 L171.5125,179.839655 L172.786207,179.839655 L172.786207,191.273276 L171.5125,191.273276 Z M183.845862,188.929526 C184.751897,188.014009 185.204483,186.88944 185.204483,185.556681 C185.204483,184.218319 184.752759,183.092888 183.849741,182.179957 C182.946293,181.266595 181.825603,180.809698 180.487672,180.809698 C179.070862,180.809698 177.930345,181.273491 177.066121,182.20194 C176.202759,183.129957 175.770862,184.248491 175.770862,185.556681 C175.770862,186.894181 176.22,188.020043 177.118707,188.933405 C178.016983,189.846767 179.139828,190.303233 180.487672,190.303233 C181.820862,190.303233 182.939828,189.845474 183.845862,188.929526 Z M180.487672,179.610129 C182.19069,179.610129 183.615259,180.177802 184.760517,181.313147 C185.905776,182.448922 186.47819,183.863147 186.47819,185.556681 C186.47819,187.230388 185.901034,188.63944 184.745862,189.784698 C183.590259,190.930388 182.170862,191.502802 180.487672,191.502802 C178.79931,191.502802 177.378621,190.929095 176.226034,189.78125 C175.073017,188.633405 174.497155,187.225216 174.497155,185.556681 C174.497155,183.863147 175.068276,182.448922 176.210948,181.313147 C177.353621,180.177802 178.779483,179.610129 180.487672,179.610129 Z M197.134698,188.511121 L197.134698,179.839569 L198.408405,179.839569 L198.408405,191.591293 L189.55194,182.579655 L189.55194,191.27319 L188.278233,191.27319 L188.278233,179.521466 L197.134698,188.511121 Z" id="形状结合"></path>
                <path d="M11.39375,166.708103 L11.39375,156.198621 L2.1549569,138.008966 L5.43038793,138.008966 L12.0980603,152.023621 L12.818319,153.626207 L13.5385776,152.023621 L20.20625,138.008966 L23.480819,138.008966 L14.2420259,156.199483 L14.2420259,166.708103 L11.39375,166.708103 Z M93.4123707,166.708103 L92.866681,166.708103 L80.3873707,138.008966 L83.4688362,138.008966 L93.1395259,160.198621 L102.810647,138.008966 L105.891681,138.008966 L93.4123707,166.708103 Z M172.423879,166.708103 L171.917414,166.708103 L163.804483,138.008966 L166.730776,138.008966 L172.580345,158.762414 L180.889828,138.008966 L181.355776,138.008966 L189.665259,158.762414 L195.514828,138.008966 L198.44069,138.008966 L190.327759,166.708103 L189.821293,166.708103 L181.123017,144.983966 L172.423879,166.708103 Z M51.8375431,164.515862 C58.5517672,164.515862 63.9948707,159.072759 63.9948707,152.358534 C63.9948707,145.64431 58.5517672,140.201207 51.8375431,140.201207 C45.123319,140.201207 39.6802155,145.64431 39.6802155,152.358534 C39.6802155,159.072759 45.123319,164.515862 51.8375431,164.515862 Z M66.9845259,152.358534 C66.9845259,160.724052 60.2030603,167.505517 51.8375431,167.505517 C43.4720259,167.505517 36.6905603,160.724052 36.6905603,152.358534 C36.6905603,143.993448 43.4720259,137.211552 51.8375431,137.211552 C60.2030603,137.211552 66.9845259,143.993448 66.9845259,152.358534 Z M134.55556,164.515862 C141.269784,164.515862 146.712888,159.072759 146.712888,152.358534 C146.712888,145.64431 141.269784,140.201207 134.55556,140.201207 C127.841336,140.201207 122.398233,145.64431 122.398233,152.358534 C122.398233,159.072759 127.841336,164.515862 134.55556,164.515862 Z M134.55556,137.211552 C142.921078,137.211552 149.702543,143.993448 149.702543,152.358534 C149.702543,160.724052 142.921078,167.505517 134.55556,167.505517 C126.190474,167.505517 119.408578,160.724052 119.408578,152.358534 C119.408578,143.993448 126.190474,137.211552 134.55556,137.211552 Z" id="形状"></path>
                <path d="M65.6502155,63.0303879 C77.2484914,51.4321121 91.5476293,37.1334052 102.938578,25.7420259 L140.177371,25.7420259 L140.177371,100.270043 L65.6502155,100.270043 L65.6502155,63.0303879 Z M65.6502155,25.7420259 L98.005819,25.7420259 C78.19375,45.5545259 85.6010776,38.1471983 65.6502155,58.0980603 L65.6502155,25.7420259 Z M60.7665948,67.9140086 L60.7665948,105.153233 L145.06056,105.153233 L145.06056,20.8588362 L107.822198,20.8588362 C116.47306,12.2075431 122.532543,6.14849138 122.766595,5.91443966 L122.766595,3.44849138 L120.300216,3.44849138 C113.134267,10.6140086 107.453664,16.2946121 102.889871,20.8588362 L60.7665948,20.8588362 L60.7665948,62.981681 C56.4618534,67.2864224 51.1704741,72.5773707 44.5890086,79.1588362 L44.5890086,84.0911638 C45.1877155,83.4924569 51.7161638,76.9640086 60.7665948,67.9140086 L60.7665948,67.9140086 Z" id="Fill-39"></path>
            </g>
        </g>
    </g>
</svg>