<?xml version="1.0" encoding="UTF-8"?>
<svg width="144px" height="144px" viewBox="0 0 144 144" version="1.1" xmlns="http://www.w3.org/2000/svg" xmlns:xlink="http://www.w3.org/1999/xlink">
    <!-- Generator: Sketch 56.2 (81672) - https://sketch.com -->
    <title>编组 40备份 2</title>
    <desc>Created with Sketch.</desc>
    <defs>
        <linearGradient x1="98.7948317%" y1="100%" x2="1.20516832%" y2="0%" id="linearGradient-1">
            <stop stop-color="#5B3C42" offset="0%"></stop>
            <stop stop-color="#B6979E" offset="100%"></stop>
        </linearGradient>
    </defs>
    <g id="20190820" stroke="none" stroke-width="1" fill="none" fill-rule="evenodd">
        <g id="P2-镶嵌-素金选择页" transform="translate(-232.000000, -48.000000)">
            <g id="编组-40备份-2" transform="translate(232.000000, 48.000000)">
                <rect id="矩形" fill="#FFFFFF" opacity="0" x="0" y="0" width="144" height="144"></rect>
                <g id="编组-7" transform="translate(6.000000, 9.000000)">
                    <path d="M1.91349354,124.297746 L1.91349354,118.057716 L2.76598018,118.057716 L2.76598018,124.381984 C2.76598018,125.155425 2.64366061,125.702113 2.39930996,126.022625 C2.15467081,126.343136 1.74155376,126.503537 1.1602473,126.503537 C0.935225449,126.503537 0.7321288,126.470937 0.550380379,126.406893 C0.368920447,126.342271 0.206789315,126.245627 0.0648524526,126.116961 L0.372093832,125.398045 C0.494413405,125.513729 0.612405634,125.594795 0.726359009,125.640953 C0.840312385,125.687111 0.971863623,125.71019 1.12043575,125.71019 C1.43777426,125.71019 1.64894862,125.611238 1.75482428,125.412758 C1.86041146,125.214854 1.91349354,124.842991 1.91349354,124.297746 Z M4.45113424,125.710335 L4.45113424,118.057861 L8.32699145,118.057861 L8.32699145,118.860727 L5.30362088,118.860727 L5.30362088,121.185087 L8.32699145,121.185087 L8.32699145,121.983338 L5.30362088,121.983338 L5.30362088,124.907468 L8.32699145,124.907468 L8.32699145,125.710335 L4.45113424,125.710335 Z M16.8961987,123.851769 L19.2009418,118.057745 L20.1278588,118.057745 L16.8961987,125.913316 L14.5320268,119.906386 L12.1580462,125.913316 L8.95119631,118.057745 L9.87320894,118.057745 L12.1580462,123.851769 L14.5421239,117.84484 L16.8961987,123.851769 Z M20.8663055,125.710335 L20.8663055,118.057861 L24.7421627,118.057861 L24.7421627,118.860727 L21.7187921,118.860727 L21.7187921,121.185087 L24.7421627,121.185087 L24.7421627,121.983338 L21.7187921,121.983338 L21.7187921,124.907468 L24.7421627,124.907468 L24.7421627,125.710335 L20.8663055,125.710335 Z M27.140838,118.057745 L27.140838,124.927259 L29.1778627,124.927259 L29.1778627,125.710219 L26.2883513,125.710219 L26.2883513,118.057745 L27.140838,118.057745 Z M30.9472558,118.057745 L30.9472558,124.927259 L32.9842805,124.927259 L32.9842805,125.710219 L30.0947691,125.710219 L30.0947691,118.057745 L30.9472558,118.057745 Z M33.9013023,125.710335 L33.9013023,118.057861 L37.7771595,118.057861 L37.7771595,118.860727 L34.7537889,118.860727 L34.7537889,121.185087 L37.7771595,121.185087 L37.7771595,121.983338 L34.7537889,121.983338 L34.7537889,124.907468 L37.7771595,124.907468 L37.7771595,125.710335 L33.9013023,125.710335 Z M40.1758059,121.363547 L40.8350046,121.363547 C41.4431406,121.363547 41.8839526,121.267769 42.1583062,121.076211 C42.4326597,120.884654 42.5696923,120.575682 42.5696923,120.149295 C42.5696923,119.70329 42.4291979,119.377008 42.1484975,119.170449 C41.8675087,118.964179 41.42987,118.860612 40.8350046,118.860612 L40.1758059,118.860612 L40.1758059,121.363547 Z M42.8746257,121.524813 C42.509398,121.870135 42.0028103,122.051018 41.3554397,122.067462 L43.8087549,125.710219 L42.7727889,125.710219 L40.4285228,122.097176 L40.1758059,122.097176 L40.1758059,125.710219 L39.3233193,125.710219 L39.3233193,118.057745 L40.9143392,118.057745 C41.7304762,118.057745 42.3524596,118.235455 42.7802897,118.590585 C43.2081197,118.945716 43.4221789,119.455477 43.4221789,120.11958 C43.4221789,120.710984 43.239565,121.179491 42.8746257,121.524813 Z M46.5793509,121.428053 L48.4478978,118.05763 L49.3944321,118.05763 L46.9956414,122.196301 L46.9956414,125.710392 L46.1431547,125.710392 L46.1431547,122.196301 L43.6999367,118.05763 L44.6513752,118.05763 L46.5793509,121.428053 Z M57.1264138,117.904211 C57.6055949,117.904211 58.0565041,117.962774 58.4794298,118.079901 C58.9023555,118.197605 59.2592171,118.361756 59.5500146,118.573218 L59.5500146,119.52985 C59.2358494,119.275402 58.8717756,119.074902 58.4572161,118.927772 C58.0423681,118.780642 57.6335784,118.707078 57.2305585,118.707078 C56.2854667,118.707078 55.4941399,119.008549 54.8562895,119.611781 C54.2187275,120.214724 53.8996581,120.968836 53.8996581,121.874116 C53.8996581,122.786031 54.2063225,123.545336 54.8190743,124.151452 C55.4321146,124.758146 56.1911306,125.06106 57.0966994,125.06106 C57.5427042,125.06106 57.9861127,124.987784 58.4275017,124.840654 C58.8686022,124.693524 59.2427732,124.492736 59.5500146,124.238288 L59.5500146,125.214825 C59.2690257,125.396573 58.8908159,125.55005 58.4150966,125.675543 C57.9390889,125.801036 57.5063545,125.863926 57.1163167,125.863926 C55.9433181,125.863926 54.9719738,125.488025 54.2022836,124.736509 C53.432305,123.984705 53.0474599,123.030959 53.0474599,121.874116 C53.0474599,120.750738 53.4389403,119.808242 54.2219009,119.04663 C55.0051501,118.285017 55.9730325,117.904211 57.1264138,117.904211 Z M65.2149686,123.018987 L65.2149686,118.057832 L66.0674553,118.057832 L66.0674553,122.845604 C66.0674553,123.866569 65.8467608,124.62472 65.4059487,125.120633 C64.9645597,125.616258 64.2912251,125.863782 63.3862333,125.863782 C62.4907617,125.863782 61.819158,125.612796 61.3714222,125.110536 C60.9236864,124.608564 60.6998186,123.853587 60.6998186,122.845604 L60.6998186,118.057832 L61.5523052,118.057832 L61.5523052,123.018987 C61.5523052,123.706457 61.7034737,124.218526 62.0058108,124.555482 C62.3081478,124.892438 62.7682887,125.060916 63.3862333,125.060916 C64.0070628,125.060916 64.4674922,124.894169 64.7663674,124.560675 C65.0652425,124.226892 65.2149686,123.712804 65.2149686,123.018987 Z M69.5565345,121.195069 C70.9839809,121.961586 71.697704,122.786089 71.697704,123.66829 C71.697704,124.349125 71.4862412,124.885139 71.063604,125.276619 C70.6403898,125.6681 70.0622567,125.863984 69.3286278,125.863984 C68.8231941,125.863984 68.3812281,125.7483 68.0027298,125.516931 C67.62452,125.285851 67.3493009,124.965051 67.1776496,124.555396 L67.7872281,124.035249 C67.9029124,124.355472 68.1019702,124.606747 68.3846899,124.788495 C68.6671212,124.970244 68.9934029,125.060829 69.3632465,125.060829 C69.8259838,125.060829 70.1883267,124.941972 70.4514291,124.704256 C70.7139546,124.466252 70.8452174,124.131027 70.8452174,123.698005 C70.8452174,123.347778 70.7237633,123.043133 70.4808551,122.783781 C70.2379469,122.524141 69.8308881,122.254114 69.2593903,121.973125 C68.5817283,121.639632 68.1100479,121.314215 67.8440605,120.996877 C67.5783616,120.679827 67.4453679,120.278249 67.4453679,119.792721 C67.4453679,119.22757 67.636925,118.771757 68.0203276,118.424415 C68.4034418,118.077651 68.9106064,117.904269 69.5418216,117.904269 C69.9249357,117.904269 70.2618915,117.979565 70.552689,118.129579 C70.8434864,118.280171 71.089568,118.505769 71.2915107,118.806376 L70.7113582,119.346428 C70.5991358,119.145062 70.4364277,118.988124 70.2235224,118.875613 C70.0100401,118.763102 69.7697283,118.707135 69.5022985,118.707135 C69.1287045,118.707135 68.8347337,118.801183 68.6198089,118.989566 C68.4051727,119.17795 68.2978546,119.432398 68.2978546,119.75291 C68.2978546,120.043707 68.3794971,120.288058 68.5430707,120.486539 C68.7066443,120.684443 69.0297526,120.914369 69.5121071,121.175452 L69.5565345,121.195069 Z M72.1487286,118.826022 L72.1487286,118.057774 L76.6142585,118.057774 L76.6142585,118.826022 L74.8054289,118.826022 L74.8054289,125.710248 L73.9529423,125.710248 L73.9529423,118.826022 L72.1487286,118.826022 Z M82.8766456,124.141673 C83.4830506,123.528921 83.7859646,122.776252 83.7859646,121.884242 C83.7859646,120.988482 83.4836276,120.235236 82.879242,119.624215 C82.2745678,119.012905 81.524495,118.707106 80.6290234,118.707106 C79.6807582,118.707106 78.9174149,119.017521 78.3389933,119.638928 C77.7611487,120.260046 77.4720822,121.008676 77.4720822,121.884242 C77.4720822,122.779425 77.7726883,123.53296 78.374189,124.144269 C78.9754013,124.755578 79.7269166,125.061089 80.6290234,125.061089 C81.5213216,125.061089 82.2702405,124.754713 82.8766456,124.141673 Z M80.6290234,117.90424 C81.7688457,117.90424 82.7223036,118.284181 83.4888204,119.044062 C84.2553372,119.804232 84.6384513,120.750766 84.6384513,121.884242 C84.6384513,123.004447 84.2521638,123.947519 83.4790118,124.714036 C82.7055712,125.480841 81.7555751,125.863955 80.6290234,125.863955 C79.4990098,125.863955 78.5481482,125.479976 77.7767271,124.711728 C77.0050176,123.94348 76.6195955,123.000985 76.6195955,121.884242 C76.6195955,120.750766 77.0018442,119.804232 77.76663,119.044062 C78.5314158,118.284181 79.4857393,117.90424 80.6290234,117.90424 Z M89.4510341,124.104486 L92.3304484,117.84484 L93.5400851,125.710219 L92.6777898,125.710219 L91.9441609,120.491443 L89.4314168,125.923413 L86.9232886,120.491443 L86.1896596,125.710219 L85.3175557,125.710219 L86.5468097,117.84484 L89.4510341,124.104486 Z M94.7692525,125.710335 L94.7692525,118.057861 L95.6217392,118.057861 L95.6217392,125.710335 L94.7692525,125.710335 Z M99.1751805,121.195069 C100.602627,121.961586 101.31635,122.786089 101.31635,123.66829 C101.31635,124.349125 101.104887,124.885139 100.68225,125.276619 C100.259036,125.6681 99.6809027,125.863984 98.9472737,125.863984 C98.44184,125.863984 97.999874,125.7483 97.6213757,125.516931 C97.2431659,125.285851 96.9682354,124.965051 96.7962956,124.555396 L97.405874,124.035249 C97.5215583,124.355472 97.7206161,124.606747 98.0033359,124.788495 C98.2857672,124.970244 98.6120489,125.060829 98.9818925,125.060829 C99.4446297,125.060829 99.8069726,124.941972 100.070075,124.704256 C100.332601,124.466252 100.463863,124.131027 100.463863,123.698005 C100.463863,123.347778 100.342409,123.043133 100.099501,122.783781 C99.8565928,122.524141 99.449534,122.254114 98.8780362,121.973125 C98.2003743,121.639632 97.7286938,121.314215 97.4627065,120.996877 C97.1970076,120.679827 97.0640139,120.278249 97.0640139,119.792721 C97.0640139,119.22757 97.255571,118.771757 97.6389736,118.424415 C98.0220877,118.077651 98.5292524,117.904269 99.1604675,117.904269 C99.5435816,117.904269 99.8805374,117.979565 100.171335,118.129579 C100.462132,118.280171 100.708214,118.505769 100.910157,118.806376 L100.330004,119.346428 C100.217782,119.145062 100.055074,118.988124 99.8421683,118.875613 C99.6286861,118.763102 99.3883743,118.707135 99.1209444,118.707135 C98.7473505,118.707135 98.4533796,118.801183 98.2384549,118.989566 C98.0238186,119.17795 97.9165005,119.432398 97.9165005,119.75291 C97.9165005,120.043707 97.9981431,120.288058 98.1617167,120.486539 C98.3252902,120.684443 98.6483985,120.914369 99.1307531,121.175452 L99.1751805,121.195069 Z M103.849029,122.667087 L106.386583,122.667087 L105.117806,119.713243 L103.849029,122.667087 Z M101.594194,125.710363 L105.117806,117.844696 L108.636801,125.710363 L107.695171,125.710363 L106.699017,123.395523 L103.521881,123.395523 L102.535536,125.710363 L101.594194,125.710363 Z M108.126233,118.826022 L108.126233,118.057774 L112.591762,118.057774 L112.591762,118.826022 L110.782933,118.826022 L110.782933,125.710248 L109.930446,125.710248 L109.930446,118.826022 L108.126233,118.826022 Z M113.350288,125.710335 L113.350288,118.057861 L114.202775,118.057861 L114.202775,125.710335 L113.350288,125.710335 Z M121.604955,124.141673 C122.21136,123.528921 122.514274,122.776252 122.514274,121.884242 C122.514274,120.988482 122.211937,120.235236 121.607552,119.624215 C121.002877,119.012905 120.252805,118.707106 119.357333,118.707106 C118.409068,118.707106 117.645724,119.017521 117.067303,119.638928 C116.489458,120.260046 116.200392,121.008676 116.200392,121.884242 C116.200392,122.779425 116.500998,123.53296 117.102499,124.144269 C117.703711,124.755578 118.455226,125.061089 119.357333,125.061089 C120.249631,125.061089 120.99855,124.754713 121.604955,124.141673 Z M119.357333,117.90424 C120.497155,117.90424 121.450613,118.284181 122.21713,119.044062 C122.983647,119.804232 123.366761,120.750766 123.366761,121.884242 C123.366761,123.004447 122.980473,123.947519 122.207321,124.714036 C121.433881,125.480841 120.483885,125.863955 119.357333,125.863955 C118.227319,125.863955 117.276458,125.479976 116.505037,124.711728 C115.733327,123.94348 115.347905,123.000985 115.347905,121.884242 C115.347905,120.750766 115.730154,119.804232 116.49494,119.044062 C117.259725,118.284181 118.214049,117.90424 119.357333,117.90424 Z M130.499117,123.861636 L130.499117,118.057803 L131.351604,118.057803 L131.351604,125.923182 L125.424009,119.891731 L125.424009,125.710277 L124.571522,125.710277 L124.571522,117.844898 L130.499117,123.861636 Z" id="形状结合" fill="#FFFFFF"></path>
                    <path d="M6.18348519,109.268969 L6.18348519,102.235016 L1.03739239e-12,90.0607568 L2.19223215,90.0607568 L6.65487712,99.4407063 L7.13694318,100.51331 L7.61900923,99.4407063 L12.0816542,90.0607568 L14.2733094,90.0607568 L8.08982419,102.235593 L8.08982419,109.268969 L6.18348519,109.268969 Z M61.0782015,109.268969 L60.7129737,109.268969 L52.360624,90.0607568 L54.4230358,90.0607568 L60.8955876,104.912199 L67.3684278,90.0607568 L69.4305511,90.0607568 L61.0782015,109.268969 Z M113.96027,109.268969 L113.621295,109.268969 L108.191345,90.0607568 L110.1499,90.0607568 L114.064992,103.950952 L119.626494,90.0607568 L119.938351,90.0607568 L125.499853,103.950952 L129.414944,90.0607568 L131.373212,90.0607568 L125.943261,109.268969 L125.604286,109.268969 L119.782567,94.7290948 L113.96027,109.268969 Z M33.252345,107.801711 C37.7461469,107.801711 41.389193,104.158664 41.389193,99.6648627 C41.389193,95.1710608 37.7461469,91.5280147 33.252345,91.5280147 C28.7585432,91.5280147 25.115497,95.1710608 25.115497,99.6648627 C25.115497,104.158664 28.7585432,107.801711 33.252345,107.801711 Z M43.3901566,99.6648627 C43.3901566,105.263868 38.8513504,109.802674 33.252345,109.802674 C27.6533397,109.802674 23.1145335,105.263868 23.1145335,99.6648627 C23.1145335,94.0661458 27.6533397,89.5270511 33.252345,89.5270511 C38.8513504,89.5270511 43.3901566,94.0661458 43.3901566,99.6648627 Z M88.6151644,107.801711 C93.1089663,107.801711 96.7520124,104.158664 96.7520124,99.6648627 C96.7520124,95.1710608 93.1089663,91.5280147 88.6151644,91.5280147 C84.1213626,91.5280147 80.4783165,95.1710608 80.4783165,99.6648627 C80.4783165,104.158664 84.1213626,107.801711 88.6151644,107.801711 Z M88.6151644,89.5270511 C94.2141698,89.5270511 98.752976,94.0661458 98.752976,99.6648627 C98.752976,105.263868 94.2141698,109.802674 88.6151644,109.802674 C83.0164476,109.802674 78.4773529,105.263868 78.4773529,99.6648627 C78.4773529,94.0661458 83.0164476,89.5270511 88.6151644,89.5270511 Z" id="形状" fill="#FFFFFF"></path>
                    <path d="M42.4971083,39.8779116 C50.2597853,32.1152346 59.8301379,22.5451705 67.4540515,14.9209684 L92.3778184,14.9209684 L92.3778184,64.8022555 L42.4971083,64.8022555 L42.4971083,39.8779116 Z M42.4971083,14.9209684 L64.152577,14.9209684 C50.8924429,28.181391 55.850136,23.2236979 42.4971083,36.5767256 L42.4971083,14.9209684 Z M39.2285216,43.1464983 L39.2285216,68.0705537 L95.6461166,68.0705537 L95.6461166,11.6526702 L70.7226382,11.6526702 C76.5126236,5.86239631 80.5682098,1.80709859 80.7248596,1.65044876 L80.7248596,4.26325641e-14 L79.0741224,4.26325641e-14 C74.2779835,4.79585041 70.4759796,8.5978543 67.4214522,11.6526702 L39.2285216,11.6526702 L39.2285216,39.8453123 C36.3473764,42.7264575 32.8058786,46.2676668 28.4009315,50.6726139 L28.4009315,53.9737999 C28.8016435,53.5730879 33.1711064,49.2036251 39.2285216,43.1464983 L39.2285216,43.1464983 Z" id="Fill-39" fill="url(#linearGradient-1)"></path>
                </g>
            </g>
        </g>
    </g>
</svg>