<?xml version="1.0" encoding="UTF-8"?>
<svg width="144px" height="144px" viewBox="0 0 144 144" version="1.1" xmlns="http://www.w3.org/2000/svg" xmlns:xlink="http://www.w3.org/1999/xlink">
    <!-- Generator: Sketch 56.2 (81672) - https://sketch.com -->
    <title>编组 5</title>
    <desc>Created with Sketch.</desc>
    <defs>
        <linearGradient x1="78.5089546%" y1="100%" x2="21.4910454%" y2="0%" id="linearGradient-1">
            <stop stop-color="#5B3C42" offset="0%"></stop>
            <stop stop-color="#B6979E" offset="100%"></stop>
        </linearGradient>
    </defs>
    <g id="Page-2" stroke="none" stroke-width="1" fill="none" fill-rule="evenodd">
        <g id="手机端P2" transform="translate(-574.000000, -160.000000)">
            <g id="编组-5" transform="translate(574.000000, 160.000000)">
                <rect id="矩形备份" fill="#FFFFFF" opacity="0" x="0" y="0" width="144" height="144"></rect>
                <g id="编组-3" transform="translate(50.000000, 23.000000)" fill="url(#linearGradient-1)">
                    <path d="M40.7667906,22.5 L42.0445684,11 L32.117265,11 L33.3950428,22.5 L40.7667906,22.5 L40.7667906,22.5 Z M42.7790985,22.5 L49.131966,22.5 L54.881966,11 L44.0568762,11 L42.7790985,22.5 Z M47.2933163,2 L26.8685171,2 L31.5351838,9 L42.6266497,9 L47.2933163,2 Z M49.1790651,2.7769281 L45.0303505,9 L54.3649584,9 L49.1790651,2.7769281 L49.1790651,2.7769281 Z M31.382735,22.5 L30.1049572,11 L19.118034,11 L24.868034,22.5 L31.382735,22.5 L31.382735,22.5 Z M24.9108423,2.66903914 L19.6350416,9 L29.1314829,9 L24.9108423,2.66903914 L24.9108423,2.66903914 Z M51.1873233,22.8614215 L63.1629509,34.8370491 C77.6123497,49.2864479 77.6123497,72.7135521 63.1629509,87.1629509 C48.7135521,101.61235 25.2864479,101.61235 10.8370491,87.1629509 C-3.6123497,72.7135521 -3.6123497,49.2864479 10.8370491,34.8370491 L22.8126767,22.8614215 L16.3130882,9.86224428 L24.5316251,0 L49.4683749,0 L57.6869118,9.86224428 L51.1873233,22.8614215 Z M49.9974747,24.5 L24.0025253,24.5 L12.2512627,36.2512627 C-1.41708755,49.9196129 -1.41708755,72.0803871 12.2512627,85.7487373 C25.9196129,99.4170876 48.0803871,99.4170876 61.7487373,85.7487373 C75.4170876,72.0803871 75.4170876,49.9196129 61.7487373,36.2512627 L49.9974747,24.5 Z M15.7867966,39.7867966 C27.5025253,28.0710678 46.4974747,28.0710678 58.2132034,39.7867966 C69.9289322,51.5025253 69.9289322,70.4974747 58.2132034,82.2132034 C46.4974747,93.9289322 27.5025253,93.9289322 15.7867966,82.2132034 C4.07106781,70.4974747 4.07106781,51.5025253 15.7867966,39.7867966 Z M17.2010101,41.2010101 C6.26632996,52.1356903 6.26632996,69.8643097 17.2010101,80.7989899 C28.1356903,91.73367 45.8643097,91.73367 56.7989899,80.7989899 C67.73367,69.8643097 67.73367,52.1356903 56.7989899,41.2010101 C45.8643097,30.26633 28.1356903,30.26633 17.2010101,41.2010101 Z" id="形状"></path>
                </g>
            </g>
        </g>
    </g>
</svg>