<?xml version="1.0" encoding="UTF-8"?>
<svg width="144px" height="144px" viewBox="0 0 144 144" version="1.1" xmlns="http://www.w3.org/2000/svg" xmlns:xlink="http://www.w3.org/1999/xlink">
    <!-- Generator: Sketch 56.2 (81672) - https://sketch.com -->
    <title>编组 4</title>
    <desc>Created with Sketch.</desc>
    <defs>
        <linearGradient x1="98.7952161%" y1="100%" x2="1.20478388%" y2="0%" id="linearGradient-1">
            <stop stop-color="#5B3C42" offset="0%"></stop>
            <stop stop-color="#B6979E" offset="100%"></stop>
        </linearGradient>
    </defs>
    <g id="Page-2" stroke="none" stroke-width="1" fill="none" fill-rule="evenodd">
        <g id="手机端P2" transform="translate(-32.000000, -160.000000)">
            <g id="编组-4" transform="translate(32.000000, 160.000000)">
                <rect id="矩形" fill="#FFFFFF" opacity="0" x="0" y="0" width="144" height="144"></rect>
                <g id="分组" transform="translate(7.000000, 9.000000)">
                    <g id="编组-2">
                        <path d="M78.489,-4.54747351e-13 L66.923,11.567 L38.939,11.567 L38.939,39.55 L28.191,50.297 L28.191,53.575 L38.939,42.828 L38.939,67.567 L94.939,67.567 L94.939,11.567 L70.2,11.567 L80.128,1.639 L80.128,-4.54747351e-13 L78.489,-4.54747351e-13 Z M42.183,39.583 L66.956,14.811 L91.695,14.811 L91.695,64.323 L42.183,64.323 L42.183,39.583 Z M63.679,14.811 L42.183,36.306 L42.183,14.811 L63.679,14.811 Z" id="Fill-1" fill="url(#linearGradient-1)"></path>
                        <g id="分组" transform="translate(0.000000, 88.019000)" fill="#FFFFFF">
                            <path d="M87.9599,0.8457 C93.5179,0.8457 98.0229,5.3517 98.0229,10.9087 C98.0229,16.4657 93.5179,20.9717 87.9599,20.9717 C82.4019,20.9717 77.8969,16.4657 77.8969,10.9087 C77.8969,5.3517 82.4019,0.8457 87.9599,0.8457 L87.9599,0.8457 Z M107.3909,1.3757 L109.3349,1.3757 L113.2219,15.1627 L118.7419,1.3757 L119.0509,1.3757 L124.5719,15.1627 L128.4579,1.3757 L130.4019,1.3757 L125.0119,20.4417 L124.6749,20.4417 L118.8969,6.0097 L113.1179,20.4417 L112.7809,20.4417 L107.3909,1.3757 Z M60.4449,16.1167 L66.8699,1.3757 L68.9169,1.3757 L60.6269,20.4417 L60.2639,20.4417 L51.9739,1.3757 L54.0209,1.3757 L60.4449,16.1167 Z M6.6059,10.6857 L2.1759,1.3757 L-0.0001,1.3757 L6.1379,13.4597 L6.1379,20.4417 L8.0299,20.4417 L8.0299,13.4607 L14.1679,1.3757 L11.9919,1.3757 L7.5629,10.6857 L7.0839,11.7507 L6.6059,10.6857 Z M33.0059,0.8457 C38.5639,0.8457 43.0689,5.3517 43.0689,10.9087 C43.0689,16.4657 38.5639,20.9717 33.0059,20.9717 C27.4489,20.9717 22.9429,16.4657 22.9429,10.9087 C22.9429,5.3517 27.4489,0.8457 33.0059,0.8457 L33.0059,0.8457 Z M33.0059,2.8317 C37.4669,2.8317 41.0829,6.4477 41.0829,10.9087 C41.0829,15.3697 37.4669,18.9857 33.0059,18.9857 C28.5459,18.9857 24.9299,15.3697 24.9299,10.9087 C24.9299,6.4477 28.5459,2.8317 33.0059,2.8317 L33.0059,2.8317 Z M87.9599,2.8317 C92.4199,2.8317 96.0369,6.4477 96.0369,10.9087 C96.0369,15.3697 92.4199,18.9857 87.9599,18.9857 C83.4989,18.9857 79.8829,15.3697 79.8829,10.9087 C79.8829,6.4477 83.4989,2.8317 87.9599,2.8317 L87.9599,2.8317 Z" id="Fill-2"></path>
                            <path d="M35.1684,36.8018 L35.1684,28.7368 L37.1754,28.7368 C37.9354,28.7428 38.5954,28.8138 39.1584,28.9438 C39.4444,29.0098 39.7434,29.1318 40.0574,29.3058 C40.7594,29.7148 41.2624,30.2708 41.5684,30.9718 C41.7014,31.2638 41.7914,31.5628 41.8434,31.8698 C41.9014,32.1488 41.9354,32.4218 41.9414,32.6928 L41.9414,33.0418 C41.9354,33.3718 41.8944,33.6748 41.8214,33.9528 C41.6754,34.6098 41.3764,35.1918 40.9234,35.6948 C40.6024,36.0308 40.2694,36.2758 39.9244,36.4298 C39.4444,36.6488 38.8434,36.7698 38.1274,36.7908 L37.9624,36.8018 L35.1684,36.8018 Z M38.0194,29.5918 C37.6314,29.5618 37.2484,29.5388 36.8684,29.5238 L35.9374,29.5238 L35.9374,36.0458 L37.2404,36.0458 C37.6064,36.0388 37.9744,36.0158 38.3484,35.9808 C38.6974,35.9508 38.9974,35.8968 39.2464,35.8158 C39.5604,35.7058 39.8594,35.5298 40.1454,35.2888 C40.4224,35.0488 40.6414,34.7628 40.8024,34.4338 C41.0004,34.0038 41.1084,33.5398 41.1314,33.0418 L41.1314,32.7238 C41.1164,32.4048 41.0734,32.1038 41.0004,31.8268 C40.9054,31.5048 40.7684,31.2058 40.5944,30.9268 C40.4264,30.6578 40.1664,30.3938 39.8164,30.1398 C39.5374,29.9558 39.2384,29.8218 38.9174,29.7338 C38.5954,29.6528 38.2954,29.6048 38.0194,29.5918 L38.0194,29.5918 Z M44.5224,36.8018 L45.3224,36.8018 L45.3224,28.7368 L44.5224,28.7368 L44.5224,36.8018 Z M47.5844,36.8018 C48.8484,34.1138 50.1164,31.4248 51.3884,28.7368 L51.5854,28.7368 L55.3444,36.8018 L54.4664,36.8018 L53.2064,34.1498 L49.7334,34.1498 L48.4724,36.8018 L47.5844,36.8018 Z M51.4764,30.4348 L51.3764,30.6538 C50.9824,31.4708 50.5954,32.2908 50.2154,33.1078 C50.1704,33.1958 50.1354,33.2838 50.1054,33.3718 L52.8564,33.3718 L51.4764,30.4348 Z M57.3434,36.8018 C57.7234,34.1138 58.1064,31.4248 58.4944,28.7368 L58.6264,28.7368 L61.9034,35.3668 L65.1474,28.7368 L65.2664,28.7368 L66.4294,36.8018 L65.6514,36.8018 L64.8394,31.0378 L61.9914,36.8018 L61.7814,36.8018 L59.0534,31.3008 C59.0104,31.1978 58.9614,31.0918 58.9114,30.9828 C58.6394,32.9338 58.3744,34.8738 58.1104,36.8018 L57.3434,36.8018 Z M72.5274,28.5608 L72.8224,28.5388 L73.1514,28.5388 C73.7654,28.5538 74.3714,28.6998 74.9714,28.9758 C75.6354,29.3128 76.2024,29.8328 76.6694,30.5338 C76.8584,30.8338 76.9994,31.1328 77.0864,31.4318 C77.2034,31.8418 77.2654,32.2328 77.2724,32.6048 L77.2724,32.9338 C77.2504,33.5978 77.0964,34.1998 76.8124,34.7428 C76.6594,35.0418 76.4474,35.3408 76.1764,35.6398 C75.8614,35.9768 75.5124,36.2578 75.1254,36.4838 C74.5774,36.7828 73.9804,36.9548 73.3384,36.9998 L73.2174,36.9998 L72.8784,36.9998 C72.5644,36.9928 72.2634,36.9518 71.9794,36.8788 C71.6804,36.8128 71.3804,36.7028 71.0814,36.5488 C70.0364,35.9728 69.3384,35.1578 68.9864,34.1068 C68.8714,33.7118 68.8054,33.3358 68.7904,32.9768 L68.7904,32.6478 C68.8134,32.0198 68.9664,31.4208 69.2504,30.8498 C69.5944,30.1638 70.0864,29.6118 70.7304,29.1968 C71.2854,28.8458 71.8834,28.6338 72.5274,28.5608 L72.5274,28.5608 Z M72.8884,29.3168 C72.4934,29.3388 72.1174,29.4228 71.7604,29.5688 C71.0814,29.8388 70.5294,30.3098 70.1054,30.9828 C69.8064,31.5008 69.6454,32.0568 69.6224,32.6478 L69.6224,32.9448 C69.6454,33.2798 69.6954,33.5788 69.7754,33.8428 C69.9594,34.4858 70.3804,35.0658 71.0364,35.5858 C71.5924,35.9878 72.2054,36.1998 72.8784,36.2218 L73.1634,36.2218 C73.5054,36.2068 73.8064,36.1548 74.0614,36.0688 C74.3754,35.9728 74.6744,35.8308 74.9604,35.6398 C75.6044,35.2028 76.0344,34.6358 76.2524,33.9418 C76.3634,33.6358 76.4284,33.2908 76.4514,32.9118 L76.4514,32.6158 C76.4364,32.3088 76.3854,32.0098 76.2974,31.7158 C76.2104,31.4018 76.0674,31.1028 75.8694,30.8188 C75.5404,30.3438 75.1174,29.9748 74.5974,29.7108 C74.1094,29.4628 73.6264,29.3318 73.1514,29.3168 L72.8884,29.3168 Z M80.0274,36.8018 L80.0274,28.7368 L80.2034,28.7368 L85.5614,34.9168 L85.5614,28.7368 L86.3624,28.7368 L86.3624,36.8018 L86.1754,36.8018 C85.0944,35.5668 84.0204,34.3328 82.9544,33.0988 C82.2534,32.2938 81.5514,31.4978 80.8504,30.7078 L80.8504,36.8018 L80.0274,36.8018 Z M89.4464,36.8018 L89.4464,28.7368 L91.4534,28.7368 C92.2124,28.7428 92.8734,28.8138 93.4364,28.9438 C93.7224,29.0098 94.0214,29.1318 94.3354,29.3058 C95.0374,29.7148 95.5404,30.2708 95.8464,30.9718 C95.9794,31.2638 96.0694,31.5628 96.1214,31.8698 C96.1794,32.1488 96.2134,32.4218 96.2194,32.6928 L96.2194,33.0418 C96.2134,33.3718 96.1724,33.6748 96.0994,33.9528 C95.9534,34.6098 95.6544,35.1918 95.2014,35.6948 C94.8794,36.0308 94.5464,36.2758 94.2024,36.4298 C93.7224,36.6488 93.1214,36.7698 92.4054,36.7908 L92.2404,36.8018 L89.4464,36.8018 Z M92.2964,29.5918 C91.9094,29.5618 91.5264,29.5388 91.1474,29.5238 L90.2154,29.5238 L90.2154,36.0458 L91.5194,36.0458 C91.8834,36.0388 92.2514,36.0158 92.6264,35.9808 C92.9764,35.9508 93.2744,35.8968 93.5234,35.8158 C93.8384,35.7058 94.1374,35.5298 94.4234,35.2888 C94.7004,35.0488 94.9184,34.7628 95.0804,34.4338 C95.2784,34.0038 95.3864,33.5398 95.4094,33.0418 L95.4094,32.7238 C95.3944,32.4048 95.3514,32.1038 95.2784,31.8268 C95.1834,31.5048 95.0464,31.2058 94.8724,30.9268 C94.7044,30.6578 94.4444,30.3938 94.0944,30.1398 C93.8154,29.9558 93.5164,29.8218 93.1944,29.7338 C92.8734,29.6528 92.5734,29.6048 92.2964,29.5918 L92.2964,29.5918 Z" id="Fill-4"></path>
                        </g>
                    </g>
                </g>
            </g>
        </g>
    </g>
</svg>