<?xml version="1.0" encoding="UTF-8"?>
<svg width="480px" height="584px" viewBox="0 0 480 584" version="1.1" xmlns="http://www.w3.org/2000/svg" xmlns:xlink="http://www.w3.org/1999/xlink">
    <!-- Generator: Sketch 56.2 (81672) - https://sketch.com -->
    <title>编组 4备份</title>
    <desc>Created with Sketch.</desc>
    <defs>
        <linearGradient x1="83.7774442%" y1="100%" x2="16.2225558%" y2="0%" id="linearGradient-1">
            <stop stop-color="#5B3C42" stop-opacity="0.598202579" offset="0%"></stop>
            <stop stop-color="#B6979E" offset="100%"></stop>
        </linearGradient>
        <path d="M4,0 L476,0 C478.209139,-4.05812251e-16 480,1.790861 480,4 L480,580 C480,582.209139 478.209139,584 476,584 L4,584 C1.790861,584 2.705415e-16,582.209139 0,580 L0,4 C-2.705415e-16,1.790861 1.790861,4.05812251e-16 4,0 Z" id="path-2"></path>
    </defs>
    <g id="Page-2" stroke="none" stroke-width="1" fill="none" fill-rule="evenodd">
        <g id="编组-4备份">
            <g id="编组复制-4">
                <mask id="mask-3" fill="white">
                    <use xlink:href="#path-2"></use>
                </mask>
                <use id="矩形-copy-3" fill="url(#linearGradient-1)" xlink:href="#path-2"></use>
                <polygon id="矩形" fill="#FFFFFF" mask="url(#mask-3)" points="460 0 480 0 480 20"></polygon>
                <g id="编组-2" mask="url(#mask-3)">
                    <g transform="translate(61.000000, 448.000000)" id="编组-39">
                        <g transform="translate(0.888000, 0.912000)">
                            <path d="M9.86,0.552 L12.332,0.552 L12.332,2.592 L21.404,2.592 L21.404,4.92 L12.332,4.92 L12.332,7.272 L19.94,7.272 L19.94,15.576 L3.38,15.576 L3.38,7.272 L9.86,7.272 L9.86,0.552 Z M17.444,13.272 L17.444,9.6 L5.876,9.6 L5.876,13.272 L17.444,13.272 Z M3.332,16.272 L5.42,17.28 C4.556,19.32 3.572,21.096 2.42,22.584 L0.356,21.072 C1.508,19.728 2.492,18.144 3.332,16.272 Z M9.26,17.064 C9.74,18.6 10.148,20.232 10.532,22.008 L8.012,22.608 C7.724,20.688 7.34,19.008 6.908,17.544 L9.26,17.064 Z M14.228,16.728 C14.9,18.336 15.5,20.088 16.028,21.96 L13.532,22.56 C13.1,20.544 12.548,18.744 11.876,17.208 L14.228,16.728 Z M19.004,16.152 C20.492,18.12 21.644,19.824 22.46,21.264 L20.348,22.704 C19.508,21.12 18.38,19.368 16.964,17.448 L19.004,16.152 Z M26.612,3.672 L34.172,3.672 L34.172,0.552 L36.764,0.552 L36.764,3.672 L44.204,3.672 L44.204,6.048 L36.764,6.048 L36.764,9.312 L46.172,9.312 L46.172,11.712 L36.764,11.712 L36.764,19.392 L41.66,19.392 L41.66,13.344 L44.036,13.344 L44.036,22.632 L41.66,22.632 L41.66,21.696 L29.3,21.696 L29.3,22.632 L26.924,22.632 L26.924,13.344 L29.3,13.344 L29.3,19.392 L34.172,19.392 L34.172,11.712 L24.788,11.712 L24.788,9.312 L34.172,9.312 L34.172,6.048 L26.612,6.048 L26.612,3.672 Z M68.252,10.632 L68.252,22.632 L65.78,22.632 L65.78,21.456 L56.732,21.456 L56.732,22.632 L54.236,22.632 L54.236,13.752 C52.844,15.36 51.236,16.728 49.46,17.832 L48.14,15.456 C51.692,13.152 54.284,10.008 55.94,6 L49.028,6 L49.028,3.576 L56.804,3.576 C57.14,2.496 57.404,1.368 57.62,0.216 L60.188,0.528 C59.972,1.584 59.732,2.592 59.468,3.576 L70.244,3.576 L70.244,6 L58.7,6 C58.076,7.68 57.332,9.24 56.492,10.632 L68.252,10.632 Z M56.732,19.056 L65.78,19.056 L65.78,13.008 L56.732,13.008 L56.732,19.056 Z M81.044,0.384 L83.636,0.384 L83.636,7.512 L92.516,7.512 L92.516,9.936 L83.636,9.936 L83.636,19.32 L94.292,19.32 L94.292,21.768 L72.716,21.768 L72.716,19.32 L81.044,19.32 L81.044,0.384 Z M101.828,12.888 L101.828,12.984 C101.804,13.704 101.756,14.376 101.684,15.024 L106.652,15.024 L106.652,12.888 L101.828,12.888 Z M101.324,17.232 C100.796,19.344 99.908,21.168 98.636,22.704 L96.716,20.952 C98.444,18.936 99.332,16.344 99.38,13.176 L99.38,8.064 C98.948,8.376 98.492,8.664 98.06,8.952 L96.452,7.008 C99.236,5.424 101.636,3.144 103.676,0.216 L106.196,0.792 C105.908,1.224 105.596,1.656 105.308,2.088 L113.852,2.088 L113.852,3.912 C113.012,4.728 112.172,5.472 111.332,6.096 L116.876,6.096 L116.876,20.088 C116.876,21.672 115.94,22.464 114.116,22.464 L111.116,22.464 L110.516,20.16 C111.548,20.232 112.508,20.28 113.396,20.28 C114.068,20.28 114.404,19.92 114.404,19.224 L114.404,17.232 L109.124,17.232 L109.124,22.152 L106.652,22.152 L106.652,17.232 L101.324,17.232 Z M114.404,15.024 L114.404,12.888 L109.124,12.888 L109.124,15.024 L114.404,15.024 Z M114.404,10.68 L114.404,8.352 L109.124,8.352 L109.124,10.68 L114.404,10.68 Z M101.804,6.096 L107.828,6.096 C108.668,5.544 109.508,4.92 110.372,4.248 L103.604,4.248 C103.028,4.896 102.428,5.52 101.804,6.096 Z M106.652,8.352 L101.828,8.352 L101.828,10.68 L106.652,10.68 L106.652,8.352 Z M148.148,2.0250468e-13 L148.148,1.584 C147.476,1.8 146.924,2.184 146.492,2.76 C146.06,3.288 145.844,3.864 145.868,4.44 C145.988,4.368 146.18,4.344 146.468,4.344 C146.972,4.344 147.404,4.512 147.788,4.872 C148.124,5.232 148.316,5.688 148.316,6.24 C148.316,6.792 148.124,7.248 147.74,7.608 C147.356,7.944 146.876,8.136 146.3,8.136 C145.628,8.136 145.1,7.848 144.668,7.32 C144.236,6.792 144.044,6.096 144.044,5.28 C144.044,3.984 144.404,2.88 145.148,1.944 C145.868,0.984 146.876,0.336 148.148,2.0250468e-13 Z M142.316,2.0250468e-13 L142.316,1.584 C141.644,1.8 141.116,2.184 140.684,2.76 C140.228,3.288 140.012,3.864 140.036,4.44 C140.156,4.368 140.348,4.344 140.636,4.344 C141.14,4.344 141.572,4.512 141.932,4.872 C142.292,5.232 142.484,5.688 142.484,6.24 C142.484,6.792 142.292,7.248 141.932,7.608 C141.548,7.944 141.044,8.136 140.468,8.136 C139.796,8.136 139.268,7.848 138.86,7.32 C138.428,6.792 138.212,6.096 138.212,5.28 C138.212,3.984 138.572,2.88 139.316,1.944 C140.036,0.984 141.044,0.336 142.316,2.0250468e-13 Z M215.78,2.0250468e-13 C216.428,2.0250468e-13 216.98,0.264 217.412,0.792 C217.82,1.32 218.036,2.016 218.036,2.856 C218.036,4.128 217.652,5.232 216.932,6.192 C216.188,7.128 215.18,7.776 213.932,8.136 L213.932,6.552 C214.58,6.312 215.132,5.928 215.588,5.4 C216.02,4.824 216.212,4.272 216.212,3.696 C216.068,3.744 215.876,3.792 215.612,3.792 C215.084,3.792 214.652,3.6 214.292,3.24 C213.932,2.88 213.764,2.424 213.764,1.896 C213.764,1.32 213.956,0.864 214.34,0.528 C214.7,0.168 215.18,2.0250468e-13 215.78,2.0250468e-13 Z M209.948,2.0250468e-13 C210.596,2.0250468e-13 211.124,0.264 211.556,0.792 C211.988,1.32 212.204,2.016 212.204,2.856 C212.204,4.128 211.82,5.232 211.1,6.192 C210.356,7.128 209.348,7.776 208.1,8.136 L208.1,6.552 C208.748,6.312 209.3,5.928 209.732,5.4 C210.164,4.824 210.38,4.272 210.38,3.696 C210.236,3.744 210.044,3.792 209.78,3.792 C209.252,3.792 208.82,3.6 208.484,3.24 C208.1,2.88 207.932,2.424 207.932,1.896 C207.932,1.32 208.1,0.864 208.484,0.528 C208.868,0.168 209.348,2.0250468e-13 209.948,2.0250468e-13 Z M245.132,0.792 L247.292,2.112 C246.188,4.08 245.06,5.712 243.932,6.96 C242.828,8.208 241.244,9.576 239.132,11.088 L237.764,8.856 C239.252,8.04 240.692,6.888 242.036,5.376 C243.116,4.128 244.148,2.616 245.132,0.792 Z M245.78,12.072 L241.46,12.072 L241.46,9.648 L256.052,9.648 C255.956,12.768 255.812,15.264 255.572,17.184 C255.332,19.104 254.948,20.424 254.372,21.192 C253.82,21.912 252.932,22.32 251.708,22.392 L247.1,22.392 L246.428,19.92 C247.844,19.968 249.188,20.016 250.436,20.016 C251.612,20.016 252.38,19.512 252.764,18.552 C253.148,17.544 253.412,15.384 253.508,12.072 L248.324,12.072 C247.772,14.52 247.028,16.464 246.068,17.928 C244.82,19.68 242.972,21.264 240.524,22.656 L238.892,20.568 C241.052,19.416 242.684,18.144 243.788,16.752 C244.628,15.552 245.3,13.992 245.78,12.072 Z M252.644,0.504 C253.94,4.08 256.364,6.912 259.916,8.976 L258.212,10.968 C254.516,8.592 251.924,5.52 250.46,1.728 L252.644,0.504 Z M265.34,5.328 L280.388,5.328 L280.388,10.68 L265.34,10.68 L265.34,5.328 Z M277.964,8.568 L277.964,7.44 L267.764,7.44 L267.764,8.568 L277.964,8.568 Z M273.02,0.312 C273.332,0.84 273.644,1.44 273.932,2.088 L283.364,2.088 L283.364,4.44 L262.34,4.44 L262.34,2.088 L271.052,2.088 C270.764,1.632 270.452,1.2 270.116,0.792 L273.02,0.312 Z M261.812,16.104 L272.036,16.104 L272.036,15.504 L276.26,13.824 L264.14,13.824 L264.14,11.616 L281.3,11.616 L281.3,13.368 C279.38,14.184 277.124,15.096 274.58,16.104 L283.892,16.104 L283.892,18.36 L274.508,18.36 L274.508,19.968 C274.508,21.696 273.644,22.584 271.94,22.584 L268.628,22.584 L267.956,20.352 C269.228,20.448 270.236,20.496 270.956,20.496 C271.676,20.496 272.036,20.064 272.036,19.248 L272.036,18.36 L261.812,18.36 L261.812,16.104 Z M294.596,17.328 L294.596,19.68 C292.196,20.544 289.484,21.264 286.412,21.816 L286.1,19.368 C289.34,18.864 292.172,18.192 294.596,17.328 Z M289.772,0.288 L292.124,1.176 C290.996,3.984 289.844,6.288 288.692,8.064 L290.852,7.776 C291.236,6.96 291.668,6.12 292.1,5.208 L294.332,6.072 C292.484,9.696 290.924,12.36 289.676,14.064 C291.14,13.728 292.628,13.296 294.14,12.768 L294.14,15 C291.524,15.912 289.052,16.536 286.748,16.848 L286.076,14.592 C286.532,14.4 286.916,14.16 287.204,13.872 C287.876,13.152 288.692,11.856 289.7,10.008 C288.644,10.152 287.516,10.32 286.364,10.488 L285.764,8.208 C286.148,8.04 286.484,7.728 286.796,7.296 C287.948,5.16 288.932,2.832 289.772,0.288 Z M306.236,12.264 L306.236,22.296 L303.788,22.296 L303.788,21.24 L298.028,21.24 L298.028,22.296 L295.628,22.296 L295.628,12.264 L306.236,12.264 Z M298.028,18.864 L303.788,18.864 L303.788,14.616 L298.028,14.616 L298.028,18.864 Z M299.78,0.456 L302.084,0.456 C303.428,3.24 305.468,5.544 308.204,7.392 L306.74,9.552 C306.02,9.048 305.396,8.52 304.82,7.968 L304.82,9.984 L296.9,9.984 L296.9,8.064 C296.3,8.64 295.7,9.168 295.076,9.648 L293.612,7.536 C296.156,5.712 298.196,3.336 299.78,0.456 Z M297.308,7.656 L304.532,7.656 C303.092,6.216 301.892,4.584 300.932,2.76 C299.828,4.656 298.628,6.288 297.308,7.656 Z M313.604,0.168 L316.052,0.408 C315.788,1.944 315.524,3.36 315.284,4.68 L319.22,4.68 L319.22,6.048 C319.076,9.792 318.356,13.032 317.084,15.792 C318.356,16.8 319.412,17.688 320.228,18.504 L318.524,20.472 C317.78,19.704 316.892,18.888 315.884,18.024 C314.732,19.848 313.316,21.408 311.588,22.752 L309.86,20.616 C311.492,19.416 312.86,18.024 313.916,16.392 C312.836,15.504 311.66,14.592 310.388,13.656 C311.084,11.64 311.708,9.456 312.284,7.104 L310.076,7.104 L310.076,4.68 L312.812,4.68 C313.1,3.216 313.364,1.704 313.604,0.168 Z M315.068,14.28 C316.004,12.168 316.58,9.768 316.772,7.104 L314.78,7.104 C314.252,9.408 313.7,11.328 313.124,12.888 C313.82,13.368 314.468,13.824 315.068,14.28 Z M319.7,10.176 L324.812,10.176 L324.812,7.536 C325.964,6.48 327.092,5.232 328.196,3.792 L320.372,3.792 L320.372,1.344 L331.076,1.344 L331.076,3.792 C329.972,5.376 328.724,6.888 327.332,8.304 L327.332,10.176 L331.916,10.176 L331.916,12.624 L327.332,12.624 L327.332,19.512 C327.332,21.384 326.612,22.32 325.22,22.32 L321.62,22.32 L320.972,19.944 C321.932,19.968 323.012,19.992 324.188,19.992 C324.596,19.992 324.812,19.584 324.812,18.768 L324.812,12.624 L319.7,12.624 L319.7,10.176 Z M334.508,3.408 L340.844,3.408 C340.964,2.424 341.084,1.416 341.18,0.384 L343.7,0.384 C343.604,1.44 343.484,2.448 343.364,3.408 L355.508,3.408 L355.508,5.856 L343.004,5.856 C342.836,6.864 342.668,7.824 342.476,8.736 L353.252,8.736 L353.252,10.92 C352.388,13.416 350.996,15.552 349.1,17.376 C350.972,18.648 353.228,19.608 355.868,20.28 L354.596,22.56 C351.596,21.72 349.1,20.544 347.132,19.032 C345.116,20.496 342.692,21.72 339.86,22.68 L338.564,20.28 C341.228,19.56 343.484,18.6 345.308,17.4 C343.676,15.72 342.5,13.728 341.828,11.424 C341.588,12.288 341.324,13.08 341.06,13.8 C339.788,17.016 337.892,19.872 335.396,22.416 L333.788,20.328 C335.996,18.072 337.652,15.528 338.78,12.696 C339.452,10.824 340.028,8.544 340.484,5.856 L334.508,5.856 L334.508,3.408 Z M344.036,11.064 C344.756,12.936 345.812,14.544 347.252,15.888 C348.788,14.496 349.916,12.888 350.636,11.064 L344.036,11.064 Z" id="点击右上角“”分享给好友" fill="#FFFFFF" fill-rule="nonzero"></path>
                            <path d="M163.112,15.088 C160.902861,15.088 159.112,13.297139 159.112,11.088 C159.112,8.878861 160.902861,7.088 163.112,7.088 C165.321139,7.088 167.112,8.878861 167.112,11.088 C167.112,13.297139 165.321139,15.088 163.112,15.088 Z M179.112,15.088 C176.902861,15.088 175.112,13.297139 175.112,11.088 C175.112,8.878861 176.902861,7.088 179.112,7.088 C181.321139,7.088 183.112,8.878861 183.112,11.088 C183.112,13.297139 181.321139,15.088 179.112,15.088 Z M195.112,15.088 C192.902861,15.088 191.112,13.297139 191.112,11.088 C191.112,8.878861 192.902861,7.088 195.112,7.088 C197.321139,7.088 199.112,8.878861 199.112,11.088 C199.112,13.297139 197.321139,15.088 195.112,15.088 Z" id="形状" fill="#FFFFFF"></path>
                        </g>
                    </g>
                </g>
                <path d="M83.904,288.04 C83.352,291.256 81.024,293.128 77.976,293.128 C76.296,293.128 74.76,292.504 73.608,291.352 C72,289.744 72,288.064 72,284.44 C72,280.816 72,279.136 73.608,277.528 C74.76,276.376 76.296,275.752 77.976,275.752 C81.048,275.752 83.328,277.624 83.904,280.84 L82.032,280.84 C81.576,278.752 80.112,277.384 77.976,277.384 C76.848,277.384 75.768,277.816 75.024,278.584 C73.944,279.688 73.824,280.864 73.824,284.44 C73.824,288.016 73.944,289.192 75.024,290.296 C75.768,291.064 76.848,291.496 77.976,291.496 C80.112,291.496 81.624,290.128 82.08,288.04 L83.904,288.04 Z M91.824,292.984 L90.576,292.984 C88.512,292.984 87.576,291.64 87.576,289.84 L87.576,275.896 L89.304,275.896 L89.304,289.768 C89.304,290.92 89.688,291.496 90.888,291.496 L91.824,291.496 L91.824,292.984 Z M96.48,292.984 L94.752,292.984 L94.752,281.176 L96.48,281.176 L96.48,292.984 Z M96.6,277.816 L94.656,277.816 L94.656,275.872 L96.6,275.872 L96.6,277.816 Z M109.296,291.376 C108.072,292.696 107.04,293.128 105.408,293.128 C102.432,293.128 100.176,291.112 100.176,287.08 C100.176,283.048 102.432,281.032 105.408,281.032 C107.04,281.032 108.072,281.464 109.296,282.784 L108.12,283.888 C107.232,282.904 106.536,282.568 105.408,282.568 C104.256,282.568 103.296,283.024 102.672,283.912 C102.12,284.68 101.904,285.592 101.904,287.08 C101.904,288.568 102.12,289.48 102.672,290.248 C103.296,291.136 104.256,291.592 105.408,291.592 C106.536,291.592 107.232,291.232 108.12,290.248 L109.296,291.376 Z M122.496,292.984 L120.36,292.984 L116.616,286.936 L114.312,289.576 L114.312,292.984 L112.584,292.984 L112.584,275.896 L114.312,275.896 L114.312,287.32 L119.64,281.176 L121.8,281.176 L117.792,285.688 L122.496,292.984 Z M137.568,277.912 L135.456,277.912 L135.456,275.896 L137.568,274 L137.568,277.912 Z M133.464,277.912 L131.376,277.912 L131.376,275.896 L133.464,274 L133.464,277.912 Z M144.048,287.632 L141.792,287.632 L141.792,285.376 L144.048,285.376 L144.048,287.632 Z M150.528,287.632 L148.272,287.632 L148.272,285.376 L150.528,285.376 L150.528,287.632 Z M157.008,287.632 L154.752,287.632 L154.752,285.376 L157.008,285.376 L157.008,287.632 Z M167.424,277.912 L165.312,279.808 L165.312,275.896 L167.424,275.896 L167.424,277.912 Z M163.32,277.912 L161.232,279.808 L161.232,275.896 L163.32,275.896 L163.32,277.912 Z M179.4,292.984 L177.672,292.984 L177.672,281.176 L179.4,281.176 L179.4,292.984 Z M179.52,277.816 L177.576,277.816 L177.576,275.872 L179.52,275.872 L179.52,277.816 Z M193.032,292.984 L191.304,292.984 L191.304,285.712 C191.304,283.624 190.176,282.568 188.4,282.568 C186.624,282.568 185.472,283.648 185.472,285.712 L185.472,292.984 L183.744,292.984 L183.744,281.176 L185.472,281.176 L185.472,282.472 C186.312,281.512 187.464,281.032 188.784,281.032 C190.056,281.032 191.088,281.416 191.808,282.136 C192.648,282.952 193.032,284.056 193.032,285.424 L193.032,292.984 Z M207.744,292.984 L206.52,292.984 C204.504,292.984 203.496,291.568 203.496,289.816 L203.496,282.568 L202.008,282.568 L202.008,281.248 L203.496,281.248 L203.496,277.552 L205.224,277.552 L205.224,281.248 L207.744,281.248 L207.744,282.568 L205.224,282.568 L205.224,289.768 C205.224,290.848 205.728,291.496 206.832,291.496 L207.744,291.496 L207.744,292.984 Z M220.464,292.984 L218.736,292.984 L218.736,285.688 C218.736,283.624 217.632,282.568 215.856,282.568 C214.08,282.568 212.904,283.648 212.904,285.688 L212.904,292.984 L211.176,292.984 L211.176,275.896 L212.904,275.896 L212.904,282.472 C213.768,281.488 214.896,281.032 216.216,281.032 C218.88,281.032 220.464,282.736 220.464,285.4 L220.464,292.984 Z M233.712,287.536 L225.744,287.536 C225.744,290.128 226.968,291.616 229.224,291.616 C230.592,291.616 231.384,291.208 232.32,290.272 L233.496,291.304 C232.296,292.504 231.192,293.128 229.176,293.128 C226.056,293.128 224.016,291.256 224.016,287.08 C224.016,283.264 225.864,281.032 228.864,281.032 C231.912,281.032 233.712,283.24 233.712,286.744 L233.712,287.536 Z M231.984,286.24 C231.936,285.28 231.888,284.92 231.624,284.272 C231.168,283.192 230.112,282.496 228.864,282.496 C227.616,282.496 226.56,283.192 226.104,284.272 C225.84,284.92 225.792,285.28 225.744,286.24 L231.984,286.24 Z M247.896,292.984 L246.672,292.984 C244.656,292.984 243.648,291.568 243.648,289.816 L243.648,282.568 L242.16,282.568 L242.16,281.248 L243.648,281.248 L243.648,277.552 L245.376,277.552 L245.376,281.248 L247.896,281.248 L247.896,282.568 L245.376,282.568 L245.376,289.768 C245.376,290.848 245.88,291.496 246.984,291.496 L247.896,291.496 L247.896,292.984 Z M260.352,287.08 C260.352,288.904 260.112,290.56 258.912,291.784 C258.096,292.6 256.968,293.128 255.528,293.128 C254.088,293.128 252.96,292.6 252.144,291.784 C250.944,290.56 250.704,288.904 250.704,287.08 C250.704,285.256 250.944,283.6 252.144,282.376 C252.96,281.56 254.088,281.032 255.528,281.032 C256.968,281.032 258.096,281.56 258.912,282.376 C260.112,283.6 260.352,285.256 260.352,287.08 Z M258.624,287.08 C258.624,285.76 258.552,284.296 257.688,283.432 C257.136,282.88 256.368,282.568 255.528,282.568 C254.688,282.568 253.944,282.88 253.392,283.432 C252.528,284.296 252.432,285.76 252.432,287.08 C252.432,288.4 252.528,289.864 253.392,290.728 C253.944,291.28 254.688,291.592 255.528,291.592 C256.368,291.592 257.136,291.28 257.688,290.728 C258.552,289.864 258.624,288.4 258.624,287.08 Z M273.432,287.08 C273.432,288.928 273.192,290.896 271.992,292.096 C271.368,292.72 270.312,293.128 269.112,293.128 C267.816,293.128 266.736,292.816 265.776,291.592 L265.776,298.264 L264.048,298.264 L264.048,281.176 L265.776,281.176 L265.776,282.568 C266.736,281.32 267.816,281.032 269.112,281.032 C270.312,281.032 271.368,281.44 271.992,282.064 C273.192,283.264 273.432,285.232 273.432,287.08 Z M271.704,287.08 C271.704,284.776 271.32,282.568 268.752,282.568 C266.184,282.568 265.776,284.776 265.776,287.08 C265.776,289.384 266.184,291.592 268.752,291.592 C271.32,291.592 271.704,289.384 271.704,287.08 Z M290.976,282.136 L289.704,283.432 C289.056,282.784 288.576,282.568 287.664,282.568 C285.936,282.568 284.832,283.936 284.832,285.736 L284.832,292.984 L283.104,292.984 L283.104,281.176 L284.832,281.176 L284.832,282.616 C285.48,281.632 286.776,281.032 288.144,281.032 C289.272,281.032 290.136,281.296 290.976,282.136 Z M294.936,292.984 L293.208,292.984 L293.208,281.176 L294.936,281.176 L294.936,292.984 Z M295.056,277.816 L293.112,277.816 L293.112,275.872 L295.056,275.872 L295.056,277.816 Z M307.992,293.344 C307.992,296.272 306.168,298.408 303.072,298.408 C301.296,298.408 300.312,297.952 299.064,296.824 L300.192,295.72 C301.056,296.488 301.656,296.896 303.024,296.896 C305.304,296.896 306.264,295.288 306.264,293.272 L306.264,291.424 C305.304,292.648 304.224,292.96 302.952,292.96 C301.752,292.96 300.72,292.528 300.096,291.904 C298.92,290.728 298.656,288.904 298.656,286.984 C298.656,285.064 298.92,283.24 300.096,282.064 C300.72,281.44 301.776,281.032 302.976,281.032 C304.272,281.032 305.328,281.32 306.288,282.568 L306.288,281.176 L307.992,281.176 L307.992,293.344 Z M306.264,286.984 C306.264,284.776 305.904,282.568 303.336,282.568 C300.768,282.568 300.384,284.776 300.384,286.984 C300.384,289.192 300.768,291.4 303.336,291.4 C305.904,291.4 306.264,289.192 306.264,286.984 Z M321.6,292.984 L319.872,292.984 L319.872,285.688 C319.872,283.624 318.768,282.568 316.992,282.568 C315.216,282.568 314.04,283.648 314.04,285.688 L314.04,292.984 L312.312,292.984 L312.312,275.896 L314.04,275.896 L314.04,282.472 C314.904,281.488 316.032,281.032 317.352,281.032 C320.016,281.032 321.6,282.736 321.6,285.4 L321.6,292.984 Z M330.336,292.984 L329.112,292.984 C327.096,292.984 326.088,291.568 326.088,289.816 L326.088,282.568 L324.6,282.568 L324.6,281.248 L326.088,281.248 L326.088,277.552 L327.816,277.552 L327.816,281.248 L330.336,281.248 L330.336,282.568 L327.816,282.568 L327.816,289.768 C327.816,290.848 328.32,291.496 329.424,291.496 L330.336,291.496 L330.336,292.984 Z M348.216,291.376 C346.992,292.696 345.96,293.128 344.328,293.128 C341.352,293.128 339.096,291.112 339.096,287.08 C339.096,283.048 341.352,281.032 344.328,281.032 C345.96,281.032 346.992,281.464 348.216,282.784 L347.04,283.888 C346.152,282.904 345.456,282.568 344.328,282.568 C343.176,282.568 342.216,283.024 341.592,283.912 C341.04,284.68 340.824,285.592 340.824,287.08 C340.824,288.568 341.04,289.48 341.592,290.248 C342.216,291.136 343.176,291.592 344.328,291.592 C345.456,291.592 346.152,291.232 347.04,290.248 L348.216,291.376 Z M360.528,287.08 C360.528,288.904 360.288,290.56 359.088,291.784 C358.272,292.6 357.144,293.128 355.704,293.128 C354.264,293.128 353.136,292.6 352.32,291.784 C351.12,290.56 350.88,288.904 350.88,287.08 C350.88,285.256 351.12,283.6 352.32,282.376 C353.136,281.56 354.264,281.032 355.704,281.032 C357.144,281.032 358.272,281.56 359.088,282.376 C360.288,283.6 360.528,285.256 360.528,287.08 Z M358.8,287.08 C358.8,285.76 358.728,284.296 357.864,283.432 C357.312,282.88 356.544,282.568 355.704,282.568 C354.864,282.568 354.12,282.88 353.568,283.432 C352.704,284.296 352.608,285.76 352.608,287.08 C352.608,288.4 352.704,289.864 353.568,290.728 C354.12,291.28 354.864,291.592 355.704,291.592 C356.544,291.592 357.312,291.28 357.864,290.728 C358.728,289.864 358.8,288.4 358.8,287.08 Z M372.096,282.136 L370.824,283.432 C370.176,282.784 369.696,282.568 368.784,282.568 C367.056,282.568 365.952,283.936 365.952,285.736 L365.952,292.984 L364.224,292.984 L364.224,281.176 L365.952,281.176 L365.952,282.616 C366.6,281.632 367.896,281.032 369.264,281.032 C370.392,281.032 371.256,281.296 372.096,282.136 Z M383.616,292.984 L381.888,292.984 L381.888,285.712 C381.888,283.624 380.76,282.568 378.984,282.568 C377.208,282.568 376.056,283.648 376.056,285.712 L376.056,292.984 L374.328,292.984 L374.328,281.176 L376.056,281.176 L376.056,282.472 C376.896,281.512 378.048,281.032 379.368,281.032 C380.64,281.032 381.672,281.416 382.392,282.136 C383.232,282.952 383.616,284.056 383.616,285.424 L383.616,292.984 Z M396.864,287.536 L388.896,287.536 C388.896,290.128 390.12,291.616 392.376,291.616 C393.744,291.616 394.536,291.208 395.472,290.272 L396.648,291.304 C395.448,292.504 394.344,293.128 392.328,293.128 C389.208,293.128 387.168,291.256 387.168,287.08 C387.168,283.264 389.016,281.032 392.016,281.032 C395.064,281.032 396.864,283.24 396.864,286.744 L396.864,287.536 Z M395.136,286.24 C395.088,285.28 395.04,284.92 394.776,284.272 C394.32,283.192 393.264,282.496 392.016,282.496 C390.768,282.496 389.712,283.192 389.256,284.272 C388.992,284.92 388.944,285.28 388.896,286.24 L395.136,286.24 Z M408.408,282.136 L407.136,283.432 C406.488,282.784 406.008,282.568 405.096,282.568 C403.368,282.568 402.264,283.936 402.264,285.736 L402.264,292.984 L400.536,292.984 L400.536,281.176 L402.264,281.176 L402.264,282.616 C402.912,281.632 404.208,281.032 405.576,281.032 C406.704,281.032 407.568,281.296 408.408,282.136 Z M136.392,328.984 L135.168,328.984 C133.152,328.984 132.144,327.568 132.144,325.816 L132.144,318.568 L130.656,318.568 L130.656,317.248 L132.144,317.248 L132.144,313.552 L133.872,313.552 L133.872,317.248 L136.392,317.248 L136.392,318.568 L133.872,318.568 L133.872,325.768 C133.872,326.848 134.376,327.496 135.48,327.496 L136.392,327.496 L136.392,328.984 Z M148.848,323.08 C148.848,324.904 148.608,326.56 147.408,327.784 C146.592,328.6 145.464,329.128 144.024,329.128 C142.584,329.128 141.456,328.6 140.64,327.784 C139.44,326.56 139.2,324.904 139.2,323.08 C139.2,321.256 139.44,319.6 140.64,318.376 C141.456,317.56 142.584,317.032 144.024,317.032 C145.464,317.032 146.592,317.56 147.408,318.376 C148.608,319.6 148.848,321.256 148.848,323.08 Z M147.12,323.08 C147.12,321.76 147.048,320.296 146.184,319.432 C145.632,318.88 144.864,318.568 144.024,318.568 C143.184,318.568 142.44,318.88 141.888,319.432 C141.024,320.296 140.928,321.76 140.928,323.08 C140.928,324.4 141.024,325.864 141.888,326.728 C142.44,327.28 143.184,327.592 144.024,327.592 C144.864,327.592 145.632,327.28 146.184,326.728 C147.048,325.864 147.12,324.4 147.12,323.08 Z M167.04,325.528 C167.04,327.808 165.096,329.128 162.24,329.128 C160.248,329.128 158.688,328.672 157.392,327.424 L158.544,326.272 C159.48,327.256 160.752,327.64 162.216,327.64 C164.16,327.64 165.36,326.944 165.36,325.552 C165.36,324.52 164.76,323.944 163.392,323.824 L161.448,323.656 C159.144,323.464 157.92,322.432 157.92,320.488 C157.92,318.328 159.744,317.032 162.264,317.032 C163.944,317.032 165.456,317.44 166.512,318.304 L165.384,319.432 C164.544,318.784 163.464,318.496 162.24,318.496 C160.512,318.496 159.6,319.24 159.6,320.44 C159.6,321.448 160.176,322.048 161.664,322.168 L163.56,322.336 C165.624,322.528 167.04,323.32 167.04,325.528 Z M179.712,328.984 L177.984,328.984 L177.984,321.688 C177.984,319.624 176.88,318.568 175.104,318.568 C173.328,318.568 172.152,319.648 172.152,321.688 L172.152,328.984 L170.424,328.984 L170.424,311.896 L172.152,311.896 L172.152,318.472 C173.016,317.488 174.144,317.032 175.464,317.032 C178.128,317.032 179.712,318.736 179.712,321.4 L179.712,328.984 Z M192.336,328.984 L190.608,328.984 L190.608,327.856 C189.648,328.816 188.784,329.128 187.2,329.128 C185.568,329.128 184.608,328.816 183.864,328.048 C183.288,327.472 182.976,326.584 182.976,325.648 C182.976,323.584 184.416,322.24 187.056,322.24 L190.608,322.24 L190.608,321.112 C190.608,319.384 189.744,318.52 187.584,318.52 C186.072,318.52 185.304,318.88 184.608,319.864 L183.432,318.784 C184.488,317.416 185.688,317.032 187.608,317.032 C190.776,317.032 192.336,318.4 192.336,320.968 L192.336,328.984 Z M190.608,324.808 L190.608,323.536 L187.296,323.536 C185.52,323.536 184.656,324.256 184.656,325.624 C184.656,326.992 185.496,327.64 187.368,327.64 C188.376,327.64 189.264,327.568 190.008,326.848 C190.416,326.464 190.608,325.792 190.608,324.808 Z M204.408,318.136 L203.136,319.432 C202.488,318.784 202.008,318.568 201.096,318.568 C199.368,318.568 198.264,319.936 198.264,321.736 L198.264,328.984 L196.536,328.984 L196.536,317.176 L198.264,317.176 L198.264,318.616 C198.912,317.632 200.208,317.032 201.576,317.032 C202.704,317.032 203.568,317.296 204.408,318.136 Z M215.688,323.536 L207.72,323.536 C207.72,326.128 208.944,327.616 211.2,327.616 C212.568,327.616 213.36,327.208 214.296,326.272 L215.472,327.304 C214.272,328.504 213.168,329.128 211.152,329.128 C208.032,329.128 205.992,327.256 205.992,323.08 C205.992,319.264 207.84,317.032 210.84,317.032 C213.888,317.032 215.688,319.24 215.688,322.744 L215.688,323.536 Z M213.96,322.24 C213.912,321.28 213.864,320.92 213.6,320.272 C213.144,319.192 212.088,318.496 210.84,318.496 C209.592,318.496 208.536,319.192 208.08,320.272 C207.816,320.92 207.768,321.28 207.72,322.24 L213.96,322.24 Z M240.288,317.176 L236.568,328.984 L234.96,328.984 L231.864,319.816 L228.792,328.984 L227.184,328.984 L223.44,317.176 L225.312,317.176 L228.024,326.656 L231.12,317.176 L232.608,317.176 L235.728,326.656 L238.416,317.176 L240.288,317.176 Z M244.44,328.984 L242.712,328.984 L242.712,317.176 L244.44,317.176 L244.44,328.984 Z M244.56,313.816 L242.616,313.816 L242.616,311.872 L244.56,311.872 L244.56,313.816 Z M253.32,328.984 L252.096,328.984 C250.08,328.984 249.072,327.568 249.072,325.816 L249.072,318.568 L247.584,318.568 L247.584,317.248 L249.072,317.248 L249.072,313.552 L250.8,313.552 L250.8,317.248 L253.32,317.248 L253.32,318.568 L250.8,318.568 L250.8,325.768 C250.8,326.848 251.304,327.496 252.408,327.496 L253.32,327.496 L253.32,328.984 Z M266.04,328.984 L264.312,328.984 L264.312,321.688 C264.312,319.624 263.208,318.568 261.432,318.568 C259.656,318.568 258.48,319.648 258.48,321.688 L258.48,328.984 L256.752,328.984 L256.752,311.896 L258.48,311.896 L258.48,318.472 C259.344,317.488 260.472,317.032 261.792,317.032 C264.456,317.032 266.04,318.736 266.04,321.4 L266.04,328.984 Z M280.848,318.568 L278.328,318.568 L278.328,328.984 L276.6,328.984 L276.6,318.568 L275.088,318.568 L275.088,317.248 L276.6,317.248 L276.6,315.016 C276.6,313.264 277.584,311.848 279.6,311.848 L280.848,311.848 L280.848,313.336 L279.912,313.336 C278.808,313.336 278.328,313.984 278.328,315.064 L278.328,317.248 L280.848,317.248 L280.848,318.568 Z M291.624,318.136 L290.352,319.432 C289.704,318.784 289.224,318.568 288.312,318.568 C286.584,318.568 285.48,319.936 285.48,321.736 L285.48,328.984 L283.752,328.984 L283.752,317.176 L285.48,317.176 L285.48,318.616 C286.128,317.632 287.424,317.032 288.792,317.032 C289.92,317.032 290.784,317.296 291.624,318.136 Z M295.584,328.984 L293.856,328.984 L293.856,317.176 L295.584,317.176 L295.584,328.984 Z M295.704,313.816 L293.76,313.816 L293.76,311.872 L295.704,311.872 L295.704,313.816 Z M308.976,323.536 L301.008,323.536 C301.008,326.128 302.232,327.616 304.488,327.616 C305.856,327.616 306.648,327.208 307.584,326.272 L308.76,327.304 C307.56,328.504 306.456,329.128 304.44,329.128 C301.32,329.128 299.28,327.256 299.28,323.08 C299.28,319.264 301.128,317.032 304.128,317.032 C307.176,317.032 308.976,319.24 308.976,322.744 L308.976,323.536 Z M307.248,322.24 C307.2,321.28 307.152,320.92 306.888,320.272 C306.432,319.192 305.376,318.496 304.128,318.496 C302.88,318.496 301.824,319.192 301.368,320.272 C301.104,320.92 301.056,321.28 301.008,322.24 L307.248,322.24 Z M321.936,328.984 L320.208,328.984 L320.208,321.712 C320.208,319.624 319.08,318.568 317.304,318.568 C315.528,318.568 314.376,319.648 314.376,321.712 L314.376,328.984 L312.648,328.984 L312.648,317.176 L314.376,317.176 L314.376,318.472 C315.216,317.512 316.368,317.032 317.688,317.032 C318.96,317.032 319.992,317.416 320.712,318.136 C321.552,318.952 321.936,320.056 321.936,321.424 L321.936,328.984 Z M334.896,328.984 L333.192,328.984 L333.192,327.568 C332.232,328.816 331.128,329.128 329.832,329.128 C328.632,329.128 327.576,328.72 326.952,328.096 C325.752,326.896 325.512,324.928 325.512,323.08 C325.512,321.232 325.752,319.264 326.952,318.064 C327.576,317.44 328.632,317.032 329.832,317.032 C331.128,317.032 332.208,317.32 333.168,318.544 L333.168,311.896 L334.896,311.896 L334.896,328.984 Z M333.168,323.08 C333.168,320.776 332.784,318.568 330.216,318.568 C327.648,318.568 327.24,320.776 327.24,323.08 C327.24,325.384 327.648,327.592 330.216,327.592 C332.784,327.592 333.168,325.384 333.168,323.08 Z M347.736,325.528 C347.736,327.808 345.792,329.128 342.936,329.128 C340.944,329.128 339.384,328.672 338.088,327.424 L339.24,326.272 C340.176,327.256 341.448,327.64 342.912,327.64 C344.856,327.64 346.056,326.944 346.056,325.552 C346.056,324.52 345.456,323.944 344.088,323.824 L342.144,323.656 C339.84,323.464 338.616,322.432 338.616,320.488 C338.616,318.328 340.44,317.032 342.96,317.032 C344.64,317.032 346.152,317.44 347.208,318.304 L346.08,319.432 C345.24,318.784 344.16,318.496 342.936,318.496 C341.208,318.496 340.296,319.24 340.296,320.44 C340.296,321.448 340.872,322.048 342.36,322.168 L344.256,322.336 C346.32,322.528 347.736,323.32 347.736,325.528 Z" id="Click“···”inthetoprightcornertosharewithfriends" fill="#FFFFFF" fill-rule="nonzero" mask="url(#mask-3)"></path>
            </g>
            <path d="M272.387554,159.923055 L244.203963,194.686344 L253.698969,159.923055 L272.387554,159.923055 Z M272.673327,155.928184 L255.520183,155.928184 L263.184354,141.715876 L272.673327,155.928184 Z M229.192385,155.928184 L220.575244,139.948703 L259.593376,139.948703 L250.976235,155.928184 L229.192385,155.928184 Z M230.616588,159.923055 L249.552032,159.923055 L240.08431,194.586448 L230.616588,159.923055 Z M207.612446,159.923055 L226.46965,159.923055 L236.050327,195 L207.612446,159.923055 Z M207.326673,155.928184 L216.908925,141.576165 L224.648436,155.928184 L207.326673,155.928184 Z M236.999388,100 L243.000612,100 L243.000612,115.979481 L236.999388,115.979481 L236.999388,100 Z M180.5,151.080756 L181.542101,145.179487 L197.302238,147.954295 L196.260137,153.855564 L180.5,151.080756 Z M298.457899,145.179487 L299.5,151.080756 L283.739863,153.855564 L282.697762,147.954295 L298.457899,145.179487 Z M197.983745,117.814466 L202.580949,113.962686 L212.867647,126.203679 L208.270443,130.055459 L197.983745,117.814466 Z M277.419051,113.962686 L282.016255,117.814466 L271.729557,130.055459 L267.132353,126.203679 L277.419051,113.962686 Z" id="形状结合" fill="#FFFFFF"></path>
        </g>
    </g>
</svg>