<?xml version="1.0" encoding="UTF-8"?>
<svg width="32px" height="32px" viewBox="0 0 32 32" version="1.1" xmlns="http://www.w3.org/2000/svg" xmlns:xlink="http://www.w3.org/1999/xlink">
    <!-- Generator: Sketch 56.2 (81672) - https://sketch.com -->
    <title>分组 20备份</title>
    <desc>Created with Sketch.</desc>
    <g id="Page-2" stroke="none" stroke-width="1" fill="none" fill-rule="evenodd">
        <g id="分组-20备份">
            <g id="编组-28">
                <rect id="矩形" fill="#FFFFFF" opacity="0" x="0" y="0" width="32" height="32"></rect>
                <path d="M16.5563492,12.3847763 L3.82842712,25.1126984 L6.65685425,27.9411255 L19.3847763,15.2132034 L16.5563492,12.3847763 Z M16.5563492,9.55634919 L22.2132034,15.2132034 L6.65685425,30.7695526 L1,25.1126984 L16.5563492,9.55634919 Z M26.4558441,3.89949494 L27.8700577,5.3137085 L23.627417,9.55634919 L22.2132034,8.14213562 L26.4558441,3.89949494 Z M5.24264069,5.3137085 L6.65685425,3.89949494 L10.8994949,8.14213562 L9.48528137,9.55634919 L5.24264069,5.3137085 Z M27.8700577,25.1126984 L26.4558441,26.5269119 L22.2132034,22.2842712 L23.627417,20.8700577 L27.8700577,25.1126984 Z M15.5563492,0.213203436 L17.5563492,0.213203436 L17.5563492,6.21320344 L15.5563492,6.21320344 L15.5563492,0.213203436 Z M31.5563492,14.2132034 L31.5563492,16.2132034 L25.5563492,16.2132034 L25.5563492,14.2132034 L31.5563492,14.2132034 Z" id="形状" fill="#E4BAB3"></path>
            </g>
        </g>
    </g>
</svg>