<?xml version="1.0" encoding="UTF-8"?>
<svg width="32px" height="32px" viewBox="0 0 32 32" version="1.1" xmlns="http://www.w3.org/2000/svg" xmlns:xlink="http://www.w3.org/1999/xlink">
    <!-- Generator: Sketch 56.2 (81672) - https://sketch.com -->
    <title>分组 21备份</title>
    <desc>Created with Sketch.</desc>
    <g id="Page-2" stroke="none" stroke-width="1" fill="none" fill-rule="evenodd">
        <g id="分组-21备份">
            <g id="编组-26">
                <rect id="矩形" fill="#FFFFFF" opacity="0" x="0" y="0" width="32" height="32"></rect>
                <path d="M8.0255479,7 L29,7 L26,22 L10.677033,22 L9.47703296,25 L26,25 C27.1045695,25 28,25.8954305 28,27 C28,28.1045695 27.1045695,29 26,29 C24.8954305,29 24,28.1045695 24,27 L10,27 C10,28.1045695 9.1045695,29 8,29 C6.8954305,29 6,28.1045695 6,27 C6,26.1539414 6.52534754,25.4305842 7.26763091,25.1383403 L8.84098901,21.2049451 L7.11357419,12.567871 L7.09452847,12.571659 L5.38969979,4 L1,4 L1,2 L7.03109123,2 L8.0255479,7 Z M8.0255479,7 L8.42333057,9 L8.43960781,9 L8.03960781,7 L8.0255479,7 Z M10.6396078,20 L24.3603922,20 L26.5603922,9 L8.43960781,9 L10.6396078,20 Z" id="合并形状" fill="#E4BAB3"></path>
            </g>
        </g>
    </g>
</svg>