<?xml version="1.0" encoding="UTF-8"?>
<svg width="32px" height="32px" viewBox="0 0 32 32" version="1.1" xmlns="http://www.w3.org/2000/svg" xmlns:xlink="http://www.w3.org/1999/xlink">
    <!-- Generator: Sketch 56.2 (81672) - https://sketch.com -->
    <title>分组 22备份</title>
    <desc>Created with Sketch.</desc>
    <g id="Page-2" stroke="none" stroke-width="1" fill="none" fill-rule="evenodd">
        <g id="分组-22备份">
            <g id="编组-25">
                <rect id="矩形" fill="#FFFFFF" opacity="0" x="0" y="0" width="32" height="32"></rect>
                <path d="M22.4703995,20.3356914 L29.0034416,27.1324963 L27.5615267,28.5184549 L21.0298713,21.7230997 C19.2373285,23.1484391 16.9681106,24 14.5,24 C8.70101013,24 4,19.2989899 4,13.5 C4,7.70101013 8.70101013,3 14.5,3 C20.2989899,3 25,7.70101013 25,13.5 C25,16.1106842 24.0472145,18.4988333 22.4703995,20.3356914 Z M14.5,22 C19.1944204,22 23,18.1944204 23,13.5 C23,8.80557963 19.1944204,5 14.5,5 C9.80557963,5 6,8.80557963 6,13.5 C6,18.1944204 9.80557963,22 14.5,22 Z" id="合并形状" fill="#E4BAB3"></path>
            </g>
        </g>
    </g>
</svg>