<?xml version="1.0" encoding="UTF-8"?>
<svg width="48px" height="48px" viewBox="0 0 48 48" version="1.1" xmlns="http://www.w3.org/2000/svg" xmlns:xlink="http://www.w3.org/1999/xlink">
    <!-- Generator: Sketch 56.2 (81672) - https://sketch.com -->
    <title>分组 21</title>
    <desc>Created with Sketch.</desc>
    <g id="Page-2" stroke="none" stroke-width="1" fill="none" fill-rule="evenodd">
        <g id="P9-购物车" transform="translate(-100.000000, -44.000000)">
            <g id="编组-10" transform="translate(100.000000, 44.000000)">
                <g id="分组-21">
                    <rect id="矩形" fill="#D8D8D8" opacity="0" x="0" y="0" width="48" height="48"></rect>
                    <path d="M13.5383219,10.5 L45,10.5 L40.5,33 L17.5155494,33 L15.7155494,37.5 L40.5,37.5 C42.1568542,37.5 43.5,38.8431458 43.5,40.5 C43.5,42.1568542 42.1568542,43.5 40.5,43.5 C38.8431458,43.5 37.5,42.1568542 37.5,40.5 L16.5,40.5 C16.5,42.1568542 15.1568542,43.5 13.5,43.5 C11.8431458,43.5 10.5,42.1568542 10.5,40.5 C10.5,39.2309121 11.2880213,38.1458764 12.4014464,37.7075105 L14.7614835,31.8074176 L12.1703613,18.8518064 L12.1417927,18.8574885 L9.58454969,6 L3,6 L3,3 L12.0466369,3 L13.5383219,10.5 L13.5594117,10.5 L14.1594117,13.5 L14.1349958,13.5 L13.5383219,10.5 Z M17.4594117,30 L38.0405883,30 L41.3405883,13.5 L14.1594117,13.5 L17.4594117,30 Z" id="合并形状" fill="#D29991"></path>
                </g>
            </g>
        </g>
    </g>
</svg>