<?xml version="1.0" encoding="UTF-8"?>
<svg width="200px" height="200px" viewBox="0 0 200 200" version="1.1" xmlns="http://www.w3.org/2000/svg" xmlns:xlink="http://www.w3.org/1999/xlink">
    <!-- Generator: Sketch 56.2 (81672) - https://sketch.com -->
    <title>编组 7</title>
    <desc>Created with Sketch.</desc>
    <g id="Page-2" stroke="none" stroke-width="1" fill="none" fill-rule="evenodd">
        <g id="P8-订单" transform="translate(-860.000000, -160.000000)">
            <g id="编组-17" transform="translate(100.000000, 120.000000)">
                <g id="编组-15">
                    <g id="编组-14" transform="translate(0.000000, -351.000000)">
                        <g id="编组-7" transform="translate(760.000000, 391.000000)">
                            <rect id="矩形" fill="#FFFFFF" opacity="0" x="0" y="0" width="200" height="200"></rect>
                            <path d="M118.54599,13 L120.833516,13 L120.833516,15.2942549 L106.977164,29.1913648 L141.504994,29.1913648 L141.504994,107.579575 L63.3466833,107.579575 L63.3466833,72.9501835 L48.3458705,87.9937209 L48.3458705,83.4052111 L63.3466833,68.3616736 L63.3466833,29.1913648 L102.403508,29.1913648 L118.54599,13 Z M67.8742826,68.4078667 L67.8742826,103.038658 L136.977395,103.038658 L136.977395,33.7322819 L102.449565,33.7322819 L67.8742826,68.4078667 Z M97.8759083,33.7322819 L67.8742826,33.7322819 L67.8742826,63.8207566 L97.8759083,33.7322819 Z M131.764375,137.391871 C139.521587,137.391871 145.809144,143.699323 145.809144,151.477953 C145.809144,159.256583 139.521587,165.564034 131.764375,165.564034 C124.007162,165.564034 117.719606,159.256583 117.719606,151.477953 C117.719606,143.699323 124.007162,137.391871 131.764375,137.391871 Z M158.883913,138.13376 L161.597123,138.13376 L167.022147,157.432657 L174.726323,138.13376 L175.15759,138.13376 L182.863162,157.432657 L188.28679,138.13376 L191,138.13376 L183.477263,164.822146 L183.006917,164.822146 L174.942654,144.620384 L166.876996,164.822146 L166.40665,164.822146 L158.883913,138.13376 Z M93.3621263,158.768056 L102.329397,138.13376 L105.186362,138.13376 L93.6161409,164.822146 L93.1095075,164.822146 L81.5392862,138.13376 L84.3962516,138.13376 L93.3621263,158.768056 Z M18.2198893,151.1658 L18.8870263,152.656576 L19.555559,151.1658 L25.7370439,138.13376 L28.7740525,138.13376 L20.2073434,155.050216 L20.2073434,164.822146 L17.5667091,164.822146 L17.5667091,155.048816 L9,138.13376 L12.0370086,138.13376 L18.2198893,151.1658 Z M55.0659499,137.391871 C62.8231622,137.391871 69.1107192,143.699323 69.1107192,151.477953 C69.1107192,159.256583 62.8231622,165.564034 55.0659499,165.564034 C47.3101333,165.564034 41.0211807,159.256583 41.0211807,151.477953 C41.0211807,143.699323 47.3101333,137.391871 55.0659499,137.391871 Z M55.0659499,140.171853 C48.8411988,140.171853 43.794405,145.233492 43.794405,151.477953 C43.794405,157.722414 48.8411988,162.784052 55.0659499,162.784052 C61.2920967,162.784052 66.3388905,157.722414 66.3388905,151.477953 C66.3388905,145.233492 61.2920967,140.171853 55.0659499,140.171853 Z M131.764375,140.171853 C125.538228,140.171853 120.491434,145.233492 120.491434,151.477953 C120.491434,157.722414 125.538228,162.784052 131.764375,162.784052 C137.989126,162.784052 143.037315,157.722414 143.037315,151.477953 C143.037315,145.233492 137.989126,140.171853 131.764375,140.171853 Z M58.0841168,187.722842 L58.0841168,176.43354 L60.8852548,176.43354 C61.9459748,176.441938 62.8671263,176.541323 63.6528964,176.723296 C64.0520621,176.815682 64.4693716,176.986456 64.9076164,177.23002 C65.8873867,177.802534 66.5894158,178.580817 67.0164951,179.562069 C67.2021211,179.970808 67.3277327,180.389345 67.4003083,180.81908 C67.481258,181.209621 67.5287112,181.591764 67.5370853,181.971107 L67.5370853,182.459633 C67.5287112,182.921564 67.4714882,183.3457 67.3696032,183.734841 C67.1658333,184.654503 66.7485238,185.469181 66.1162789,186.173275 C65.6682643,186.643604 65.2035015,186.986552 64.7219905,187.20212 C64.0520621,187.508674 63.2132559,187.678048 62.2139461,187.707444 L61.9836582,187.722842 L58.0841168,187.722842 Z M62.0632122,177.63036 C61.5216868,177.588366 60.9871398,177.556171 60.4567798,177.535174 L59.1573979,177.535174 L59.1573979,186.664601 L60.9759743,186.664601 C61.4867947,186.654802 62.0004064,186.622607 62.5223923,186.573615 C63.0094861,186.531621 63.4281913,186.456032 63.7757166,186.342649 C64.2139614,186.188672 64.631271,185.942309 65.0304366,185.60496 C65.4170411,185.269011 65.722696,184.868671 65.9474011,184.40814 C66.2237466,183.806231 66.3744805,183.156728 66.4065812,182.459633 L66.4065812,182.0145 C66.3856459,181.567967 66.3256315,181.146631 66.2237466,180.758889 C66.0911566,180.308157 65.8999479,179.88962 65.6570988,179.499079 C65.4226239,179.122535 65.059746,178.752991 64.5712566,178.397444 C64.1818607,178.139883 63.7645512,177.952311 63.3165366,177.82913 C62.8671263,177.715747 62.448421,177.648557 62.0632122,177.63036 Z M71.139346,187.722842 L71.139346,176.43354 L72.2558933,176.43354 L72.2558933,187.722842 L71.139346,187.722842 Z M75.4129308,187.722842 C77.1770755,183.960208 78.946803,180.196174 80.7221132,176.43354 L80.9970629,176.43354 L86.2434395,187.722842 L85.0180289,187.722842 L83.2594669,184.0106 L78.4122559,184.0106 L76.6522983,187.722842 L75.4129308,187.722842 Z M80.8449334,178.810382 L80.7053649,179.116936 C80.1554654,180.260564 79.6153357,181.408391 79.0849757,182.552019 C79.0221699,182.675201 78.973321,182.798382 78.9314504,182.921564 L82.7709774,182.921564 L80.8449334,178.810382 Z M89.0334121,187.722842 C89.563772,183.960208 90.098319,180.196174 90.6398445,176.43354 L90.8240748,176.43354 L95.3977316,185.714144 L99.9253309,176.43354 L100.091417,176.43354 L101.714598,187.722842 L100.628756,187.722842 L99.4954602,179.654455 L95.5205518,187.722842 L95.2274582,187.722842 L91.4200319,180.0226 C91.3600175,179.878421 91.291629,179.730044 91.2218448,179.577467 C90.8422187,182.308456 90.4723624,185.024048 90.1039018,187.722842 L89.0334121,187.722842 Z M110.22548,176.187177 L110.637206,176.156381 L111.096387,176.156381 C111.953337,176.177378 112.799121,176.381747 113.636532,176.768089 C114.563266,177.239818 115.354619,177.967709 116.006403,178.948961 C116.270188,179.368898 116.466979,179.787435 116.588404,180.205972 C116.751699,180.779886 116.838231,181.327204 116.848001,181.847925 L116.848001,182.308456 C116.817296,183.237916 116.60236,184.080589 116.205986,184.840675 C115.992446,185.259212 115.696561,185.677749 115.318331,186.096286 C114.878691,186.568015 114.391597,186.961356 113.851467,187.277709 C113.086632,187.696246 112.253409,187.937009 111.357379,188 L111.188502,188 L110.715365,188 C110.27712,187.990201 109.857019,187.93281 109.460645,187.830625 C109.043335,187.738239 108.62463,187.584263 108.20732,187.368695 C106.748831,186.562416 105.774643,185.421588 105.283362,183.950409 C105.122859,183.397492 105.030743,182.871171 105.009808,182.368647 L105.009808,181.908116 C105.041909,181.029048 105.255449,180.190575 105.651823,179.391295 C106.131938,178.431039 106.818615,177.658355 107.717435,177.077443 C108.49204,176.586117 109.326659,176.289361 110.22548,176.187177 Z M110.729322,177.245417 C110.178026,177.276213 109.653249,177.393795 109.15499,177.598164 C108.20732,177.976108 107.436903,178.635408 106.845133,179.577467 C106.427823,180.302558 106.203118,181.080841 106.171017,181.908116 L106.171017,182.323854 C106.203118,182.792783 106.272902,183.21132 106.384557,183.580865 C106.641363,184.480929 107.228946,185.292807 108.144515,186.020698 C108.920515,186.583413 109.776069,186.880168 110.715365,186.910964 L111.113135,186.910964 C111.590459,186.889967 112.01056,186.817178 112.366459,186.696796 C112.804704,186.562416 113.222013,186.363646 113.621179,186.096286 C114.52,185.484578 115.120144,184.690898 115.424403,183.719444 C115.579324,183.291108 115.670043,182.808181 115.702144,182.277661 L115.702144,181.863323 C115.681209,181.433588 115.610029,181.015051 115.487209,180.603512 C115.365784,180.163979 115.166201,179.745441 114.889856,179.347901 C114.430676,178.683001 113.840302,178.166479 113.114546,177.796935 C112.433452,177.449787 111.759337,177.266414 111.096387,177.245417 L110.729322,177.245417 Z M120.693111,187.722842 L120.693111,176.43354 L120.938751,176.43354 L128.416826,185.084239 L128.416826,176.43354 L129.534769,176.43354 L129.534769,187.722842 L129.273776,187.722842 C127.765042,185.994102 126.266077,184.266761 124.778278,182.539421 C123.799903,181.412591 122.820133,180.298358 121.841759,179.192525 L121.841759,187.722842 L120.693111,187.722842 Z M133.839059,187.722842 L133.839059,176.43354 L136.640197,176.43354 C137.699521,176.441938 138.622069,176.541323 139.407839,176.723296 C139.807004,176.815682 140.224314,176.986456 140.662559,177.23002 C141.642329,177.802534 142.344358,178.580817 142.771438,179.562069 C142.957064,179.970808 143.082675,180.389345 143.155251,180.81908 C143.2362,181.209621 143.283654,181.591764 143.292028,181.971107 L143.292028,182.459633 C143.283654,182.921564 143.226431,183.3457 143.124546,183.734841 C142.920776,184.654503 142.503466,185.469181 141.871221,186.173275 C141.421811,186.643604 140.957048,186.986552 140.476933,187.20212 C139.807004,187.508674 138.968198,187.678048 137.968889,187.707444 L137.738601,187.722842 L133.839059,187.722842 Z M137.816759,177.63036 C137.276629,177.588366 136.742082,177.556171 136.213118,177.535174 L134.91234,177.535174 L134.91234,186.664601 L136.732312,186.664601 C137.240341,186.654802 137.753953,186.622607 138.277335,186.573615 C138.765824,186.531621 139.181738,186.456032 139.529263,186.342649 C139.968904,186.188672 140.386213,185.942309 140.785379,185.60496 C141.171984,185.269011 141.476243,184.868671 141.702344,184.40814 C141.978689,183.806231 142.129423,183.156728 142.161524,182.459633 L142.161524,182.0145 C142.140588,181.567967 142.080574,181.146631 141.978689,180.758889 C141.846099,180.308157 141.65489,179.88962 141.412041,179.499079 C141.177566,179.122535 140.814688,178.752991 140.326199,178.397444 C139.936803,178.139883 139.519494,177.952311 139.070083,177.82913 C138.622069,177.715747 138.203363,177.648557 137.816759,177.63036 Z" id="形状结合" fill="#442E4D"></path>
                        </g>
                    </g>
                </g>
            </g>
        </g>
    </g>
</svg>