<?xml version="1.0" encoding="UTF-8"?>
<svg width="24px" height="24px" viewBox="0 0 24 24" version="1.1" xmlns="http://www.w3.org/2000/svg" xmlns:xlink="http://www.w3.org/1999/xlink">
    <!-- Generator: Sketch 56.2 (81672) - https://sketch.com -->
    <title>编组 12复制备份</title>
    <desc>Created with Sketch.</desc>
    <g id="Page-2" stroke="none" stroke-width="1" fill="none" fill-rule="evenodd">
        <g id="P8-订单" transform="translate(-1669.000000, -616.000000)">
            <g id="编组-15" transform="translate(100.000000, 120.000000)">
                <g id="编组-12复制备份" transform="translate(1569.000000, 496.000000)">
                    <g id="通用-copy-6" transform="translate(12.000000, 12.000000) scale(1, -1) translate(-12.000000, -12.000000) ">
                        <rect id="矩形" fill="#D8D8D8" fill-rule="nonzero" opacity="0" x="0" y="0" width="24" height="24"></rect>
                        <g id="分组-9" transform="translate(2.000000, 2.000000)">
                            <path d="M10,0 C4.47702128,0 0,4.47702128 0,10 C0,15.5229787 4.47702128,20 10,20 C15.5229787,20 20,15.5229787 20,10 C20,4.47702128 15.5229787,0 10,0 Z" id="Shape" fill="#5A4668"></path>
                            <polygon id="路径" fill="#FFFFFF" fill-rule="nonzero" points="8.75 8.75 8.75 4.5 11.25 4.5 11.25 8.75 15.5 8.75 15.5 11.25 11.25 11.25 11.25 15.5 8.75 15.5 8.75 11.25 4.5 11.25 4.5 8.75"></polygon>
                        </g>
                    </g>
                </g>
            </g>
        </g>
    </g>
</svg>