<?xml version="1.0" encoding="UTF-8"?>
<svg width="48px" height="48px" viewBox="0 0 48 48" version="1.1" xmlns="http://www.w3.org/2000/svg" xmlns:xlink="http://www.w3.org/1999/xlink">
    <!-- Generator: Sketch 56.2 (81672) - https://sketch.com -->
    <title>分组 21</title>
    <desc>Created with Sketch.</desc>
    <g id="Page-2" stroke="none" stroke-width="1" fill="none" fill-rule="evenodd">
        <g id="P8-订单" transform="translate(-100.000000, -44.000000)">
            <g id="编组-10" transform="translate(100.000000, 44.000000)">
                <g id="分组-21">
                    <rect id="矩形" fill="#D8D8D8" opacity="0" x="0" y="0" width="48" height="48"></rect>
                    <path d="M30,8.74264069 L30,15 L36.2573593,15 L30,8.74264069 Z M37.5,18 L27,18 L27,7.5 L10.5,7.5 L10.5,40.5 L37.5,40.5 L37.5,18 Z M30,4.5 L40.5,15 L40.5,43.5 L7.5,43.5 L7.5,4.5 L30,4.5 Z M15,22.5 L33,22.5 L33,25.5 L15,25.5 L15,22.5 Z M15,30 L33,30 L33,33 L15,33 L15,30 Z" id="形状结合" fill="#D69E95" fill-rule="nonzero"></path>
                </g>
            </g>
        </g>
    </g>
</svg>